<?xml version="1.0" encoding="UTF-8" ?>
<svg width="100.00" height="100.00" xmlns="http://www.w3.org/2000/svg">
  <polyline stroke="#000000" stroke-width="1.00" stroke-linecap="square" fill="none" points="30.00,50.00  30.05,49.29 30.10,49.00 30.15,48.78 30.20,48.59 30.25,48.42 30.30,48.27 30.35,48.14 30.40,48.01 30.45,47.89 30.50,47.78 30.55,47.67 30.60,47.57 30.65,47.47 30.70,47.38 30.75,47.29 30.80,47.20 30.85,47.12 30.90,47.03 30.95,46.95 31.00,46.88 31.05,46.80 31.10,46.73 31.15,46.66 31.20,46.59 31.25,46.52 31.30,46.45 31.35,46.39 31.40,46.32 31.45,46.26 31.50,46.20 31.55,46.14 31.60,46.08 31.65,46.02 31.70,45.97 31.75,45.91 31.80,45.85 31.85,45.80 31.90,45.75 31.95,45.69 32.00,45.64 32.05,45.59 32.10,45.54 32.15,45.49 32.20,45.44 32.25,45.39 32.30,45.34 32.35,45.30 32.40,45.25 32.45,45.20 32.50,45.16 32.55,45.11 32.60,45.07 32.65,45.03 32.70,44.98 32.75,44.94 32.80,44.90 32.85,44.86 32.90,44.81 32.95,44.77 33.00,44.73 33.05,44.69 33.10,44.65 33.15,44.61 33.20,44.57 33.25,44.54 33.30,44.50 33.35,44.46 33.40,44.42 33.45,44.39 33.50,44.35 33.55,44.31 33.60,44.28 33.65,44.24 33.70,44.21 33.75,44.17 33.80,44.14 33.85,44.10 33.90,44.07 33.95,44.03 34.00,44.00 34.05,43.97 34.10,43.93 34.15,43.90 34.20,43.87 34.25,43.84 34.30,43.81 34.35,43.77 34.40,43.74 34.45,43.71 34.50,43.68 34.55,43.65 34.60,43.62 34.65,43.59 34.70,43.56 34.75,43.53 34.80,43.50 34.85,43.47 34.90,43.44 34.95,43.41 35.00,43.39 35.05,43.36 35.10,43.33 35.15,43.30 35.20,43.27 35.25,43.25 35.30,43.22 35.35,43.19 35.40,43.17 35.45,43.14 35.50,43.11 35.55,43.09 35.60,43.06 35.65,43.03 35.70,43.01 35.75,42.98 35.80,42.96 35.85,42.93 35.90,42.91 35.95,42.88 36.00,42.86 36.05,42.83 36.10,42.81 36.15,42.79 36.20,42.76 36.25,42.74 36.30,42.71 36.35,42.69 36.40,42.67 36.45,42.64 36.50,42.62 36.55,42.60 36.60,42.58 36.65,42.55 36.70,42.53 36.75,42.51 36.80,42.49 36.85,42.47 36.90,42.44 36.95,42.42 37.00,42.40 37.05,42.38 37.10,42.36 37.15,42.34 37.20,42.32 37.25,42.30 37.30,42.27 37.35,42.25 37.40,42.23 37.45,42.21 37.50,42.19 37.55,42.17 37.60,42.15 37.65,42.13 37.70,42.11 37.75,42.10 37.80,42.08 37.85,42.06 37.90,42.04 37.95,42.02 38.00,42.00 38.05,41.98 38.10,41.96 38.15,41.94 38.20,41.93 38.25,41.91 38.30,41.89 38.35,41.87 38.40,41.85 38.45,41.84 38.50,41.82 38.55,41.80 38.60,41.78 38.65,41.77 38.70,41.75 38.75,41.73 38.80,41.72 38.85,41.70 38.90,41.68 38.95,41.66 39.00,41.65 39.05,41.63 39.10,41.62 39.15,41.60 39.20,41.58 39.25,41.57 39.30,41.55 39.35,41.54 39.40,41.52 39.45,41.50 39.50,41.49 39.55,41.47 39.60,41.46 39.65,41.44 39.70,41.43 39.75,41.41 39.80,41.40 39.85,41.38 39.90,41.37 39.95,41.35 40.00,41.34 40.05,41.33 40.10,41.31 40.15,41.30 40.20,41.28 40.25,41.27 40.30,41.25 40.35,41.24 40.40,41.23 40.45,41.21 40.50,41.20 40.55,41.19 40.60,41.17 40.65,41.16 40.70,41.15 40.75,41.13 40.80,41.12 40.85,41.11 40.90,41.10 40.95,41.08 41.00,41.07 41.05,41.06 41.10,41.04 41.15,41.03 41.20,41.02 41.25,41.01 41.30,41.00 41.35,40.98 41.40,40.97 41.45,40.96 41.50,40.95 41.55,40.94 41.60,40.92 41.65,40.91 41.70,40.90 41.75,40.89 41.80,40.88 41.85,40.87 41.90,40.86 41.95,40.85 42.00,40.83 42.05,40.82 42.10,40.81 42.15,40.80 42.20,40.79 42.25,40.78 42.30,40.77 42.35,40.76 42.40,40.75 42.45,40.74 42.50,40.73 42.55,40.72 42.60,40.71 42.65,40.70 42.70,40.69 42.75,40.68 42.80,40.67 42.85,40.66 42.90,40.65 42.95,40.64 43.00,40.63 43.05,40.62 43.10,40.61 43.15,40.60 43.20,40.60 43.25,40.59 43.30,40.58 43.35,40.57 43.40,40.56 43.45,40.55 43.50,40.54 43.55,40.53 43.60,40.53 43.65,40.52 43.70,40.51 43.75,40.50 43.80,40.49 43.85,40.48 43.90,40.48 43.95,40.47 44.00,40.46 44.05,40.45 44.10,40.45 44.15,40.44 44.20,40.43 44.25,40.42 44.30,40.41 44.35,40.41 44.40,40.40 44.45,40.39 44.50,40.39 44.55,40.38 44.60,40.37 44.65,40.36 44.70,40.36 44.75,40.35 44.80,40.34 44.85,40.34 44.90,40.33 44.95,40.32 45.00,40.32 45.05,40.31 45.10,40.30 45.15,40.30 45.20,40.29 45.25,40.29 45.30,40.28 45.35,40.27 45.40,40.27 45.45,40.26 45.50,40.26 45.55,40.25 45.60,40.25 45.65,40.24 45.70,40.23 45.75,40.23 45.80,40.22 45.85,40.22 45.90,40.21 45.95,40.21 46.00,40.20 46.05,40.20 46.10,40.19 46.15,40.19 46.20,40.18 46.25,40.18 46.30,40.17 46.35,40.17 46.40,40.16 46.45,40.16 46.50,40.15 46.55,40.15 46.60,40.15 46.65,40.14 46.70,40.14 46.75,40.13 46.80,40.13 46.85,40.12 46.90,40.12 46.95,40.12 47.00,40.11 47.05,40.11 47.10,40.11 47.15,40.10 47.20,40.10 47.25,40.09 47.30,40.09 47.35,40.09 47.40,40.08 47.45,40.08 47.50,40.08 47.55,40.08 47.60,40.07 47.65,40.07 47.70,40.07 47.75,40.06 47.80,40.06 47.85,40.06 47.90,40.06 47.95,40.05 48.00,40.05 48.05,40.05 48.10,40.05 48.15,40.04 48.20,40.04 48.25,40.04 48.30,40.04 48.35,40.03 48.40,40.03 48.45,40.03 48.50,40.03 48.55,40.03 48.60,40.02 48.65,40.02 48.70,40.02 48.75,40.02 48.80,40.02 48.85,40.02 48.90,40.02 48.95,40.01 49.00,40.01 49.05,40.01 49.10,40.01 49.15,40.01 49.20,40.01 49.25,40.01 49.30,40.01 49.35,40.01 49.40,40.00 49.45,40.00 49.50,40.00 49.55,40.00 49.60,40.00 49.65,40.00 49.70,40.00 49.75,40.00 49.80,40.00 49.85,40.00 49.90,40.00 49.95,40.00 50.00,40.00 50.05,40.00 50.10,40.00 50.15,40.00 50.20,40.00 50.25,40.00 50.30,40.00 50.35,40.00 50.40,40.00 50.45,40.00 50.50,40.00 50.55,40.00 50.60,40.00 50.65,40.01 50.70,40.01 50.75,40.01 50.80,40.01 50.85,40.01 50.90,40.01 50.95,40.01 51.00,40.01 51.05,40.01 51.10,40.02 51.15,40.02 51.20,40.02 51.25,40.02 51.30,40.02 51.35,40.02 51.40,40.02 51.45,40.03 51.50,40.03 51.55,40.03 51.60,40.03 51.65,40.03 51.70,40.04 51.75,40.04 51.80,40.04 51.85,40.04 51.90,40.05 51.95,40.05 52.00,40.05 52.05,40.05 52.10,40.06 52.15,40.06 52.20,40.06 52.25,40.06 52.30,40.07 52.35,40.07 52.40,40.07 52.45,40.08 52.50,40.08 52.55,40.08 52.60,40.08 52.65,40.09 52.70,40.09 52.75,40.09 52.80,40.10 52.85,40.10 52.90,40.11 52.95,40.11 53.00,40.11 53.05,40.12 53.10,40.12 53.15,40.12 53.20,40.13 53.25,40.13 53.30,40.14 53.35,40.14 53.40,40.15 53.45,40.15 53.50,40.15 53.55,40.16 53.60,40.16 53.65,40.17 53.70,40.17 53.75,40.18 53.80,40.18 53.85,40.19 53.90,40.19 53.95,40.20 54.00,40.20 54.05,40.21 54.10,40.21 54.15,40.22 54.20,40.22 54.25,40.23 54.30,40.23 54.35,40.24 54.40,40.25 54.45,40.25 54.50,40.26 54.55,40.26 54.60,40.27 54.65,40.27 54.70,40.28 54.75,40.29 54.80,40.29 54.85,40.30 54.90,40.30 54.95,40.31 55.00,40.32 55.05,40.32 55.10,40.33 55.15,40.34 55.20,40.34 55.25,40.35 55.30,40.36 55.35,40.36 55.40,40.37 55.45,40.38 55.50,40.39 55.55,40.39 55.60,40.40 55.65,40.41 55.70,40.41 55.75,40.42 55.80,40.43 55.85,40.44 55.90,40.45 55.95,40.45 56.00,40.46 56.05,40.47 56.10,40.48 56.15,40.48 56.20,40.49 56.25,40.50 56.30,40.51 56.35,40.52 56.40,40.53 56.45,40.53 56.50,40.54 56.55,40.55 56.60,40.56 56.65,40.57 56.70,40.58 56.75,40.59 56.80,40.60 56.85,40.60 56.90,40.61 56.95,40.62 57.00,40.63 57.05,40.64 57.10,40.65 57.15,40.66 57.20,40.67 57.25,40.68 57.30,40.69 57.35,40.70 57.40,40.71 57.45,40.72 57.50,40.73 57.55,40.74 57.60,40.75 57.65,40.76 57.70,40.77 57.75,40.78 57.80,40.79 57.85,40.80 57.90,40.81 57.95,40.82 58.00,40.83 58.05,40.85 58.10,40.86 58.15,40.87 58.20,40.88 58.25,40.89 58.30,40.90 58.35,40.91 58.40,40.92 58.45,40.94 58.50,40.95 58.55,40.96 58.60,40.97 58.65,40.98 58.70,41.00 58.75,41.01 58.80,41.02 58.85,41.03 58.90,41.04 58.95,41.06 59.00,41.07 59.05,41.08 59.10,41.10 59.15,41.11 59.20,41.12 59.25,41.13 59.30,41.15 59.35,41.16 59.40,41.17 59.45,41.19 59.50,41.20 59.55,41.21 59.60,41.23 59.65,41.24 59.70,41.25 59.75,41.27 59.80,41.28 59.85,41.30 59.90,41.31 59.95,41.33 60.00,41.34 60.05,41.35 60.10,41.37 60.15,41.38 60.20,41.40 60.25,41.41 60.30,41.43 60.35,41.44 60.40,41.46 60.45,41.47 60.50,41.49 60.55,41.50 60.60,41.52 60.65,41.54 60.70,41.55 60.75,41.57 60.80,41.58 60.85,41.60 60.90,41.62 60.95,41.63 61.00,41.65 61.05,41.66 61.10,41.68 61.15,41.70 61.20,41.72 61.25,41.73 61.30,41.75 61.35,41.77 61.40,41.78 61.45,41.80 61.50,41.82 61.55,41.84 61.60,41.85 61.65,41.87 61.70,41.89 61.75,41.91 61.80,41.93 61.85,41.94 61.90,41.96 61.95,41.98 62.00,42.00 62.05,42.02 62.10,42.04 62.15,42.06 62.20,42.08 62.25,42.10 62.30,42.11 62.35,42.13 62.40,42.15 62.45,42.17 62.50,42.19 62.55,42.21 62.60,42.23 62.65,42.25 62.70,42.27 62.75,42.30 62.80,42.32 62.85,42.34 62.90,42.36 62.95,42.38 63.00,42.40 63.05,42.42 63.10,42.44 63.15,42.47 63.20,42.49 63.25,42.51 63.30,42.53 63.35,42.55 63.40,42.58 63.45,42.60 63.50,42.62 63.55,42.64 63.60,42.67 63.65,42.69 63.70,42.71 63.75,42.74 63.80,42.76 63.85,42.79 63.90,42.81 63.95,42.83 64.00,42.86 64.05,42.88 64.10,42.91 64.15,42.93 64.20,42.96 64.25,42.98 64.30,43.01 64.35,43.03 64.40,43.06 64.45,43.09 64.50,43.11 64.55,43.14 64.60,43.17 64.65,43.19 64.70,43.22 64.75,43.25 64.80,43.27 64.85,43.30 64.90,43.33 64.95,43.36 65.00,43.39 65.05,43.41 65.10,43.44 65.15,43.47 65.20,43.50 65.25,43.53 65.30,43.56 65.35,43.59 65.40,43.62 65.45,43.65 65.50,43.68 65.55,43.71 65.60,43.74 65.65,43.77 65.70,43.81 65.75,43.84 65.80,43.87 65.85,43.90 65.90,43.93 65.95,43.97 66.00,44.00 66.05,44.03 66.10,44.07 66.15,44.10 66.20,44.14 66.25,44.17 66.30,44.21 66.35,44.24 66.40,44.28 66.45,44.31 66.50,44.35 66.55,44.39 66.60,44.42 66.65,44.46 66.70,44.50 66.75,44.54 66.80,44.57 66.85,44.61 66.90,44.65 66.95,44.69 67.00,44.73 67.05,44.77 67.10,44.81 67.15,44.86 67.20,44.90 67.25,44.94 67.30,44.98 67.35,45.03 67.40,45.07 67.45,45.11 67.50,45.16 67.55,45.20 67.60,45.25 67.65,45.30 67.70,45.34 67.75,45.39 67.80,45.44 67.85,45.49 67.90,45.54 67.95,45.59 68.00,45.64 68.05,45.69 68.10,45.75 68.15,45.80 68.20,45.85 68.25,45.91 68.30,45.97 68.35,46.02 68.40,46.08 68.45,46.14 68.50,46.20 68.55,46.26 68.60,46.32 68.65,46.39 68.70,46.45 68.75,46.52 68.80,46.59 68.85,46.66 68.90,46.73 68.95,46.80 69.00,46.88 69.05,46.95 69.10,47.03 69.15,47.12 69.20,47.20 69.25,47.29 69.30,47.38 69.35,47.47 69.40,47.57 69.45,47.67 69.50,47.78 69.55,47.89 69.60,48.01 69.65,48.14 69.70,48.27 69.75,48.42 69.80,48.59 69.85,48.78 69.90,49.00 69.95,49.29 70.00,50.00 69.95,50.71 69.90,51.00 69.85,51.22 69.80,51.41 69.75,51.58 69.70,51.73 69.65,51.86 69.60,51.99 69.55,52.11 69.50,52.22 69.45,52.33 69.40,52.43 69.35,52.53 69.30,52.62 69.25,52.71 69.20,52.80 69.15,52.88 69.10,52.97 69.05,53.05 69.00,53.12 68.95,53.20 68.90,53.27 68.85,53.34 68.80,53.41 68.75,53.48 68.70,53.55 68.65,53.61 68.60,53.68 68.55,53.74 68.50,53.80 68.45,53.86 68.40,53.92 68.35,53.98 68.30,54.03 68.25,54.09 68.20,54.15 68.15,54.20 68.10,54.25 68.05,54.31 68.00,54.36 67.95,54.41 67.90,54.46 67.85,54.51 67.80,54.56 67.75,54.61 67.70,54.66 67.65,54.70 67.60,54.75 67.55,54.80 67.50,54.84 67.45,54.89 67.40,54.93 67.35,54.97 67.30,55.02 67.25,55.06 67.20,55.10 67.15,55.14 67.10,55.19 67.05,55.23 67.00,55.27 66.95,55.31 66.90,55.35 66.85,55.39 66.80,55.43 66.75,55.46 66.70,55.50 66.65,55.54 66.60,55.58 66.55,55.61 66.50,55.65 66.45,55.69 66.40,55.72 66.35,55.76 66.30,55.79 66.25,55.83 66.20,55.86 66.15,55.90 66.10,55.93 66.05,55.97 66.00,56.00 65.95,56.03 65.90,56.07 65.85,56.10 65.80,56.13 65.75,56.16 65.70,56.19 65.65,56.23 65.60,56.26 65.55,56.29 65.50,56.32 65.45,56.35 65.40,56.38 65.35,56.41 65.30,56.44 65.25,56.47 65.20,56.50 65.15,56.53 65.10,56.56 65.05,56.59 65.00,56.61 64.95,56.64 64.90,56.67 64.85,56.70 64.80,56.73 64.75,56.75 64.70,56.78 64.65,56.81 64.60,56.83 64.55,56.86 64.50,56.89 64.45,56.91 64.40,56.94 64.35,56.97 64.30,56.99 64.25,57.02 64.20,57.04 64.15,57.07 64.10,57.09 64.05,57.12 64.00,57.14 63.95,57.17 63.90,57.19 63.85,57.21 63.80,57.24 63.75,57.26 63.70,57.29 63.65,57.31 63.60,57.33 63.55,57.36 63.50,57.38 63.45,57.40 63.40,57.42 63.35,57.45 63.30,57.47 63.25,57.49 63.20,57.51 63.15,57.53 63.10,57.56 63.05,57.58 63.00,57.60 62.95,57.62 62.90,57.64 62.85,57.66 62.80,57.68 62.75,57.70 62.70,57.73 62.65,57.75 62.60,57.77 62.55,57.79 62.50,57.81 62.45,57.83 62.40,57.85 62.35,57.87 62.30,57.89 62.25,57.90 62.20,57.92 62.15,57.94 62.10,57.96 62.05,57.98 62.00,58.00 61.95,58.02 61.90,58.04 61.85,58.06 61.80,58.07 61.75,58.09 61.70,58.11 61.65,58.13 61.60,58.15 61.55,58.16 61.50,58.18 61.45,58.20 61.40,58.22 61.35,58.23 61.30,58.25 61.25,58.27 61.20,58.28 61.15,58.30 61.10,58.32 61.05,58.34 61.00,58.35 60.95,58.37 60.90,58.38 60.85,58.40 60.80,58.42 60.75,58.43 60.70,58.45 60.65,58.46 60.60,58.48 60.55,58.50 60.50,58.51 60.45,58.53 60.40,58.54 60.35,58.56 60.30,58.57 60.25,58.59 60.20,58.60 60.15,58.62 60.10,58.63 60.05,58.65 60.00,58.66 59.95,58.67 59.90,58.69 59.85,58.70 59.80,58.72 59.75,58.73 59.70,58.75 59.65,58.76 59.60,58.77 59.55,58.79 59.50,58.80 59.45,58.81 59.40,58.83 59.35,58.84 59.30,58.85 59.25,58.87 59.20,58.88 59.15,58.89 59.10,58.90 59.05,58.92 59.00,58.93 58.95,58.94 58.90,58.96 58.85,58.97 58.80,58.98 58.75,58.99 58.70,59.00 58.65,59.02 58.60,59.03 58.55,59.04 58.50,59.05 58.45,59.06 58.40,59.08 58.35,59.09 58.30,59.10 58.25,59.11 58.20,59.12 58.15,59.13 58.10,59.14 58.05,59.15 58.00,59.17 57.95,59.18 57.90,59.19 57.85,59.20 57.80,59.21 57.75,59.22 57.70,59.23 57.65,59.24 57.60,59.25 57.55,59.26 57.50,59.27 57.45,59.28 57.40,59.29 57.35,59.30 57.30,59.31 57.25,59.32 57.20,59.33 57.15,59.34 57.10,59.35 57.05,59.36 57.00,59.37 56.95,59.38 56.90,59.39 56.85,59.40 56.80,59.40 56.75,59.41 56.70,59.42 56.65,59.43 56.60,59.44 56.55,59.45 56.50,59.46 56.45,59.47 56.40,59.47 56.35,59.48 56.30,59.49 56.25,59.50 56.20,59.51 56.15,59.52 56.10,59.52 56.05,59.53 56.00,59.54 55.95,59.55 55.90,59.55 55.85,59.56 55.80,59.57 55.75,59.58 55.70,59.59 55.65,59.59 55.60,59.60 55.55,59.61 55.50,59.61 55.45,59.62 55.40,59.63 55.35,59.64 55.30,59.64 55.25,59.65 55.20,59.66 55.15,59.66 55.10,59.67 55.05,59.68 55.00,59.68 54.95,59.69 54.90,59.70 54.85,59.70 54.80,59.71 54.75,59.71 54.70,59.72 54.65,59.73 54.60,59.73 54.55,59.74 54.50,59.74 54.45,59.75 54.40,59.75 54.35,59.76 54.30,59.77 54.25,59.77 54.20,59.78 54.15,59.78 54.10,59.79 54.05,59.79 54.00,59.80 53.95,59.80 53.90,59.81 53.85,59.81 53.80,59.82 53.75,59.82 53.70,59.83 53.65,59.83 53.60,59.84 53.55,59.84 53.50,59.85 53.45,59.85 53.40,59.85 53.35,59.86 53.30,59.86 53.25,59.87 53.20,59.87 53.15,59.88 53.10,59.88 53.05,59.88 53.00,59.89 52.95,59.89 52.90,59.89 52.85,59.90 52.80,59.90 52.75,59.91 52.70,59.91 52.65,59.91 52.60,59.92 52.55,59.92 52.50,59.92 52.45,59.92 52.40,59.93 52.35,59.93 52.30,59.93 52.25,59.94 52.20,59.94 52.15,59.94 52.10,59.94 52.05,59.95 52.00,59.95 51.95,59.95 51.90,59.95 51.85,59.96 51.80,59.96 51.75,59.96 51.70,59.96 51.65,59.97 51.60,59.97 51.55,59.97 51.50,59.97 51.45,59.97 51.40,59.98 51.35,59.98 51.30,59.98 51.25,59.98 51.20,59.98 51.15,59.98 51.10,59.98 51.05,59.99 51.00,59.99 50.95,59.99 50.90,59.99 50.85,59.99 50.80,59.99 50.75,59.99 50.70,59.99 50.65,59.99 50.60,60.00 50.55,60.00 50.50,60.00 50.45,60.00 50.40,60.00 50.35,60.00 50.30,60.00 50.25,60.00 50.20,60.00 50.15,60.00 50.10,60.00 50.05,60.00 50.00,60.00 49.95,60.00 49.90,60.00 49.85,60.00 49.80,60.00 49.75,60.00 49.70,60.00 49.65,60.00 49.60,60.00 49.55,60.00 49.50,60.00 49.45,60.00 49.40,60.00 49.35,59.99 49.30,59.99 49.25,59.99 49.20,59.99 49.15,59.99 49.10,59.99 49.05,59.99 49.00,59.99 48.95,59.99 48.90,59.98 48.85,59.98 48.80,59.98 48.75,59.98 48.70,59.98 48.65,59.98 48.60,59.98 48.55,59.97 48.50,59.97 48.45,59.97 48.40,59.97 48.35,59.97 48.30,59.96 48.25,59.96 48.20,59.96 48.15,59.96 48.10,59.95 48.05,59.95 48.00,59.95 47.95,59.95 47.90,59.94 47.85,59.94 47.80,59.94 47.75,59.94 47.70,59.93 47.65,59.93 47.60,59.93 47.55,59.92 47.50,59.92 47.45,59.92 47.40,59.92 47.35,59.91 47.30,59.91 47.25,59.91 47.20,59.90 47.15,59.90 47.10,59.89 47.05,59.89 47.00,59.89 46.95,59.88 46.90,59.88 46.85,59.88 46.80,59.87 46.75,59.87 46.70,59.86 46.65,59.86 46.60,59.85 46.55,59.85 46.50,59.85 46.45,59.84 46.40,59.84 46.35,59.83 46.30,59.83 46.25,59.82 46.20,59.82 46.15,59.81 46.10,59.81 46.05,59.80 46.00,59.80 45.95,59.79 45.90,59.79 45.85,59.78 45.80,59.78 45.75,59.77 45.70,59.77 45.65,59.76 45.60,59.75 45.55,59.75 45.50,59.74 45.45,59.74 45.40,59.73 45.35,59.73 45.30,59.72 45.25,59.71 45.20,59.71 45.15,59.70 45.10,59.70 45.05,59.69 45.00,59.68 44.95,59.68 44.90,59.67 44.85,59.66 44.80,59.66 44.75,59.65 44.70,59.64 44.65,59.64 44.60,59.63 44.55,59.62 44.50,59.61 44.45,59.61 44.40,59.60 44.35,59.59 44.30,59.59 44.25,59.58 44.20,59.57 44.15,59.56 44.10,59.55 44.05,59.55 44.00,59.54 43.95,59.53 43.90,59.52 43.85,59.52 43.80,59.51 43.75,59.50 43.70,59.49 43.65,59.48 43.60,59.47 43.55,59.47 43.50,59.46 43.45,59.45 43.40,59.44 43.35,59.43 43.30,59.42 43.25,59.41 43.20,59.40 43.15,59.40 43.10,59.39 43.05,59.38 43.00,59.37 42.95,59.36 42.90,59.35 42.85,59.34 42.80,59.33 42.75,59.32 42.70,59.31 42.65,59.30 42.60,59.29 42.55,59.28 42.50,59.27 42.45,59.26 42.40,59.25 42.35,59.24 42.30,59.23 42.25,59.22 42.20,59.21 42.15,59.20 42.10,59.19 42.05,59.18 42.00,59.17 41.95,59.15 41.90,59.14 41.85,59.13 41.80,59.12 41.75,59.11 41.70,59.10 41.65,59.09 41.60,59.08 41.55,59.06 41.50,59.05 41.45,59.04 41.40,59.03 41.35,59.02 41.30,59.00 41.25,58.99 41.20,58.98 41.15,58.97 41.10,58.96 41.05,58.94 41.00,58.93 40.95,58.92 40.90,58.90 40.85,58.89 40.80,58.88 40.75,58.87 40.70,58.85 40.65,58.84 40.60,58.83 40.55,58.81 40.50,58.80 40.45,58.79 40.40,58.77 40.35,58.76 40.30,58.75 40.25,58.73 40.20,58.72 40.15,58.70 40.10,58.69 40.05,58.67 40.00,58.66 39.95,58.65 39.90,58.63 39.85,58.62 39.80,58.60 39.75,58.59 39.70,58.57 39.65,58.56 39.60,58.54 39.55,58.53 39.50,58.51 39.45,58.50 39.40,58.48 39.35,58.46 39.30,58.45 39.25,58.43 39.20,58.42 39.15,58.40 39.10,58.38 39.05,58.37 39.00,58.35 38.95,58.34 38.90,58.32 38.85,58.30 38.80,58.28 38.75,58.27 38.70,58.25 38.65,58.23 38.60,58.22 38.55,58.20 38.50,58.18 38.45,58.16 38.40,58.15 38.35,58.13 38.30,58.11 38.25,58.09 38.20,58.07 38.15,58.06 38.10,58.04 38.05,58.02 38.00,58.00 37.95,57.98 37.90,57.96 37.85,57.94 37.80,57.92 37.75,57.90 37.70,57.89 37.65,57.87 37.60,57.85 37.55,57.83 37.50,57.81 37.45,57.79 37.40,57.77 37.35,57.75 37.30,57.73 37.25,57.70 37.20,57.68 37.15,57.66 37.10,57.64 37.05,57.62 37.00,57.60 36.95,57.58 36.90,57.56 36.85,57.53 36.80,57.51 36.75,57.49 36.70,57.47 36.65,57.45 36.60,57.42 36.55,57.40 36.50,57.38 36.45,57.36 36.40,57.33 36.35,57.31 36.30,57.29 36.25,57.26 36.20,57.24 36.15,57.21 36.10,57.19 36.05,57.17 36.00,57.14 35.95,57.12 35.90,57.09 35.85,57.07 35.80,57.04 35.75,57.02 35.70,56.99 35.65,56.97 35.60,56.94 35.55,56.91 35.50,56.89 35.45,56.86 35.40,56.83 35.35,56.81 35.30,56.78 35.25,56.75 35.20,56.73 35.15,56.70 35.10,56.67 35.05,56.64 35.00,56.61 34.95,56.59 34.90,56.56 34.85,56.53 34.80,56.50 34.75,56.47 34.70,56.44 34.65,56.41 34.60,56.38 34.55,56.35 34.50,56.32 34.45,56.29 34.40,56.26 34.35,56.23 34.30,56.19 34.25,56.16 34.20,56.13 34.15,56.10 34.10,56.07 34.05,56.03 34.00,56.00 33.95,55.97 33.90,55.93 33.85,55.90 33.80,55.86 33.75,55.83 33.70,55.79 33.65,55.76 33.60,55.72 33.55,55.69 33.50,55.65 33.45,55.61 33.40,55.58 33.35,55.54 33.30,55.50 33.25,55.46 33.20,55.43 33.15,55.39 33.10,55.35 33.05,55.31 33.00,55.27 32.95,55.23 32.90,55.19 32.85,55.14 32.80,55.10 32.75,55.06 32.70,55.02 32.65,54.97 32.60,54.93 32.55,54.89 32.50,54.84 32.45,54.80 32.40,54.75 32.35,54.70 32.30,54.66 32.25,54.61 32.20,54.56 32.15,54.51 32.10,54.46 32.05,54.41 32.00,54.36 31.95,54.31 31.90,54.25 31.85,54.20 31.80,54.15 31.75,54.09 31.70,54.03 31.65,53.98 31.60,53.92 31.55,53.86 31.50,53.80 31.45,53.74 31.40,53.68 31.35,53.61 31.30,53.55 31.25,53.48 31.20,53.41 31.15,53.34 31.10,53.27 31.05,53.20 31.00,53.12 30.95,53.05 30.90,52.97 30.85,52.88 30.80,52.80 30.75,52.71 30.70,52.62 30.65,52.53 30.60,52.43 30.55,52.33 30.50,52.22 30.45,52.11 30.40,51.99 30.35,51.86 30.30,51.73 30.25,51.58 30.20,51.41 30.15,51.22 30.10,51.00 30.05,50.71 30.00,50.00"/>
</svg>
