<?xml version="1.0" encoding="UTF-8" ?>
<svg width="100.00" height="200.00" xmlns="http://www.w3.org/2000/svg">
  <polyline stroke="#000000" stroke-width="1.00" stroke-linecap="square" fill="none" points="30.00,100.00  30.05,99.29 30.10,99.00 30.15,98.78 30.20,98.59 30.25,98.42 30.30,98.27 30.35,98.14 30.40,98.01 30.45,97.89 30.50,97.78 30.55,97.67 30.60,97.57 30.65,97.47 30.70,97.38 30.75,97.29 30.80,97.20 30.85,97.12 30.90,97.03 30.95,96.95 31.00,96.88 31.05,96.80 31.10,96.73 31.15,96.66 31.20,96.59 31.25,96.52 31.30,96.45 31.35,96.39 31.40,96.32 31.45,96.26 31.50,96.20 31.55,96.14 31.60,96.08 31.65,96.02 31.70,95.97 31.75,95.91 31.80,95.85 31.85,95.80 31.90,95.75 31.95,95.69 32.00,95.64 32.05,95.59 32.10,95.54 32.15,95.49 32.20,95.44 32.25,95.39 32.30,95.34 32.35,95.30 32.40,95.25 32.45,95.20 32.50,95.16 32.55,95.11 32.60,95.07 32.65,95.03 32.70,94.98 32.75,94.94 32.80,94.90 32.85,94.86 32.90,94.81 32.95,94.77 33.00,94.73 33.05,94.69 33.10,94.65 33.15,94.61 33.20,94.57 33.25,94.54 33.30,94.50 33.35,94.46 33.40,94.42 33.45,94.39 33.50,94.35 33.55,94.31 33.60,94.28 33.65,94.24 33.70,94.21 33.75,94.17 33.80,94.14 33.85,94.10 33.90,94.07 33.95,94.03 34.00,94.00 34.05,93.97 34.10,93.93 34.15,93.90 34.20,93.87 34.25,93.84 34.30,93.81 34.35,93.77 34.40,93.74 34.45,93.71 34.50,93.68 34.55,93.65 34.60,93.62 34.65,93.59 34.70,93.56 34.75,93.53 34.80,93.50 34.85,93.47 34.90,93.44 34.95,93.41 35.00,93.39 35.05,93.36 35.10,93.33 35.15,93.30 35.20,93.27 35.25,93.25 35.30,93.22 35.35,93.19 35.40,93.17 35.45,93.14 35.50,93.11 35.55,93.09 35.60,93.06 35.65,93.03 35.70,93.01 35.75,92.98 35.80,92.96 35.85,92.93 35.90,92.91 35.95,92.88 36.00,92.86 36.05,92.83 36.10,92.81 36.15,92.79 36.20,92.76 36.25,92.74 36.30,92.71 36.35,92.69 36.40,92.67 36.45,92.64 36.50,92.62 36.55,92.60 36.60,92.58 36.65,92.55 36.70,92.53 36.75,92.51 36.80,92.49 36.85,92.47 36.90,92.44 36.95,92.42 37.00,92.40 37.05,92.38 37.10,92.36 37.15,92.34 37.20,92.32 37.25,92.30 37.30,92.27 37.35,92.25 37.40,92.23 37.45,92.21 37.50,92.19 37.55,92.17 37.60,92.15 37.65,92.13 37.70,92.11 37.75,92.10 37.80,92.08 37.85,92.06 37.90,92.04 37.95,92.02 38.00,92.00 38.05,91.98 38.10,91.96 38.15,91.94 38.20,91.93 38.25,91.91 38.30,91.89 38.35,91.87 38.40,91.85 38.45,91.84 38.50,91.82 38.55,91.80 38.60,91.78 38.65,91.77 38.70,91.75 38.75,91.73 38.80,91.72 38.85,91.70 38.90,91.68 38.95,91.66 39.00,91.65 39.05,91.63 39.10,91.62 39.15,91.60 39.20,91.58 39.25,91.57 39.30,91.55 39.35,91.54 39.40,91.52 39.45,91.50 39.50,91.49 39.55,91.47 39.60,91.46 39.65,91.44 39.70,91.43 39.75,91.41 39.80,91.40 39.85,91.38 39.90,91.37 39.95,91.35 40.00,91.34 40.05,91.33 40.10,91.31 40.15,91.30 40.20,91.28 40.25,91.27 40.30,91.25 40.35,91.24 40.40,91.23 40.45,91.21 40.50,91.20 40.55,91.19 40.60,91.17 40.65,91.16 40.70,91.15 40.75,91.13 40.80,91.12 40.85,91.11 40.90,91.10 40.95,91.08 41.00,91.07 41.05,91.06 41.10,91.04 41.15,91.03 41.20,91.02 41.25,91.01 41.30,91.00 41.35,90.98 41.40,90.97 41.45,90.96 41.50,90.95 41.55,90.94 41.60,90.92 41.65,90.91 41.70,90.90 41.75,90.89 41.80,90.88 41.85,90.87 41.90,90.86 41.95,90.85 42.00,90.83 42.05,90.82 42.10,90.81 42.15,90.80 42.20,90.79 42.25,90.78 42.30,90.77 42.35,90.76 42.40,90.75 42.45,90.74 42.50,90.73 42.55,90.72 42.60,90.71 42.65,90.70 42.70,90.69 42.75,90.68 42.80,90.67 42.85,90.66 42.90,90.65 42.95,90.64 43.00,90.63 43.05,90.62 43.10,90.61 43.15,90.60 43.20,90.60 43.25,90.59 43.30,90.58 43.35,90.57 43.40,90.56 43.45,90.55 43.50,90.54 43.55,90.53 43.60,90.53 43.65,90.52 43.70,90.51 43.75,90.50 43.80,90.49 43.85,90.48 43.90,90.48 43.95,90.47 44.00,90.46 44.05,90.45 44.10,90.45 44.15,90.44 44.20,90.43 44.25,90.42 44.30,90.41 44.35,90.41 44.40,90.40 44.45,90.39 44.50,90.39 44.55,90.38 44.60,90.37 44.65,90.36 44.70,90.36 44.75,90.35 44.80,90.34 44.85,90.34 44.90,90.33 44.95,90.32 45.00,90.32 45.05,90.31 45.10,90.30 45.15,90.30 45.20,90.29 45.25,90.29 45.30,90.28 45.35,90.27 45.40,90.27 45.45,90.26 45.50,90.26 45.55,90.25 45.60,90.25 45.65,90.24 45.70,90.23 45.75,90.23 45.80,90.22 45.85,90.22 45.90,90.21 45.95,90.21 46.00,90.20 46.05,90.20 46.10,90.19 46.15,90.19 46.20,90.18 46.25,90.18 46.30,90.17 46.35,90.17 46.40,90.16 46.45,90.16 46.50,90.15 46.55,90.15 46.60,90.15 46.65,90.14 46.70,90.14 46.75,90.13 46.80,90.13 46.85,90.12 46.90,90.12 46.95,90.12 47.00,90.11 47.05,90.11 47.10,90.11 47.15,90.10 47.20,90.10 47.25,90.09 47.30,90.09 47.35,90.09 47.40,90.08 47.45,90.08 47.50,90.08 47.55,90.08 47.60,90.07 47.65,90.07 47.70,90.07 47.75,90.06 47.80,90.06 47.85,90.06 47.90,90.06 47.95,90.05 48.00,90.05 48.05,90.05 48.10,90.05 48.15,90.04 48.20,90.04 48.25,90.04 48.30,90.04 48.35,90.03 48.40,90.03 48.45,90.03 48.50,90.03 48.55,90.03 48.60,90.02 48.65,90.02 48.70,90.02 48.75,90.02 48.80,90.02 48.85,90.02 48.90,90.02 48.95,90.01 49.00,90.01 49.05,90.01 49.10,90.01 49.15,90.01 49.20,90.01 49.25,90.01 49.30,90.01 49.35,90.01 49.40,90.00 49.45,90.00 49.50,90.00 49.55,90.00 49.60,90.00 49.65,90.00 49.70,90.00 49.75,90.00 49.80,90.00 49.85,90.00 49.90,90.00 49.95,90.00 50.00,90.00 50.05,90.00 50.10,90.00 50.15,90.00 50.20,90.00 50.25,90.00 50.30,90.00 50.35,90.00 50.40,90.00 50.45,90.00 50.50,90.00 50.55,90.00 50.60,90.00 50.65,90.01 50.70,90.01 50.75,90.01 50.80,90.01 50.85,90.01 50.90,90.01 50.95,90.01 51.00,90.01 51.05,90.01 51.10,90.02 51.15,90.02 51.20,90.02 51.25,90.02 51.30,90.02 51.35,90.02 51.40,90.02 51.45,90.03 51.50,90.03 51.55,90.03 51.60,90.03 51.65,90.03 51.70,90.04 51.75,90.04 51.80,90.04 51.85,90.04 51.90,90.05 51.95,90.05 52.00,90.05 52.05,90.05 52.10,90.06 52.15,90.06 52.20,90.06 52.25,90.06 52.30,90.07 52.35,90.07 52.40,90.07 52.45,90.08 52.50,90.08 52.55,90.08 52.60,90.08 52.65,90.09 52.70,90.09 52.75,90.09 52.80,90.10 52.85,90.10 52.90,90.11 52.95,90.11 53.00,90.11 53.05,90.12 53.10,90.12 53.15,90.12 53.20,90.13 53.25,90.13 53.30,90.14 53.35,90.14 53.40,90.15 53.45,90.15 53.50,90.15 53.55,90.16 53.60,90.16 53.65,90.17 53.70,90.17 53.75,90.18 53.80,90.18 53.85,90.19 53.90,90.19 53.95,90.20 54.00,90.20 54.05,90.21 54.10,90.21 54.15,90.22 54.20,90.22 54.25,90.23 54.30,90.23 54.35,90.24 54.40,90.25 54.45,90.25 54.50,90.26 54.55,90.26 54.60,90.27 54.65,90.27 54.70,90.28 54.75,90.29 54.80,90.29 54.85,90.30 54.90,90.30 54.95,90.31 55.00,90.32 55.05,90.32 55.10,90.33 55.15,90.34 55.20,90.34 55.25,90.35 55.30,90.36 55.35,90.36 55.40,90.37 55.45,90.38 55.50,90.39 55.55,90.39 55.60,90.40 55.65,90.41 55.70,90.41 55.75,90.42 55.80,90.43 55.85,90.44 55.90,90.45 55.95,90.45 56.00,90.46 56.05,90.47 56.10,90.48 56.15,90.48 56.20,90.49 56.25,90.50 56.30,90.51 56.35,90.52 56.40,90.53 56.45,90.53 56.50,90.54 56.55,90.55 56.60,90.56 56.65,90.57 56.70,90.58 56.75,90.59 56.80,90.60 56.85,90.60 56.90,90.61 56.95,90.62 57.00,90.63 57.05,90.64 57.10,90.65 57.15,90.66 57.20,90.67 57.25,90.68 57.30,90.69 57.35,90.70 57.40,90.71 57.45,90.72 57.50,90.73 57.55,90.74 57.60,90.75 57.65,90.76 57.70,90.77 57.75,90.78 57.80,90.79 57.85,90.80 57.90,90.81 57.95,90.82 58.00,90.83 58.05,90.85 58.10,90.86 58.15,90.87 58.20,90.88 58.25,90.89 58.30,90.90 58.35,90.91 58.40,90.92 58.45,90.94 58.50,90.95 58.55,90.96 58.60,90.97 58.65,90.98 58.70,91.00 58.75,91.01 58.80,91.02 58.85,91.03 58.90,91.04 58.95,91.06 59.00,91.07 59.05,91.08 59.10,91.10 59.15,91.11 59.20,91.12 59.25,91.13 59.30,91.15 59.35,91.16 59.40,91.17 59.45,91.19 59.50,91.20 59.55,91.21 59.60,91.23 59.65,91.24 59.70,91.25 59.75,91.27 59.80,91.28 59.85,91.30 59.90,91.31 59.95,91.33 60.00,91.34 60.05,91.35 60.10,91.37 60.15,91.38 60.20,91.40 60.25,91.41 60.30,91.43 60.35,91.44 60.40,91.46 60.45,91.47 60.50,91.49 60.55,91.50 60.60,91.52 60.65,91.54 60.70,91.55 60.75,91.57 60.80,91.58 60.85,91.60 60.90,91.62 60.95,91.63 61.00,91.65 61.05,91.66 61.10,91.68 61.15,91.70 61.20,91.72 61.25,91.73 61.30,91.75 61.35,91.77 61.40,91.78 61.45,91.80 61.50,91.82 61.55,91.84 61.60,91.85 61.65,91.87 61.70,91.89 61.75,91.91 61.80,91.93 61.85,91.94 61.90,91.96 61.95,91.98 62.00,92.00 62.05,92.02 62.10,92.04 62.15,92.06 62.20,92.08 62.25,92.10 62.30,92.11 62.35,92.13 62.40,92.15 62.45,92.17 62.50,92.19 62.55,92.21 62.60,92.23 62.65,92.25 62.70,92.27 62.75,92.30 62.80,92.32 62.85,92.34 62.90,92.36 62.95,92.38 63.00,92.40 63.05,92.42 63.10,92.44 63.15,92.47 63.20,92.49 63.25,92.51 63.30,92.53 63.35,92.55 63.40,92.58 63.45,92.60 63.50,92.62 63.55,92.64 63.60,92.67 63.65,92.69 63.70,92.71 63.75,92.74 63.80,92.76 63.85,92.79 63.90,92.81 63.95,92.83 64.00,92.86 64.05,92.88 64.10,92.91 64.15,92.93 64.20,92.96 64.25,92.98 64.30,93.01 64.35,93.03 64.40,93.06 64.45,93.09 64.50,93.11 64.55,93.14 64.60,93.17 64.65,93.19 64.70,93.22 64.75,93.25 64.80,93.27 64.85,93.30 64.90,93.33 64.95,93.36 65.00,93.39 65.05,93.41 65.10,93.44 65.15,93.47 65.20,93.50 65.25,93.53 65.30,93.56 65.35,93.59 65.40,93.62 65.45,93.65 65.50,93.68 65.55,93.71 65.60,93.74 65.65,93.77 65.70,93.81 65.75,93.84 65.80,93.87 65.85,93.90 65.90,93.93 65.95,93.97 66.00,94.00 66.05,94.03 66.10,94.07 66.15,94.10 66.20,94.14 66.25,94.17 66.30,94.21 66.35,94.24 66.40,94.28 66.45,94.31 66.50,94.35 66.55,94.39 66.60,94.42 66.65,94.46 66.70,94.50 66.75,94.54 66.80,94.57 66.85,94.61 66.90,94.65 66.95,94.69 67.00,94.73 67.05,94.77 67.10,94.81 67.15,94.86 67.20,94.90 67.25,94.94 67.30,94.98 67.35,95.03 67.40,95.07 67.45,95.11 67.50,95.16 67.55,95.20 67.60,95.25 67.65,95.30 67.70,95.34 67.75,95.39 67.80,95.44 67.85,95.49 67.90,95.54 67.95,95.59 68.00,95.64 68.05,95.69 68.10,95.75 68.15,95.80 68.20,95.85 68.25,95.91 68.30,95.97 68.35,96.02 68.40,96.08 68.45,96.14 68.50,96.20 68.55,96.26 68.60,96.32 68.65,96.39 68.70,96.45 68.75,96.52 68.80,96.59 68.85,96.66 68.90,96.73 68.95,96.80 69.00,96.88 69.05,96.95 69.10,97.03 69.15,97.12 69.20,97.20 69.25,97.29 69.30,97.38 69.35,97.47 69.40,97.57 69.45,97.67 69.50,97.78 69.55,97.89 69.60,98.01 69.65,98.14 69.70,98.27 69.75,98.42 69.80,98.59 69.85,98.78 69.90,99.00 69.95,99.29 70.00,100.00 69.95,100.71 69.90,101.00 69.85,101.22 69.80,101.41 69.75,101.58 69.70,101.73 69.65,101.86 69.60,101.99 69.55,102.11 69.50,102.22 69.45,102.33 69.40,102.43 69.35,102.53 69.30,102.62 69.25,102.71 69.20,102.80 69.15,102.88 69.10,102.97 69.05,103.05 69.00,103.12 68.95,103.20 68.90,103.27 68.85,103.34 68.80,103.41 68.75,103.48 68.70,103.55 68.65,103.61 68.60,103.68 68.55,103.74 68.50,103.80 68.45,103.86 68.40,103.92 68.35,103.98 68.30,104.03 68.25,104.09 68.20,104.15 68.15,104.20 68.10,104.25 68.05,104.31 68.00,104.36 67.95,104.41 67.90,104.46 67.85,104.51 67.80,104.56 67.75,104.61 67.70,104.66 67.65,104.70 67.60,104.75 67.55,104.80 67.50,104.84 67.45,104.89 67.40,104.93 67.35,104.97 67.30,105.02 67.25,105.06 67.20,105.10 67.15,105.14 67.10,105.19 67.05,105.23 67.00,105.27 66.95,105.31 66.90,105.35 66.85,105.39 66.80,105.43 66.75,105.46 66.70,105.50 66.65,105.54 66.60,105.58 66.55,105.61 66.50,105.65 66.45,105.69 66.40,105.72 66.35,105.76 66.30,105.79 66.25,105.83 66.20,105.86 66.15,105.90 66.10,105.93 66.05,105.97 66.00,106.00 65.95,106.03 65.90,106.07 65.85,106.10 65.80,106.13 65.75,106.16 65.70,106.19 65.65,106.23 65.60,106.26 65.55,106.29 65.50,106.32 65.45,106.35 65.40,106.38 65.35,106.41 65.30,106.44 65.25,106.47 65.20,106.50 65.15,106.53 65.10,106.56 65.05,106.59 65.00,106.61 64.95,106.64 64.90,106.67 64.85,106.70 64.80,106.73 64.75,106.75 64.70,106.78 64.65,106.81 64.60,106.83 64.55,106.86 64.50,106.89 64.45,106.91 64.40,106.94 64.35,106.97 64.30,106.99 64.25,107.02 64.20,107.04 64.15,107.07 64.10,107.09 64.05,107.12 64.00,107.14 63.95,107.17 63.90,107.19 63.85,107.21 63.80,107.24 63.75,107.26 63.70,107.29 63.65,107.31 63.60,107.33 63.55,107.36 63.50,107.38 63.45,107.40 63.40,107.42 63.35,107.45 63.30,107.47 63.25,107.49 63.20,107.51 63.15,107.53 63.10,107.56 63.05,107.58 63.00,107.60 62.95,107.62 62.90,107.64 62.85,107.66 62.80,107.68 62.75,107.70 62.70,107.73 62.65,107.75 62.60,107.77 62.55,107.79 62.50,107.81 62.45,107.83 62.40,107.85 62.35,107.87 62.30,107.89 62.25,107.90 62.20,107.92 62.15,107.94 62.10,107.96 62.05,107.98 62.00,108.00 61.95,108.02 61.90,108.04 61.85,108.06 61.80,108.07 61.75,108.09 61.70,108.11 61.65,108.13 61.60,108.15 61.55,108.16 61.50,108.18 61.45,108.20 61.40,108.22 61.35,108.23 61.30,108.25 61.25,108.27 61.20,108.28 61.15,108.30 61.10,108.32 61.05,108.34 61.00,108.35 60.95,108.37 60.90,108.38 60.85,108.40 60.80,108.42 60.75,108.43 60.70,108.45 60.65,108.46 60.60,108.48 60.55,108.50 60.50,108.51 60.45,108.53 60.40,108.54 60.35,108.56 60.30,108.57 60.25,108.59 60.20,108.60 60.15,108.62 60.10,108.63 60.05,108.65 60.00,108.66 59.95,108.67 59.90,108.69 59.85,108.70 59.80,108.72 59.75,108.73 59.70,108.75 59.65,108.76 59.60,108.77 59.55,108.79 59.50,108.80 59.45,108.81 59.40,108.83 59.35,108.84 59.30,108.85 59.25,108.87 59.20,108.88 59.15,108.89 59.10,108.90 59.05,108.92 59.00,108.93 58.95,108.94 58.90,108.96 58.85,108.97 58.80,108.98 58.75,108.99 58.70,109.00 58.65,109.02 58.60,109.03 58.55,109.04 58.50,109.05 58.45,109.06 58.40,109.08 58.35,109.09 58.30,109.10 58.25,109.11 58.20,109.12 58.15,109.13 58.10,109.14 58.05,109.15 58.00,109.17 57.95,109.18 57.90,109.19 57.85,109.20 57.80,109.21 57.75,109.22 57.70,109.23 57.65,109.24 57.60,109.25 57.55,109.26 57.50,109.27 57.45,109.28 57.40,109.29 57.35,109.30 57.30,109.31 57.25,109.32 57.20,109.33 57.15,109.34 57.10,109.35 57.05,109.36 57.00,109.37 56.95,109.38 56.90,109.39 56.85,109.40 56.80,109.40 56.75,109.41 56.70,109.42 56.65,109.43 56.60,109.44 56.55,109.45 56.50,109.46 56.45,109.47 56.40,109.47 56.35,109.48 56.30,109.49 56.25,109.50 56.20,109.51 56.15,109.52 56.10,109.52 56.05,109.53 56.00,109.54 55.95,109.55 55.90,109.55 55.85,109.56 55.80,109.57 55.75,109.58 55.70,109.59 55.65,109.59 55.60,109.60 55.55,109.61 55.50,109.61 55.45,109.62 55.40,109.63 55.35,109.64 55.30,109.64 55.25,109.65 55.20,109.66 55.15,109.66 55.10,109.67 55.05,109.68 55.00,109.68 54.95,109.69 54.90,109.70 54.85,109.70 54.80,109.71 54.75,109.71 54.70,109.72 54.65,109.73 54.60,109.73 54.55,109.74 54.50,109.74 54.45,109.75 54.40,109.75 54.35,109.76 54.30,109.77 54.25,109.77 54.20,109.78 54.15,109.78 54.10,109.79 54.05,109.79 54.00,109.80 53.95,109.80 53.90,109.81 53.85,109.81 53.80,109.82 53.75,109.82 53.70,109.83 53.65,109.83 53.60,109.84 53.55,109.84 53.50,109.85 53.45,109.85 53.40,109.85 53.35,109.86 53.30,109.86 53.25,109.87 53.20,109.87 53.15,109.88 53.10,109.88 53.05,109.88 53.00,109.89 52.95,109.89 52.90,109.89 52.85,109.90 52.80,109.90 52.75,109.91 52.70,109.91 52.65,109.91 52.60,109.92 52.55,109.92 52.50,109.92 52.45,109.92 52.40,109.93 52.35,109.93 52.30,109.93 52.25,109.94 52.20,109.94 52.15,109.94 52.10,109.94 52.05,109.95 52.00,109.95 51.95,109.95 51.90,109.95 51.85,109.96 51.80,109.96 51.75,109.96 51.70,109.96 51.65,109.97 51.60,109.97 51.55,109.97 51.50,109.97 51.45,109.97 51.40,109.98 51.35,109.98 51.30,109.98 51.25,109.98 51.20,109.98 51.15,109.98 51.10,109.98 51.05,109.99 51.00,109.99 50.95,109.99 50.90,109.99 50.85,109.99 50.80,109.99 50.75,109.99 50.70,109.99 50.65,109.99 50.60,110.00 50.55,110.00 50.50,110.00 50.45,110.00 50.40,110.00 50.35,110.00 50.30,110.00 50.25,110.00 50.20,110.00 50.15,110.00 50.10,110.00 50.05,110.00 50.00,110.00 49.95,110.00 49.90,110.00 49.85,110.00 49.80,110.00 49.75,110.00 49.70,110.00 49.65,110.00 49.60,110.00 49.55,110.00 49.50,110.00 49.45,110.00 49.40,110.00 49.35,109.99 49.30,109.99 49.25,109.99 49.20,109.99 49.15,109.99 49.10,109.99 49.05,109.99 49.00,109.99 48.95,109.99 48.90,109.98 48.85,109.98 48.80,109.98 48.75,109.98 48.70,109.98 48.65,109.98 48.60,109.98 48.55,109.97 48.50,109.97 48.45,109.97 48.40,109.97 48.35,109.97 48.30,109.96 48.25,109.96 48.20,109.96 48.15,109.96 48.10,109.95 48.05,109.95 48.00,109.95 47.95,109.95 47.90,109.94 47.85,109.94 47.80,109.94 47.75,109.94 47.70,109.93 47.65,109.93 47.60,109.93 47.55,109.92 47.50,109.92 47.45,109.92 47.40,109.92 47.35,109.91 47.30,109.91 47.25,109.91 47.20,109.90 47.15,109.90 47.10,109.89 47.05,109.89 47.00,109.89 46.95,109.88 46.90,109.88 46.85,109.88 46.80,109.87 46.75,109.87 46.70,109.86 46.65,109.86 46.60,109.85 46.55,109.85 46.50,109.85 46.45,109.84 46.40,109.84 46.35,109.83 46.30,109.83 46.25,109.82 46.20,109.82 46.15,109.81 46.10,109.81 46.05,109.80 46.00,109.80 45.95,109.79 45.90,109.79 45.85,109.78 45.80,109.78 45.75,109.77 45.70,109.77 45.65,109.76 45.60,109.75 45.55,109.75 45.50,109.74 45.45,109.74 45.40,109.73 45.35,109.73 45.30,109.72 45.25,109.71 45.20,109.71 45.15,109.70 45.10,109.70 45.05,109.69 45.00,109.68 44.95,109.68 44.90,109.67 44.85,109.66 44.80,109.66 44.75,109.65 44.70,109.64 44.65,109.64 44.60,109.63 44.55,109.62 44.50,109.61 44.45,109.61 44.40,109.60 44.35,109.59 44.30,109.59 44.25,109.58 44.20,109.57 44.15,109.56 44.10,109.55 44.05,109.55 44.00,109.54 43.95,109.53 43.90,109.52 43.85,109.52 43.80,109.51 43.75,109.50 43.70,109.49 43.65,109.48 43.60,109.47 43.55,109.47 43.50,109.46 43.45,109.45 43.40,109.44 43.35,109.43 43.30,109.42 43.25,109.41 43.20,109.40 43.15,109.40 43.10,109.39 43.05,109.38 43.00,109.37 42.95,109.36 42.90,109.35 42.85,109.34 42.80,109.33 42.75,109.32 42.70,109.31 42.65,109.30 42.60,109.29 42.55,109.28 42.50,109.27 42.45,109.26 42.40,109.25 42.35,109.24 42.30,109.23 42.25,109.22 42.20,109.21 42.15,109.20 42.10,109.19 42.05,109.18 42.00,109.17 41.95,109.15 41.90,109.14 41.85,109.13 41.80,109.12 41.75,109.11 41.70,109.10 41.65,109.09 41.60,109.08 41.55,109.06 41.50,109.05 41.45,109.04 41.40,109.03 41.35,109.02 41.30,109.00 41.25,108.99 41.20,108.98 41.15,108.97 41.10,108.96 41.05,108.94 41.00,108.93 40.95,108.92 40.90,108.90 40.85,108.89 40.80,108.88 40.75,108.87 40.70,108.85 40.65,108.84 40.60,108.83 40.55,108.81 40.50,108.80 40.45,108.79 40.40,108.77 40.35,108.76 40.30,108.75 40.25,108.73 40.20,108.72 40.15,108.70 40.10,108.69 40.05,108.67 40.00,108.66 39.95,108.65 39.90,108.63 39.85,108.62 39.80,108.60 39.75,108.59 39.70,108.57 39.65,108.56 39.60,108.54 39.55,108.53 39.50,108.51 39.45,108.50 39.40,108.48 39.35,108.46 39.30,108.45 39.25,108.43 39.20,108.42 39.15,108.40 39.10,108.38 39.05,108.37 39.00,108.35 38.95,108.34 38.90,108.32 38.85,108.30 38.80,108.28 38.75,108.27 38.70,108.25 38.65,108.23 38.60,108.22 38.55,108.20 38.50,108.18 38.45,108.16 38.40,108.15 38.35,108.13 38.30,108.11 38.25,108.09 38.20,108.07 38.15,108.06 38.10,108.04 38.05,108.02 38.00,108.00 37.95,107.98 37.90,107.96 37.85,107.94 37.80,107.92 37.75,107.90 37.70,107.89 37.65,107.87 37.60,107.85 37.55,107.83 37.50,107.81 37.45,107.79 37.40,107.77 37.35,107.75 37.30,107.73 37.25,107.70 37.20,107.68 37.15,107.66 37.10,107.64 37.05,107.62 37.00,107.60 36.95,107.58 36.90,107.56 36.85,107.53 36.80,107.51 36.75,107.49 36.70,107.47 36.65,107.45 36.60,107.42 36.55,107.40 36.50,107.38 36.45,107.36 36.40,107.33 36.35,107.31 36.30,107.29 36.25,107.26 36.20,107.24 36.15,107.21 36.10,107.19 36.05,107.17 36.00,107.14 35.95,107.12 35.90,107.09 35.85,107.07 35.80,107.04 35.75,107.02 35.70,106.99 35.65,106.97 35.60,106.94 35.55,106.91 35.50,106.89 35.45,106.86 35.40,106.83 35.35,106.81 35.30,106.78 35.25,106.75 35.20,106.73 35.15,106.70 35.10,106.67 35.05,106.64 35.00,106.61 34.95,106.59 34.90,106.56 34.85,106.53 34.80,106.50 34.75,106.47 34.70,106.44 34.65,106.41 34.60,106.38 34.55,106.35 34.50,106.32 34.45,106.29 34.40,106.26 34.35,106.23 34.30,106.19 34.25,106.16 34.20,106.13 34.15,106.10 34.10,106.07 34.05,106.03 34.00,106.00 33.95,105.97 33.90,105.93 33.85,105.90 33.80,105.86 33.75,105.83 33.70,105.79 33.65,105.76 33.60,105.72 33.55,105.69 33.50,105.65 33.45,105.61 33.40,105.58 33.35,105.54 33.30,105.50 33.25,105.46 33.20,105.43 33.15,105.39 33.10,105.35 33.05,105.31 33.00,105.27 32.95,105.23 32.90,105.19 32.85,105.14 32.80,105.10 32.75,105.06 32.70,105.02 32.65,104.97 32.60,104.93 32.55,104.89 32.50,104.84 32.45,104.80 32.40,104.75 32.35,104.70 32.30,104.66 32.25,104.61 32.20,104.56 32.15,104.51 32.10,104.46 32.05,104.41 32.00,104.36 31.95,104.31 31.90,104.25 31.85,104.20 31.80,104.15 31.75,104.09 31.70,104.03 31.65,103.98 31.60,103.92 31.55,103.86 31.50,103.80 31.45,103.74 31.40,103.68 31.35,103.61 31.30,103.55 31.25,103.48 31.20,103.41 31.15,103.34 31.10,103.27 31.05,103.20 31.00,103.12 30.95,103.05 30.90,102.97 30.85,102.88 30.80,102.80 30.75,102.71 30.70,102.62 30.65,102.53 30.60,102.43 30.55,102.33 30.50,102.22 30.45,102.11 30.40,101.99 30.35,101.86 30.30,101.73 30.25,101.58 30.20,101.41 30.15,101.22 30.10,101.00 30.05,100.71 30.00,100.00"/>
  <polyline stroke="#000000" stroke-width="1.00" stroke-linecap="square" fill="none" points="50.00,90.00  50.05,88.00 50.10,87.18 50.15,86.55 50.20,86.02 50.25,85.56 50.30,85.14 50.35,84.76 50.40,84.40 50.45,84.07 50.50,83.76 50.55,83.46 50.60,83.18 50.65,82.91 50.70,82.65 50.75,82.40 50.80,82.16 50.85,81.93 50.90,81.71 50.95,81.49 51.00,81.28 51.05,81.08 51.10,80.88 51.15,80.69 51.20,80.50 51.25,80.32 51.30,80.14 51.35,79.96 51.40,79.79 51.45,79.63 51.50,79.46 51.55,79.30 51.60,79.15 51.65,79.00 51.70,78.84 51.75,78.70 51.80,78.55 51.85,78.41 51.90,78.27 51.95,78.13 52.00,78.00 52.05,77.87 52.10,77.74 52.15,77.61 52.20,77.48 52.25,77.36 52.30,77.24 52.35,77.12 52.40,77.00 52.45,76.89 52.50,76.77 52.55,76.66 52.60,76.55 52.65,76.44 52.70,76.33 52.75,76.23 52.80,76.12 52.85,76.02 52.90,75.92 52.95,75.82 53.00,75.72 53.05,75.62 53.10,75.52 53.15,75.43 53.20,75.34 53.25,75.24 53.30,75.15 53.35,75.06 53.40,74.97 53.45,74.89 53.50,74.80 53.55,74.72 53.60,74.63 53.65,74.55 53.70,74.47 53.75,74.39 53.80,74.31 53.85,74.23 53.90,74.15 53.95,74.08 54.00,74.00 54.05,73.93 54.10,73.85 54.15,73.78 54.20,73.71 54.25,73.64 54.30,73.57 54.35,73.50 54.40,73.43 54.45,73.36 54.50,73.30 54.55,73.23 54.60,73.17 54.65,73.10 54.70,73.04 54.75,72.98 54.80,72.92 54.85,72.86 54.90,72.80 54.95,72.74 55.00,72.68 55.05,72.62 55.10,72.57 55.15,72.51 55.20,72.45 55.25,72.40 55.30,72.35 55.35,72.29 55.40,72.24 55.45,72.19 55.50,72.14 55.55,72.09 55.60,72.04 55.65,71.99 55.70,71.94 55.75,71.90 55.80,71.85 55.85,71.80 55.90,71.76 55.95,71.71 56.00,71.67 56.05,71.63 56.10,71.58 56.15,71.54 56.20,71.50 56.25,71.46 56.30,71.42 56.35,71.38 56.40,71.34 56.45,71.30 56.50,71.27 56.55,71.23 56.60,71.19 56.65,71.16 56.70,71.12 56.75,71.09 56.80,71.05 56.85,71.02 56.90,70.99 56.95,70.95 57.00,70.92 57.05,70.89 57.10,70.86 57.15,70.83 57.20,70.80 57.25,70.77 57.30,70.74 57.35,70.72 57.40,70.69 57.45,70.66 57.50,70.64 57.55,70.61 57.60,70.58 57.65,70.56 57.70,70.54 57.75,70.51 57.80,70.49 57.85,70.47 57.90,70.45 57.95,70.42 58.00,70.40 58.05,70.38 58.10,70.36 58.15,70.35 58.20,70.33 58.25,70.31 58.30,70.29 58.35,70.27 58.40,70.26 58.45,70.24 58.50,70.23 58.55,70.21 58.60,70.20 58.65,70.18 58.70,70.17 58.75,70.16 58.80,70.14 58.85,70.13 58.90,70.12 58.95,70.11 59.00,70.10 59.05,70.09 59.10,70.08 59.15,70.07 59.20,70.06 59.25,70.06 59.30,70.05 59.35,70.04 59.40,70.04 59.45,70.03 59.50,70.03 59.55,70.02 59.60,70.02 59.65,70.01 59.70,70.01 59.75,70.01 59.80,70.00 59.85,70.00 59.90,70.00 59.95,70.00 60.00,70.00 60.05,70.00 60.10,70.00 60.15,70.00 60.20,70.00 60.25,70.01 60.30,70.01 60.35,70.01 60.40,70.02 60.45,70.02 60.50,70.03 60.55,70.03 60.60,70.04 60.65,70.04 60.70,70.05 60.75,70.06 60.80,70.06 60.85,70.07 60.90,70.08 60.95,70.09 61.00,70.10 61.05,70.11 61.10,70.12 61.15,70.13 61.20,70.14 61.25,70.16 61.30,70.17 61.35,70.18 61.40,70.20 61.45,70.21 61.50,70.23 61.55,70.24 61.60,70.26 61.65,70.27 61.70,70.29 61.75,70.31 61.80,70.33 61.85,70.35 61.90,70.36 61.95,70.38 62.00,70.40 62.05,70.42 62.10,70.45 62.15,70.47 62.20,70.49 62.25,70.51 62.30,70.54 62.35,70.56 62.40,70.58 62.45,70.61 62.50,70.64 62.55,70.66 62.60,70.69 62.65,70.72 62.70,70.74 62.75,70.77 62.80,70.80 62.85,70.83 62.90,70.86 62.95,70.89 63.00,70.92 63.05,70.95 63.10,70.99 63.15,71.02 63.20,71.05 63.25,71.09 63.30,71.12 63.35,71.16 63.40,71.19 63.45,71.23 63.50,71.27 63.55,71.30 63.60,71.34 63.65,71.38 63.70,71.42 63.75,71.46 63.80,71.50 63.85,71.54 63.90,71.58 63.95,71.63 64.00,71.67 64.05,71.71 64.10,71.76 64.15,71.80 64.20,71.85 64.25,71.90 64.30,71.94 64.35,71.99 64.40,72.04 64.45,72.09 64.50,72.14 64.55,72.19 64.60,72.24 64.65,72.29 64.70,72.35 64.75,72.40 64.80,72.45 64.85,72.51 64.90,72.57 64.95,72.62 65.00,72.68 65.05,72.74 65.10,72.80 65.15,72.86 65.20,72.92 65.25,72.98 65.30,73.04 65.35,73.10 65.40,73.17 65.45,73.23 65.50,73.30 65.55,73.36 65.60,73.43 65.65,73.50 65.70,73.57 65.75,73.64 65.80,73.71 65.85,73.78 65.90,73.85 65.95,73.93 66.00,74.00 66.05,74.08 66.10,74.15 66.15,74.23 66.20,74.31 66.25,74.39 66.30,74.47 66.35,74.55 66.40,74.63 66.45,74.72 66.50,74.80 66.55,74.89 66.60,74.97 66.65,75.06 66.70,75.15 66.75,75.24 66.80,75.34 66.85,75.43 66.90,75.52 66.95,75.62 67.00,75.72 67.05,75.82 67.10,75.92 67.15,76.02 67.20,76.12 67.25,76.23 67.30,76.33 67.35,76.44 67.40,76.55 67.45,76.66 67.50,76.77 67.55,76.89 67.60,77.00 67.65,77.12 67.70,77.24 67.75,77.36 67.80,77.48 67.85,77.61 67.90,77.74 67.95,77.87 68.00,78.00 68.05,78.13 68.10,78.27 68.15,78.41 68.20,78.55 68.25,78.70 68.30,78.84 68.35,79.00 68.40,79.15 68.45,79.30 68.50,79.46 68.55,79.63 68.60,79.79 68.65,79.96 68.70,80.14 68.75,80.32 68.80,80.50 68.85,80.69 68.90,80.88 68.95,81.08 69.00,81.28 69.05,81.49 69.10,81.71 69.15,81.93 69.20,82.16 69.25,82.40 69.30,82.65 69.35,82.91 69.40,83.18 69.45,83.46 69.50,83.76 69.55,84.07 69.60,84.40 69.65,84.76 69.70,85.14 69.75,85.56 69.80,86.02 69.85,86.55 69.90,87.18 69.95,88.00 70.00,90.00 69.95,92.00 69.90,92.82 69.85,93.45 69.80,93.98 69.75,94.44 69.70,94.86 69.65,95.24 69.60,95.60 69.55,95.93 69.50,96.24 69.45,96.54 69.40,96.82 69.35,97.09 69.30,97.35 69.25,97.60 69.20,97.84 69.15,98.07 69.10,98.29 69.05,98.51 69.00,98.72 68.95,98.92 68.90,99.12 68.85,99.31 68.80,99.50 68.75,99.68 68.70,99.86 68.65,100.04 68.60,100.21 68.55,100.37 68.50,100.54 68.45,100.70 68.40,100.85 68.35,101.00 68.30,101.16 68.25,101.30 68.20,101.45 68.15,101.59 68.10,101.73 68.05,101.87 68.00,102.00 67.95,102.13 67.90,102.26 67.85,102.39 67.80,102.52 67.75,102.64 67.70,102.76 67.65,102.88 67.60,103.00 67.55,103.11 67.50,103.23 67.45,103.34 67.40,103.45 67.35,103.56 67.30,103.67 67.25,103.77 67.20,103.88 67.15,103.98 67.10,104.08 67.05,104.18 67.00,104.28 66.95,104.38 66.90,104.48 66.85,104.57 66.80,104.66 66.75,104.76 66.70,104.85 66.65,104.94 66.60,105.03 66.55,105.11 66.50,105.20 66.45,105.28 66.40,105.37 66.35,105.45 66.30,105.53 66.25,105.61 66.20,105.69 66.15,105.77 66.10,105.85 66.05,105.92 66.00,106.00 65.95,106.07 65.90,106.15 65.85,106.22 65.80,106.29 65.75,106.36 65.70,106.43 65.65,106.50 65.60,106.57 65.55,106.64 65.50,106.70 65.45,106.77 65.40,106.83 65.35,106.90 65.30,106.96 65.25,107.02 65.20,107.08 65.15,107.14 65.10,107.20 65.05,107.26 65.00,107.32 64.95,107.38 64.90,107.43 64.85,107.49 64.80,107.55 64.75,107.60 64.70,107.65 64.65,107.71 64.60,107.76 64.55,107.81 64.50,107.86 64.45,107.91 64.40,107.96 64.35,108.01 64.30,108.06 64.25,108.10 64.20,108.15 64.15,108.20 64.10,108.24 64.05,108.29 64.00,108.33 63.95,108.37 63.90,108.42 63.85,108.46 63.80,108.50 63.75,108.54 63.70,108.58 63.65,108.62 63.60,108.66 63.55,108.70 63.50,108.73 63.45,108.77 63.40,108.81 63.35,108.84 63.30,108.88 63.25,108.91 63.20,108.95 63.15,108.98 63.10,109.01 63.05,109.05 63.00,109.08 62.95,109.11 62.90,109.14 62.85,109.17 62.80,109.20 62.75,109.23 62.70,109.26 62.65,109.28 62.60,109.31 62.55,109.34 62.50,109.36 62.45,109.39 62.40,109.42 62.35,109.44 62.30,109.46 62.25,109.49 62.20,109.51 62.15,109.53 62.10,109.55 62.05,109.58 62.00,109.60 61.95,109.62 61.90,109.64 61.85,109.65 61.80,109.67 61.75,109.69 61.70,109.71 61.65,109.73 61.60,109.74 61.55,109.76 61.50,109.77 61.45,109.79 61.40,109.80 61.35,109.82 61.30,109.83 61.25,109.84 61.20,109.86 61.15,109.87 61.10,109.88 61.05,109.89 61.00,109.90 60.95,109.91 60.90,109.92 60.85,109.93 60.80,109.94 60.75,109.94 60.70,109.95 60.65,109.96 60.60,109.96 60.55,109.97 60.50,109.97 60.45,109.98 60.40,109.98 60.35,109.99 60.30,109.99 60.25,109.99 60.20,110.00 60.15,110.00 60.10,110.00 60.05,110.00 60.00,110.00 59.95,110.00 59.90,110.00 59.85,110.00 59.80,110.00 59.75,109.99 59.70,109.99 59.65,109.99 59.60,109.98 59.55,109.98 59.50,109.97 59.45,109.97 59.40,109.96 59.35,109.96 59.30,109.95 59.25,109.94 59.20,109.94 59.15,109.93 59.10,109.92 59.05,109.91 59.00,109.90 58.95,109.89 58.90,109.88 58.85,109.87 58.80,109.86 58.75,109.84 58.70,109.83 58.65,109.82 58.60,109.80 58.55,109.79 58.50,109.77 58.45,109.76 58.40,109.74 58.35,109.73 58.30,109.71 58.25,109.69 58.20,109.67 58.15,109.65 58.10,109.64 58.05,109.62 58.00,109.60 57.95,109.58 57.90,109.55 57.85,109.53 57.80,109.51 57.75,109.49 57.70,109.46 57.65,109.44 57.60,109.42 57.55,109.39 57.50,109.36 57.45,109.34 57.40,109.31 57.35,109.28 57.30,109.26 57.25,109.23 57.20,109.20 57.15,109.17 57.10,109.14 57.05,109.11 57.00,109.08 56.95,109.05 56.90,109.01 56.85,108.98 56.80,108.95 56.75,108.91 56.70,108.88 56.65,108.84 56.60,108.81 56.55,108.77 56.50,108.73 56.45,108.70 56.40,108.66 56.35,108.62 56.30,108.58 56.25,108.54 56.20,108.50 56.15,108.46 56.10,108.42 56.05,108.37 56.00,108.33 55.95,108.29 55.90,108.24 55.85,108.20 55.80,108.15 55.75,108.10 55.70,108.06 55.65,108.01 55.60,107.96 55.55,107.91 55.50,107.86 55.45,107.81 55.40,107.76 55.35,107.71 55.30,107.65 55.25,107.60 55.20,107.55 55.15,107.49 55.10,107.43 55.05,107.38 55.00,107.32 54.95,107.26 54.90,107.20 54.85,107.14 54.80,107.08 54.75,107.02 54.70,106.96 54.65,106.90 54.60,106.83 54.55,106.77 54.50,106.70 54.45,106.64 54.40,106.57 54.35,106.50 54.30,106.43 54.25,106.36 54.20,106.29 54.15,106.22 54.10,106.15 54.05,106.07 54.00,106.00 53.95,105.92 53.90,105.85 53.85,105.77 53.80,105.69 53.75,105.61 53.70,105.53 53.65,105.45 53.60,105.37 53.55,105.28 53.50,105.20 53.45,105.11 53.40,105.03 53.35,104.94 53.30,104.85 53.25,104.76 53.20,104.66 53.15,104.57 53.10,104.48 53.05,104.38 53.00,104.28 52.95,104.18 52.90,104.08 52.85,103.98 52.80,103.88 52.75,103.77 52.70,103.67 52.65,103.56 52.60,103.45 52.55,103.34 52.50,103.23 52.45,103.11 52.40,103.00 52.35,102.88 52.30,102.76 52.25,102.64 52.20,102.52 52.15,102.39 52.10,102.26 52.05,102.13 52.00,102.00 51.95,101.87 51.90,101.73 51.85,101.59 51.80,101.45 51.75,101.30 51.70,101.16 51.65,101.00 51.60,100.85 51.55,100.70 51.50,100.54 51.45,100.37 51.40,100.21 51.35,100.04 51.30,99.86 51.25,99.68 51.20,99.50 51.15,99.31 51.10,99.12 51.05,98.92 51.00,98.72 50.95,98.51 50.90,98.29 50.85,98.07 50.80,97.84 50.75,97.60 50.70,97.35 50.65,97.09 50.60,96.82 50.55,96.54 50.50,96.24 50.45,95.93 50.40,95.60 50.35,95.24 50.30,94.86 50.25,94.44 50.20,93.98 50.15,93.45 50.10,92.82 50.05,92.00 50.00,90.00"/>
</svg>
