<?xml version="1.0" encoding="UTF-8" ?>
<svg width="100.00" height="200.00" xmlns="http://www.w3.org/2000/svg">
  <polyline stroke="#000000" stroke-width="1.00" stroke-linecap="square" fill="none" points="50.00,90.00  50.05,88.00 50.10,87.18 50.15,86.55 50.20,86.02 50.25,85.56 50.30,85.14 50.35,84.76 50.40,84.40 50.45,84.07 50.50,83.76 50.55,83.46 50.60,83.18 50.65,82.91 50.70,82.65 50.75,82.40 50.80,82.16 50.85,81.93 50.90,81.71 50.95,81.49 51.00,81.28 51.05,81.08 51.10,80.88 51.15,80.69 51.20,80.50 51.25,80.32 51.30,80.14 51.35,79.96 51.40,79.79 51.45,79.63 51.50,79.46 51.55,79.30 51.60,79.15 51.65,79.00 51.70,78.84 51.75,78.70 51.80,78.55 51.85,78.41 51.90,78.27 51.95,78.13 52.00,78.00 52.05,77.87 52.10,77.74 52.15,77.61 52.20,77.48 52.25,77.36 52.30,77.24 52.35,77.12 52.40,77.00 52.45,76.89 52.50,76.77 52.55,76.66 52.60,76.55 52.65,76.44 52.70,76.33 52.75,76.23 52.80,76.12 52.85,76.02 52.90,75.92 52.95,75.82 53.00,75.72 53.05,75.62 53.10,75.52 53.15,75.43 53.20,75.34 53.25,75.24 53.30,75.15 53.35,75.06 53.40,74.97 53.45,74.89 53.50,74.80 53.55,74.72 53.60,74.63 53.65,74.55 53.70,74.47 53.75,74.39 53.80,74.31 53.85,74.23 53.90,74.15 53.95,74.08 54.00,74.00 54.05,73.93 54.10,73.85 54.15,73.78 54.20,73.71 54.25,73.64 54.30,73.57 54.35,73.50 54.40,73.43 54.45,73.36 54.50,73.30 54.55,73.23 54.60,73.17 54.65,73.10 54.70,73.04 54.75,72.98 54.80,72.92 54.85,72.86 54.90,72.80 54.95,72.74 55.00,72.68 55.05,72.62 55.10,72.57 55.15,72.51 55.20,72.45 55.25,72.40 55.30,72.35 55.35,72.29 55.40,72.24 55.45,72.19 55.50,72.14 55.55,72.09 55.60,72.04 55.65,71.99 55.70,71.94 55.75,71.90 55.80,71.85 55.85,71.80 55.90,71.76 55.95,71.71 56.00,71.67 56.05,71.63 56.10,71.58 56.15,71.54 56.20,71.50 56.25,71.46 56.30,71.42 56.35,71.38 56.40,71.34 56.45,71.30 56.50,71.27 56.55,71.23 56.60,71.19 56.65,71.16 56.70,71.12 56.75,71.09 56.80,71.05 56.85,71.02 56.90,70.99 56.95,70.95 57.00,70.92 57.05,70.89 57.10,70.86 57.15,70.83 57.20,70.80 57.25,70.77 57.30,70.74 57.35,70.72 57.40,70.69 57.45,70.66 57.50,70.64 57.55,70.61 57.60,70.58 57.65,70.56 57.70,70.54 57.75,70.51 57.80,70.49 57.85,70.47 57.90,70.45 57.95,70.42 58.00,70.40 58.05,70.38 58.10,70.36 58.15,70.35 58.20,70.33 58.25,70.31 58.30,70.29 58.35,70.27 58.40,70.26 58.45,70.24 58.50,70.23 58.55,70.21 58.60,70.20 58.65,70.18 58.70,70.17 58.75,70.16 58.80,70.14 58.85,70.13 58.90,70.12 58.95,70.11 59.00,70.10 59.05,70.09 59.10,70.08 59.15,70.07 59.20,70.06 59.25,70.06 59.30,70.05 59.35,70.04 59.40,70.04 59.45,70.03 59.50,70.03 59.55,70.02 59.60,70.02 59.65,70.01 59.70,70.01 59.75,70.01 59.80,70.00 59.85,70.00 59.90,70.00 59.95,70.00 60.00,70.00 60.05,70.00 60.10,70.00 60.15,70.00 60.20,70.00 60.25,70.01 60.30,70.01 60.35,70.01 60.40,70.02 60.45,70.02 60.50,70.03 60.55,70.03 60.60,70.04 60.65,70.04 60.70,70.05 60.75,70.06 60.80,70.06 60.85,70.07 60.90,70.08 60.95,70.09 61.00,70.10 61.05,70.11 61.10,70.12 61.15,70.13 61.20,70.14 61.25,70.16 61.30,70.17 61.35,70.18 61.40,70.20 61.45,70.21 61.50,70.23 61.55,70.24 61.60,70.26 61.65,70.27 61.70,70.29 61.75,70.31 61.80,70.33 61.85,70.35 61.90,70.36 61.95,70.38 62.00,70.40 62.05,70.42 62.10,70.45 62.15,70.47 62.20,70.49 62.25,70.51 62.30,70.54 62.35,70.56 62.40,70.58 62.45,70.61 62.50,70.64 62.55,70.66 62.60,70.69 62.65,70.72 62.70,70.74 62.75,70.77 62.80,70.80 62.85,70.83 62.90,70.86 62.95,70.89 63.00,70.92 63.05,70.95 63.10,70.99 63.15,71.02 63.20,71.05 63.25,71.09 63.30,71.12 63.35,71.16 63.40,71.19 63.45,71.23 63.50,71.27 63.55,71.30 63.60,71.34 63.65,71.38 63.70,71.42 63.75,71.46 63.80,71.50 63.85,71.54 63.90,71.58 63.95,71.63 64.00,71.67 64.05,71.71 64.10,71.76 64.15,71.80 64.20,71.85 64.25,71.90 64.30,71.94 64.35,71.99 64.40,72.04 64.45,72.09 64.50,72.14 64.55,72.19 64.60,72.24 64.65,72.29 64.70,72.35 64.75,72.40 64.80,72.45 64.85,72.51 64.90,72.57 64.95,72.62 65.00,72.68 65.05,72.74 65.10,72.80 65.15,72.86 65.20,72.92 65.25,72.98 65.30,73.04 65.35,73.10 65.40,73.17 65.45,73.23 65.50,73.30 65.55,73.36 65.60,73.43 65.65,73.50 65.70,73.57 65.75,73.64 65.80,73.71 65.85,73.78 65.90,73.85 65.95,73.93 66.00,74.00 66.05,74.08 66.10,74.15 66.15,74.23 66.20,74.31 66.25,74.39 66.30,74.47 66.35,74.55 66.40,74.63 66.45,74.72 66.50,74.80 66.55,74.89 66.60,74.97 66.65,75.06 66.70,75.15 66.75,75.24 66.80,75.34 66.85,75.43 66.90,75.52 66.95,75.62 67.00,75.72 67.05,75.82 67.10,75.92 67.15,76.02 67.20,76.12 67.25,76.23 67.30,76.33 67.35,76.44 67.40,76.55 67.45,76.66 67.50,76.77 67.55,76.89 67.60,77.00 67.65,77.12 67.70,77.24 67.75,77.36 67.80,77.48 67.85,77.61 67.90,77.74 67.95,77.87 68.00,78.00 68.05,78.13 68.10,78.27 68.15,78.41 68.20,78.55 68.25,78.70 68.30,78.84 68.35,79.00 68.40,79.15 68.45,79.30 68.50,79.46 68.55,79.63 68.60,79.79 68.65,79.96 68.70,80.14 68.75,80.32 68.80,80.50 68.85,80.69 68.90,80.88 68.95,81.08 69.00,81.28 69.05,81.49 69.10,81.71 69.15,81.93 69.20,82.16 69.25,82.40 69.30,82.65 69.35,82.91 69.40,83.18 69.45,83.46 69.50,83.76 69.55,84.07 69.60,84.40 69.65,84.76 69.70,85.14 69.75,85.56 69.80,86.02 69.85,86.55 69.90,87.18 69.95,88.00 70.00,90.00 69.95,92.00 69.90,92.82 69.85,93.45 69.80,93.98 69.75,94.44 69.70,94.86 69.65,95.24 69.60,95.60 69.55,95.93 69.50,96.24 69.45,96.54 69.40,96.82 69.35,97.09 69.30,97.35 69.25,97.60 69.20,97.84 69.15,98.07 69.10,98.29 69.05,98.51 69.00,98.72 68.95,98.92 68.90,99.12 68.85,99.31 68.80,99.50 68.75,99.68 68.70,99.86 68.65,100.04 68.60,100.21 68.55,100.37 68.50,100.54 68.45,100.70 68.40,100.85 68.35,101.00 68.30,101.16 68.25,101.30 68.20,101.45 68.15,101.59 68.10,101.73 68.05,101.87 68.00,102.00 67.95,102.13 67.90,102.26 67.85,102.39 67.80,102.52 67.75,102.64 67.70,102.76 67.65,102.88 67.60,103.00 67.55,103.11 67.50,103.23 67.45,103.34 67.40,103.45 67.35,103.56 67.30,103.67 67.25,103.77 67.20,103.88 67.15,103.98 67.10,104.08 67.05,104.18 67.00,104.28 66.95,104.38 66.90,104.48 66.85,104.57 66.80,104.66 66.75,104.76 66.70,104.85 66.65,104.94 66.60,105.03 66.55,105.11 66.50,105.20 66.45,105.28 66.40,105.37 66.35,105.45 66.30,105.53 66.25,105.61 66.20,105.69 66.15,105.77 66.10,105.85 66.05,105.92 66.00,106.00 65.95,106.07 65.90,106.15 65.85,106.22 65.80,106.29 65.75,106.36 65.70,106.43 65.65,106.50 65.60,106.57 65.55,106.64 65.50,106.70 65.45,106.77 65.40,106.83 65.35,106.90 65.30,106.96 65.25,107.02 65.20,107.08 65.15,107.14 65.10,107.20 65.05,107.26 65.00,107.32 64.95,107.38 64.90,107.43 64.85,107.49 64.80,107.55 64.75,107.60 64.70,107.65 64.65,107.71 64.60,107.76 64.55,107.81 64.50,107.86 64.45,107.91 64.40,107.96 64.35,108.01 64.30,108.06 64.25,108.10 64.20,108.15 64.15,108.20 64.10,108.24 64.05,108.29 64.00,108.33 63.95,108.37 63.90,108.42 63.85,108.46 63.80,108.50 63.75,108.54 63.70,108.58 63.65,108.62 63.60,108.66 63.55,108.70 63.50,108.73 63.45,108.77 63.40,108.81 63.35,108.84 63.30,108.88 63.25,108.91 63.20,108.95 63.15,108.98 63.10,109.01 63.05,109.05 63.00,109.08 62.95,109.11 62.90,109.14 62.85,109.17 62.80,109.20 62.75,109.23 62.70,109.26 62.65,109.28 62.60,109.31 62.55,109.34 62.50,109.36 62.45,109.39 62.40,109.42 62.35,109.44 62.30,109.46 62.25,109.49 62.20,109.51 62.15,109.53 62.10,109.55 62.05,109.58 62.00,109.60 61.95,109.62 61.90,109.64 61.85,109.65 61.80,109.67 61.75,109.69 61.70,109.71 61.65,109.73 61.60,109.74 61.55,109.76 61.50,109.77 61.45,109.79 61.40,109.80 61.35,109.82 61.30,109.83 61.25,109.84 61.20,109.86 61.15,109.87 61.10,109.88 61.05,109.89 61.00,109.90 60.95,109.91 60.90,109.92 60.85,109.93 60.80,109.94 60.75,109.94 60.70,109.95 60.65,109.96 60.60,109.96 60.55,109.97 60.50,109.97 60.45,109.98 60.40,109.98 60.35,109.99 60.30,109.99 60.25,109.99 60.20,110.00 60.15,110.00 60.10,110.00 60.05,110.00 60.00,110.00 59.95,110.00 59.90,110.00 59.85,110.00 59.80,110.00 59.75,109.99 59.70,109.99 59.65,109.99 59.60,109.98 59.55,109.98 59.50,109.97 59.45,109.97 59.40,109.96 59.35,109.96 59.30,109.95 59.25,109.94 59.20,109.94 59.15,109.93 59.10,109.92 59.05,109.91 59.00,109.90 58.95,109.89 58.90,109.88 58.85,109.87 58.80,109.86 58.75,109.84 58.70,109.83 58.65,109.82 58.60,109.80 58.55,109.79 58.50,109.77 58.45,109.76 58.40,109.74 58.35,109.73 58.30,109.71 58.25,109.69 58.20,109.67 58.15,109.65 58.10,109.64 58.05,109.62 58.00,109.60 57.95,109.58 57.90,109.55 57.85,109.53 57.80,109.51 57.75,109.49 57.70,109.46 57.65,109.44 57.60,109.42 57.55,109.39 57.50,109.36 57.45,109.34 57.40,109.31 57.35,109.28 57.30,109.26 57.25,109.23 57.20,109.20 57.15,109.17 57.10,109.14 57.05,109.11 57.00,109.08 56.95,109.05 56.90,109.01 56.85,108.98 56.80,108.95 56.75,108.91 56.70,108.88 56.65,108.84 56.60,108.81 56.55,108.77 56.50,108.73 56.45,108.70 56.40,108.66 56.35,108.62 56.30,108.58 56.25,108.54 56.20,108.50 56.15,108.46 56.10,108.42 56.05,108.37 56.00,108.33 55.95,108.29 55.90,108.24 55.85,108.20 55.80,108.15 55.75,108.10 55.70,108.06 55.65,108.01 55.60,107.96 55.55,107.91 55.50,107.86 55.45,107.81 55.40,107.76 55.35,107.71 55.30,107.65 55.25,107.60 55.20,107.55 55.15,107.49 55.10,107.43 55.05,107.38 55.00,107.32 54.95,107.26 54.90,107.20 54.85,107.14 54.80,107.08 54.75,107.02 54.70,106.96 54.65,106.90 54.60,106.83 54.55,106.77 54.50,106.70 54.45,106.64 54.40,106.57 54.35,106.50 54.30,106.43 54.25,106.36 54.20,106.29 54.15,106.22 54.10,106.15 54.05,106.07 54.00,106.00 53.95,105.92 53.90,105.85 53.85,105.77 53.80,105.69 53.75,105.61 53.70,105.53 53.65,105.45 53.60,105.37 53.55,105.28 53.50,105.20 53.45,105.11 53.40,105.03 53.35,104.94 53.30,104.85 53.25,104.76 53.20,104.66 53.15,104.57 53.10,104.48 53.05,104.38 53.00,104.28 52.95,104.18 52.90,104.08 52.85,103.98 52.80,103.88 52.75,103.77 52.70,103.67 52.65,103.56 52.60,103.45 52.55,103.34 52.50,103.23 52.45,103.11 52.40,103.00 52.35,102.88 52.30,102.76 52.25,102.64 52.20,102.52 52.15,102.39 52.10,102.26 52.05,102.13 52.00,102.00 51.95,101.87 51.90,101.73 51.85,101.59 51.80,101.45 51.75,101.30 51.70,101.16 51.65,101.00 51.60,100.85 51.55,100.70 51.50,100.54 51.45,100.37 51.40,100.21 51.35,100.04 51.30,99.86 51.25,99.68 51.20,99.50 51.15,99.31 51.10,99.12 51.05,98.92 51.00,98.72 50.95,98.51 50.90,98.29 50.85,98.07 50.80,97.84 50.75,97.60 50.70,97.35 50.65,97.09 50.60,96.82 50.55,96.54 50.50,96.24 50.45,95.93 50.40,95.60 50.35,95.24 50.30,94.86 50.25,94.44 50.20,93.98 50.15,93.45 50.10,92.82 50.05,92.00 50.00,90.00"/>
</svg>
