<?xml version="1.0" encoding="UTF-8" ?>
<svg width="100.00" height="100.00" xmlns="http://www.w3.org/2000/svg">
  <polyline stroke="#000000" stroke-width="0.50" stroke-linecap="square" fill="none" points="47.73,100.00  47.75,98.95"/>
  <polyline stroke="#000000" stroke-width="0.50" stroke-linecap="square" fill="none" points="47.73,100.00  47.75,98.95"/>
  <polyline stroke="#000000" stroke-width="0.50" stroke-linecap="square" fill="none" points="47.73,100.00  47.75,98.95"/>
  <polyline stroke="#000000" stroke-width="0.50" stroke-linecap="square" fill="none" points="47.73,100.00  47.75,98.95 47.88,93.80 48.00,89.00 48.12,84.54 48.25,80.42 48.38,76.62 48.50,73.12 48.62,69.93 48.75,67.02 48.88,64.38 49.00,62.00 49.12,59.87 49.25,57.98 49.38,56.32 49.50,54.88 49.62,53.63 49.75,52.58 49.88,51.71 50.00,51.00 50.12,50.45 50.25,50.05 50.38,49.78 50.50,49.62 50.62,49.58 50.75,49.64 50.88,49.78 51.00,50.00 51.12,50.28 51.25,50.61 51.38,50.98 51.50,51.38 51.62,51.79 51.75,52.20 51.88,52.61 52.00,53.00 52.12,53.36 52.25,53.67 52.38,53.93 52.50,54.12 52.62,54.24 52.75,54.27 52.88,54.19 53.00,54.00 53.12,53.69 53.25,53.23 53.38,52.63 53.50,51.88 53.62,50.94 53.75,49.83 53.88,48.52 54.00,47.00 54.12,45.26 54.25,43.30 54.38,41.09 54.50,38.62 54.62,35.90 54.75,32.89 54.88,29.60 55.00,26.00 55.12,22.09 55.25,17.86 55.38,13.29 55.50,8.38 55.62,3.10 55.69,0.00"/>
  <polyline stroke="#000000" stroke-width="0.50" stroke-linecap="square" fill="none" points="30.00,50.91  30.12,50.85"/>
  <polyline stroke="#000000" stroke-width="0.50" stroke-linecap="square" fill="none" points="30.00,50.91  30.12,50.85 30.25,50.78 30.38,50.70 30.50,50.61 30.62,50.50 30.75,50.39 30.88,50.27 31.00,50.15 31.12,50.03 31.25,49.90 31.38,49.78 31.50,49.66 31.62,49.54 31.75,49.44 31.88,49.34 32.00,49.25 32.12,49.17 32.25,49.11 32.38,49.06 32.50,49.02 32.62,49.00 32.75,49.00 32.88,49.01 33.00,49.04 33.12,49.08 33.25,49.14 33.38,49.21 33.50,49.29 33.62,49.38 33.75,49.48 33.88,49.59 34.00,49.71 34.12,49.83 34.25,49.96 34.38,50.08 34.50,50.21 34.62,50.33 34.75,50.44 34.88,50.55 35.00,50.65 35.12,50.74 35.25,50.82 35.38,50.88 35.50,50.93 35.62,50.97 35.75,50.99 35.88,51.00 36.00,50.99 36.12,50.97 36.25,50.93 36.38,50.87 36.50,50.80 36.62,50.72 36.75,50.63 36.88,50.53 37.00,50.42 37.12,50.30 37.25,50.18 37.38,50.06 37.50,49.93 37.62,49.81 37.75,49.69 37.88,49.57 38.00,49.46 38.12,49.36 38.25,49.27 38.38,49.19 38.50,49.12 38.62,49.07 38.75,49.03 38.88,49.01 39.00,49.00 39.12,49.01 39.25,49.03 39.38,49.07 39.50,49.12 39.62,49.19 39.75,49.27 39.88,49.36 40.00,49.46 40.12,49.56 40.25,49.68 40.38,49.80 40.50,49.92 40.62,50.05 40.75,50.17 40.88,50.30 41.00,50.41 41.12,50.52 41.25,50.62 41.38,50.72 41.50,50.80 41.62,50.87 41.75,50.92 41.88,50.96 42.00,50.99 42.12,51.00 42.25,50.99 42.38,50.97 42.50,50.94 42.62,50.89 42.75,50.82 42.88,50.75 43.00,50.66 43.12,50.56 43.25,50.45 43.38,50.34 43.50,50.22 43.62,50.09 43.75,49.97 43.88,49.84 44.00,49.72 44.12,49.60 44.25,49.49 44.38,49.39 44.50,49.29 44.62,49.21 44.75,49.14 44.88,49.08 45.00,49.04 45.12,49.01 45.25,49.00 45.38,49.00 45.50,49.02 45.62,49.06 45.75,49.11 45.88,49.17 46.00,49.24 46.12,49.33 46.25,49.43 46.38,49.54 46.50,49.65 46.62,49.77 46.75,49.89 46.88,50.02 47.00,50.14 47.12,50.26 47.25,50.38 47.38,50.49 47.50,50.60 47.62,50.69 47.75,50.78 47.88,50.85 48.00,50.91 48.12,50.95 48.25,50.98 48.38,51.00 48.50,51.00 48.62,50.98 48.75,50.95 48.88,50.90 49.00,50.84 49.12,50.77 49.25,50.68 49.38,50.59 49.50,50.48 49.62,50.37 49.75,50.25 49.88,50.12 50.00,50.00 50.12,49.88 50.25,49.75 50.38,49.63 50.50,49.52 50.62,49.41 50.75,49.32 50.88,49.23 51.00,49.16 51.12,49.10 51.25,49.05 51.38,49.02 51.50,49.00 51.62,49.00 51.75,49.02 51.88,49.05 52.00,49.09 52.12,49.15 52.25,49.22 52.38,49.31 52.50,49.40 52.62,49.51 52.75,49.62 52.88,49.74 53.00,49.86 53.12,49.98 53.25,50.11 53.38,50.23 53.50,50.35 53.62,50.46 53.75,50.57 53.88,50.67 54.00,50.76 54.12,50.83 54.25,50.89 54.38,50.94 54.50,50.98 54.62,51.00 54.75,51.00 54.88,50.99 55.00,50.96 55.12,50.92 55.25,50.86 55.38,50.79 55.50,50.71 55.62,50.61 55.75,50.51 55.88,50.40 56.00,50.28 56.12,50.16 56.25,50.03 56.38,49.91 56.50,49.78 56.62,49.66 56.75,49.55 56.88,49.44 57.00,49.34 57.12,49.25 57.25,49.18 57.38,49.11 57.50,49.06 57.62,49.03 57.75,49.01 57.88,49.00 58.00,49.01 58.12,49.04 58.25,49.08 58.38,49.13 58.50,49.20 58.62,49.28 58.75,49.38 58.88,49.48 59.00,49.59 59.12,49.70 59.25,49.83 59.38,49.95 59.50,50.08 59.62,50.20 59.75,50.32 59.88,50.44 60.00,50.54 60.12,50.64 60.25,50.73 60.38,50.81 60.50,50.88 60.62,50.93 60.75,50.97 60.88,50.99 61.00,51.00 61.12,50.99 61.25,50.97 61.38,50.93 61.50,50.88 61.62,50.81 61.75,50.73 61.88,50.64 62.00,50.54 62.12,50.43 62.25,50.31 62.38,50.19 62.50,50.07 62.62,49.94 62.75,49.82 62.88,49.70 63.00,49.58 63.12,49.47 63.25,49.37 63.38,49.28 63.50,49.20 63.62,49.13 63.75,49.07 63.88,49.03 64.00,49.01 64.12,49.00 64.25,49.01 64.38,49.03 64.50,49.07 64.62,49.12 64.75,49.18 64.88,49.26 65.00,49.35 65.12,49.45 65.25,49.56 65.38,49.67 65.50,49.79 65.62,49.92 65.75,50.04 65.88,50.17 66.00,50.29 66.12,50.41 66.25,50.52 66.38,50.62 66.50,50.71 66.62,50.79 66.75,50.86 66.88,50.92 67.00,50.96 67.12,50.99 67.25,51.00 67.38,51.00 67.50,50.98 67.62,50.94 67.75,50.89 67.88,50.83 68.00,50.75 68.12,50.66 68.25,50.56 68.38,50.46 68.50,50.34 68.62,50.22 68.75,50.10 68.88,49.97 69.00,49.85 69.12,49.73 69.25,49.61 69.38,49.50 69.50,49.39 69.62,49.30 69.75,49.22 69.88,49.15 70.00,49.09"/>
  <text x="111.00" y="-7.00" fill="#ff0000" text-anchor="middle" font-size="10.00">
    text
  </text>
</svg>
