<?xml version="1.0" encoding="UTF-8" ?>
<svg width="100.00" height="100.00" xmlns="http://www.w3.org/2000/svg">
  <polyline stroke="#ff0000" stroke-width="1.00" stroke-linecap="square" fill="none" points="40.00,50.00  40.05,49.00 40.10,48.59 40.15,48.27 40.20,48.01 40.25,47.78 40.30,47.57 40.35,47.38 40.40,47.20 40.45,47.03 40.50,46.88 40.55,46.73 40.60,46.59 40.65,46.45 40.70,46.32 40.75,46.20 40.80,46.08 40.85,45.97 40.90,45.85 40.95,45.75 41.00,45.64 41.05,45.54 41.10,45.44 41.15,45.34 41.20,45.25 41.25,45.16 41.30,45.07 41.35,44.98 41.40,44.90 41.45,44.81 41.50,44.73 41.55,44.65 41.60,44.57 41.65,44.50 41.70,44.42 41.75,44.35 41.80,44.28 41.85,44.21 41.90,44.14 41.95,44.07 42.00,44.00 42.05,43.93 42.10,43.87 42.15,43.81 42.20,43.74 42.25,43.68 42.30,43.62 42.35,43.56 42.40,43.50 42.45,43.44 42.50,43.39 42.55,43.33 42.60,43.27 42.65,43.22 42.70,43.17 42.75,43.11 42.80,43.06 42.85,43.01 42.90,42.96 42.95,42.91 43.00,42.86 43.05,42.81 43.10,42.76 43.15,42.71 43.20,42.67 43.25,42.62 43.30,42.58 43.35,42.53 43.40,42.49 43.45,42.44 43.50,42.40 43.55,42.36 43.60,42.32 43.65,42.27 43.70,42.23 43.75,42.19 43.80,42.15 43.85,42.11 43.90,42.08 43.95,42.04 44.00,42.00 44.05,41.96 44.10,41.93 44.15,41.89 44.20,41.85 44.25,41.82 44.30,41.78 44.35,41.75 44.40,41.72 44.45,41.68 44.50,41.65 44.55,41.62 44.60,41.58 44.65,41.55 44.70,41.52 44.75,41.49 44.80,41.46 44.85,41.43 44.90,41.40 44.95,41.37 45.00,41.34 45.05,41.31 45.10,41.28 45.15,41.25 45.20,41.23 45.25,41.20 45.30,41.17 45.35,41.15 45.40,41.12 45.45,41.10 45.50,41.07 45.55,41.04 45.60,41.02 45.65,41.00 45.70,40.97 45.75,40.95 45.80,40.92 45.85,40.90 45.90,40.88 45.95,40.86 46.00,40.83 46.05,40.81 46.10,40.79 46.15,40.77 46.20,40.75 46.25,40.73 46.30,40.71 46.35,40.69 46.40,40.67 46.45,40.65 46.50,40.63 46.55,40.61 46.60,40.60 46.65,40.58 46.70,40.56 46.75,40.54 46.80,40.53 46.85,40.51 46.90,40.49 46.95,40.48 47.00,40.46 47.05,40.45 47.10,40.43 47.15,40.41 47.20,40.40 47.25,40.39 47.30,40.37 47.35,40.36 47.40,40.34 47.45,40.33 47.50,40.32 47.55,40.30 47.60,40.29 47.65,40.28 47.70,40.27 47.75,40.26 47.80,40.25 47.85,40.23 47.90,40.22 47.95,40.21 48.00,40.20 48.05,40.19 48.10,40.18 48.15,40.17 48.20,40.16 48.25,40.15 48.30,40.15 48.35,40.14 48.40,40.13 48.45,40.12 48.50,40.11 48.55,40.11 48.60,40.10 48.65,40.09 48.70,40.08 48.75,40.08 48.80,40.07 48.85,40.07 48.90,40.06 48.95,40.06 49.00,40.05 49.05,40.05 49.10,40.04 49.15,40.04 49.20,40.03 49.25,40.03 49.30,40.02 49.35,40.02 49.40,40.02 49.45,40.02 49.50,40.01 49.55,40.01 49.60,40.01 49.65,40.01 49.70,40.00 49.75,40.00 49.80,40.00 49.85,40.00 49.90,40.00 49.95,40.00 50.00,40.00 50.05,40.00 50.10,40.00 50.15,40.00 50.20,40.00 50.25,40.00 50.30,40.00 50.35,40.01 50.40,40.01 50.45,40.01 50.50,40.01 50.55,40.02 50.60,40.02 50.65,40.02 50.70,40.02 50.75,40.03 50.80,40.03 50.85,40.04 50.90,40.04 50.95,40.05 51.00,40.05 51.05,40.06 51.10,40.06 51.15,40.07 51.20,40.07 51.25,40.08 51.30,40.08 51.35,40.09 51.40,40.10 51.45,40.11 51.50,40.11 51.55,40.12 51.60,40.13 51.65,40.14 51.70,40.15 51.75,40.15 51.80,40.16 51.85,40.17 51.90,40.18 51.95,40.19 52.00,40.20 52.05,40.21 52.10,40.22 52.15,40.23 52.20,40.25 52.25,40.26 52.30,40.27 52.35,40.28 52.40,40.29 52.45,40.30 52.50,40.32 52.55,40.33 52.60,40.34 52.65,40.36 52.70,40.37 52.75,40.39 52.80,40.40 52.85,40.41 52.90,40.43 52.95,40.45 53.00,40.46 53.05,40.48 53.10,40.49 53.15,40.51 53.20,40.53 53.25,40.54 53.30,40.56 53.35,40.58 53.40,40.60 53.45,40.61 53.50,40.63 53.55,40.65 53.60,40.67 53.65,40.69 53.70,40.71 53.75,40.73 53.80,40.75 53.85,40.77 53.90,40.79 53.95,40.81 54.00,40.83 54.05,40.86 54.10,40.88 54.15,40.90 54.20,40.92 54.25,40.95 54.30,40.97 54.35,41.00 54.40,41.02 54.45,41.04 54.50,41.07 54.55,41.10 54.60,41.12 54.65,41.15 54.70,41.17 54.75,41.20 54.80,41.23 54.85,41.25 54.90,41.28 54.95,41.31 55.00,41.34 55.05,41.37 55.10,41.40 55.15,41.43 55.20,41.46 55.25,41.49 55.30,41.52 55.35,41.55 55.40,41.58 55.45,41.62 55.50,41.65 55.55,41.68 55.60,41.72 55.65,41.75 55.70,41.78 55.75,41.82 55.80,41.85 55.85,41.89 55.90,41.93 55.95,41.96 56.00,42.00 56.05,42.04 56.10,42.08 56.15,42.11 56.20,42.15 56.25,42.19 56.30,42.23 56.35,42.27 56.40,42.32 56.45,42.36 56.50,42.40 56.55,42.44 56.60,42.49 56.65,42.53 56.70,42.58 56.75,42.62 56.80,42.67 56.85,42.71 56.90,42.76 56.95,42.81 57.00,42.86 57.05,42.91 57.10,42.96 57.15,43.01 57.20,43.06 57.25,43.11 57.30,43.17 57.35,43.22 57.40,43.27 57.45,43.33 57.50,43.39 57.55,43.44 57.60,43.50 57.65,43.56 57.70,43.62 57.75,43.68 57.80,43.74 57.85,43.81 57.90,43.87 57.95,43.93 58.00,44.00 58.05,44.07 58.10,44.14 58.15,44.21 58.20,44.28 58.25,44.35 58.30,44.42 58.35,44.50 58.40,44.57 58.45,44.65 58.50,44.73 58.55,44.81 58.60,44.90 58.65,44.98 58.70,45.07 58.75,45.16 58.80,45.25 58.85,45.34 58.90,45.44 58.95,45.54 59.00,45.64 59.05,45.75 59.10,45.85 59.15,45.97 59.20,46.08 59.25,46.20 59.30,46.32 59.35,46.45 59.40,46.59 59.45,46.73 59.50,46.88 59.55,47.03 59.60,47.20 59.65,47.38 59.70,47.57 59.75,47.78 59.80,48.01 59.85,48.27 59.90,48.59 59.95,49.00 60.00,50.00 59.95,51.00 59.90,51.41 59.85,51.73 59.80,51.99 59.75,52.22 59.70,52.43 59.65,52.62 59.60,52.80 59.55,52.97 59.50,53.12 59.45,53.27 59.40,53.41 59.35,53.55 59.30,53.68 59.25,53.80 59.20,53.92 59.15,54.03 59.10,54.15 59.05,54.25 59.00,54.36 58.95,54.46 58.90,54.56 58.85,54.66 58.80,54.75 58.75,54.84 58.70,54.93 58.65,55.02 58.60,55.10 58.55,55.19 58.50,55.27 58.45,55.35 58.40,55.43 58.35,55.50 58.30,55.58 58.25,55.65 58.20,55.72 58.15,55.79 58.10,55.86 58.05,55.93 58.00,56.00 57.95,56.07 57.90,56.13 57.85,56.19 57.80,56.26 57.75,56.32 57.70,56.38 57.65,56.44 57.60,56.50 57.55,56.56 57.50,56.61 57.45,56.67 57.40,56.73 57.35,56.78 57.30,56.83 57.25,56.89 57.20,56.94 57.15,56.99 57.10,57.04 57.05,57.09 57.00,57.14 56.95,57.19 56.90,57.24 56.85,57.29 56.80,57.33 56.75,57.38 56.70,57.42 56.65,57.47 56.60,57.51 56.55,57.56 56.50,57.60 56.45,57.64 56.40,57.68 56.35,57.73 56.30,57.77 56.25,57.81 56.20,57.85 56.15,57.89 56.10,57.92 56.05,57.96 56.00,58.00 55.95,58.04 55.90,58.07 55.85,58.11 55.80,58.15 55.75,58.18 55.70,58.22 55.65,58.25 55.60,58.28 55.55,58.32 55.50,58.35 55.45,58.38 55.40,58.42 55.35,58.45 55.30,58.48 55.25,58.51 55.20,58.54 55.15,58.57 55.10,58.60 55.05,58.63 55.00,58.66 54.95,58.69 54.90,58.72 54.85,58.75 54.80,58.77 54.75,58.80 54.70,58.83 54.65,58.85 54.60,58.88 54.55,58.90 54.50,58.93 54.45,58.96 54.40,58.98 54.35,59.00 54.30,59.03 54.25,59.05 54.20,59.08 54.15,59.10 54.10,59.12 54.05,59.14 54.00,59.17 53.95,59.19 53.90,59.21 53.85,59.23 53.80,59.25 53.75,59.27 53.70,59.29 53.65,59.31 53.60,59.33 53.55,59.35 53.50,59.37 53.45,59.39 53.40,59.40 53.35,59.42 53.30,59.44 53.25,59.46 53.20,59.47 53.15,59.49 53.10,59.51 53.05,59.52 53.00,59.54 52.95,59.55 52.90,59.57 52.85,59.59 52.80,59.60 52.75,59.61 52.70,59.63 52.65,59.64 52.60,59.66 52.55,59.67 52.50,59.68 52.45,59.70 52.40,59.71 52.35,59.72 52.30,59.73 52.25,59.74 52.20,59.75 52.15,59.77 52.10,59.78 52.05,59.79 52.00,59.80 51.95,59.81 51.90,59.82 51.85,59.83 51.80,59.84 51.75,59.85 51.70,59.85 51.65,59.86 51.60,59.87 51.55,59.88 51.50,59.89 51.45,59.89 51.40,59.90 51.35,59.91 51.30,59.92 51.25,59.92 51.20,59.93 51.15,59.93 51.10,59.94 51.05,59.94 51.00,59.95 50.95,59.95 50.90,59.96 50.85,59.96 50.80,59.97 50.75,59.97 50.70,59.98 50.65,59.98 50.60,59.98 50.55,59.98 50.50,59.99 50.45,59.99 50.40,59.99 50.35,59.99 50.30,60.00 50.25,60.00 50.20,60.00 50.15,60.00 50.10,60.00 50.05,60.00 50.00,60.00 49.95,60.00 49.90,60.00 49.85,60.00 49.80,60.00 49.75,60.00 49.70,60.00 49.65,59.99 49.60,59.99 49.55,59.99 49.50,59.99 49.45,59.98 49.40,59.98 49.35,59.98 49.30,59.98 49.25,59.97 49.20,59.97 49.15,59.96 49.10,59.96 49.05,59.95 49.00,59.95 48.95,59.94 48.90,59.94 48.85,59.93 48.80,59.93 48.75,59.92 48.70,59.92 48.65,59.91 48.60,59.90 48.55,59.89 48.50,59.89 48.45,59.88 48.40,59.87 48.35,59.86 48.30,59.85 48.25,59.85 48.20,59.84 48.15,59.83 48.10,59.82 48.05,59.81 48.00,59.80 47.95,59.79 47.90,59.78 47.85,59.77 47.80,59.75 47.75,59.74 47.70,59.73 47.65,59.72 47.60,59.71 47.55,59.70 47.50,59.68 47.45,59.67 47.40,59.66 47.35,59.64 47.30,59.63 47.25,59.61 47.20,59.60 47.15,59.59 47.10,59.57 47.05,59.55 47.00,59.54 46.95,59.52 46.90,59.51 46.85,59.49 46.80,59.47 46.75,59.46 46.70,59.44 46.65,59.42 46.60,59.40 46.55,59.39 46.50,59.37 46.45,59.35 46.40,59.33 46.35,59.31 46.30,59.29 46.25,59.27 46.20,59.25 46.15,59.23 46.10,59.21 46.05,59.19 46.00,59.17 45.95,59.14 45.90,59.12 45.85,59.10 45.80,59.08 45.75,59.05 45.70,59.03 45.65,59.00 45.60,58.98 45.55,58.96 45.50,58.93 45.45,58.90 45.40,58.88 45.35,58.85 45.30,58.83 45.25,58.80 45.20,58.77 45.15,58.75 45.10,58.72 45.05,58.69 45.00,58.66 44.95,58.63 44.90,58.60 44.85,58.57 44.80,58.54 44.75,58.51 44.70,58.48 44.65,58.45 44.60,58.42 44.55,58.38 44.50,58.35 44.45,58.32 44.40,58.28 44.35,58.25 44.30,58.22 44.25,58.18 44.20,58.15 44.15,58.11 44.10,58.07 44.05,58.04 44.00,58.00 43.95,57.96 43.90,57.92 43.85,57.89 43.80,57.85 43.75,57.81 43.70,57.77 43.65,57.73 43.60,57.68 43.55,57.64 43.50,57.60 43.45,57.56 43.40,57.51 43.35,57.47 43.30,57.42 43.25,57.38 43.20,57.33 43.15,57.29 43.10,57.24 43.05,57.19 43.00,57.14 42.95,57.09 42.90,57.04 42.85,56.99 42.80,56.94 42.75,56.89 42.70,56.83 42.65,56.78 42.60,56.73 42.55,56.67 42.50,56.61 42.45,56.56 42.40,56.50 42.35,56.44 42.30,56.38 42.25,56.32 42.20,56.26 42.15,56.19 42.10,56.13 42.05,56.07 42.00,56.00 41.95,55.93 41.90,55.86 41.85,55.79 41.80,55.72 41.75,55.65 41.70,55.58 41.65,55.50 41.60,55.43 41.55,55.35 41.50,55.27 41.45,55.19 41.40,55.10 41.35,55.02 41.30,54.93 41.25,54.84 41.20,54.75 41.15,54.66 41.10,54.56 41.05,54.46 41.00,54.36 40.95,54.25 40.90,54.15 40.85,54.03 40.80,53.92 40.75,53.80 40.70,53.68 40.65,53.55 40.60,53.41 40.55,53.27 40.50,53.12 40.45,52.97 40.40,52.80 40.35,52.62 40.30,52.43 40.25,52.22 40.20,51.99 40.15,51.73 40.10,51.41 40.05,51.00 40.00,50.00"/>
</svg>
