<?xml version="1.0" encoding="UTF-8" ?>
<svg width="100.00" height="100.00" xmlns="http://www.w3.org/2000/svg">
  <polyline stroke="#000000" stroke-width="1.00" stroke-linecap="square" fill="none" points="40.00,50.00  40.05,49.50 40.10,49.29 40.15,49.14 40.20,49.01 40.25,48.89 40.30,48.78 40.35,48.69 40.40,48.60 40.45,48.52 40.50,48.44 40.55,48.36 40.60,48.29 40.65,48.23 40.70,48.16 40.75,48.10 40.80,48.04 40.85,47.98 40.90,47.93 40.95,47.87 41.00,47.82 41.05,47.77 41.10,47.72 41.15,47.67 41.20,47.63 41.25,47.58 41.30,47.53 41.35,47.49 41.40,47.45 41.45,47.41 41.50,47.37 41.55,47.33 41.60,47.29 41.65,47.25 41.70,47.21 41.75,47.17 41.80,47.14 41.85,47.10 41.90,47.07 41.95,47.03 42.00,47.00 42.05,46.97 42.10,46.93 42.15,46.90 42.20,46.87 42.25,46.84 42.30,46.81 42.35,46.78 42.40,46.75 42.45,46.72 42.50,46.69 42.55,46.66 42.60,46.64 42.65,46.61 42.70,46.58 42.75,46.56 42.80,46.53 42.85,46.50 42.90,46.48 42.95,46.45 43.00,46.43 43.05,46.40 43.10,46.38 43.15,46.36 43.20,46.33 43.25,46.31 43.30,46.29 43.35,46.27 43.40,46.24 43.45,46.22 43.50,46.20 43.55,46.18 43.60,46.16 43.65,46.14 43.70,46.12 43.75,46.10 43.80,46.08 43.85,46.06 43.90,46.04 43.95,46.02 44.00,46.00 44.05,45.98 44.10,45.96 44.15,45.94 44.20,45.93 44.25,45.91 44.30,45.89 44.35,45.87 44.40,45.86 44.45,45.84 44.50,45.82 44.55,45.81 44.60,45.79 44.65,45.78 44.70,45.76 44.75,45.74 44.80,45.73 44.85,45.71 44.90,45.70 44.95,45.68 45.00,45.67 45.05,45.66 45.10,45.64 45.15,45.63 45.20,45.61 45.25,45.60 45.30,45.59 45.35,45.57 45.40,45.56 45.45,45.55 45.50,45.53 45.55,45.52 45.60,45.51 45.65,45.50 45.70,45.49 45.75,45.47 45.80,45.46 45.85,45.45 45.90,45.44 45.95,45.43 46.00,45.42 46.05,45.41 46.10,45.40 46.15,45.39 46.20,45.38 46.25,45.36 46.30,45.35 46.35,45.34 46.40,45.34 46.45,45.33 46.50,45.32 46.55,45.31 46.60,45.30 46.65,45.29 46.70,45.28 46.75,45.27 46.80,45.26 46.85,45.25 46.90,45.25 46.95,45.24 47.00,45.23 47.05,45.22 47.10,45.21 47.15,45.21 47.20,45.20 47.25,45.19 47.30,45.19 47.35,45.18 47.40,45.17 47.45,45.17 47.50,45.16 47.55,45.15 47.60,45.15 47.65,45.14 47.70,45.13 47.75,45.13 47.80,45.12 47.85,45.12 47.90,45.11 47.95,45.11 48.00,45.10 48.05,45.10 48.10,45.09 48.15,45.09 48.20,45.08 48.25,45.08 48.30,45.07 48.35,45.07 48.40,45.06 48.45,45.06 48.50,45.06 48.55,45.05 48.60,45.05 48.65,45.05 48.70,45.04 48.75,45.04 48.80,45.04 48.85,45.03 48.90,45.03 48.95,45.03 49.00,45.03 49.05,45.02 49.10,45.02 49.15,45.02 49.20,45.02 49.25,45.01 49.30,45.01 49.35,45.01 49.40,45.01 49.45,45.01 49.50,45.01 49.55,45.01 49.60,45.00 49.65,45.00 49.70,45.00 49.75,45.00 49.80,45.00 49.85,45.00 49.90,45.00 49.95,45.00 50.00,45.00 50.05,45.00 50.10,45.00 50.15,45.00 50.20,45.00 50.25,45.00 50.30,45.00 50.35,45.00 50.40,45.00 50.45,45.01 50.50,45.01 50.55,45.01 50.60,45.01 50.65,45.01 50.70,45.01 50.75,45.01 50.80,45.02 50.85,45.02 50.90,45.02 50.95,45.02 51.00,45.03 51.05,45.03 51.10,45.03 51.15,45.03 51.20,45.04 51.25,45.04 51.30,45.04 51.35,45.05 51.40,45.05 51.45,45.05 51.50,45.06 51.55,45.06 51.60,45.06 51.65,45.07 51.70,45.07 51.75,45.08 51.80,45.08 51.85,45.09 51.90,45.09 51.95,45.10 52.00,45.10 52.05,45.11 52.10,45.11 52.15,45.12 52.20,45.12 52.25,45.13 52.30,45.13 52.35,45.14 52.40,45.15 52.45,45.15 52.50,45.16 52.55,45.17 52.60,45.17 52.65,45.18 52.70,45.19 52.75,45.19 52.80,45.20 52.85,45.21 52.90,45.21 52.95,45.22 53.00,45.23 53.05,45.24 53.10,45.25 53.15,45.25 53.20,45.26 53.25,45.27 53.30,45.28 53.35,45.29 53.40,45.30 53.45,45.31 53.50,45.32 53.55,45.33 53.60,45.34 53.65,45.34 53.70,45.35 53.75,45.36 53.80,45.38 53.85,45.39 53.90,45.40 53.95,45.41 54.00,45.42 54.05,45.43 54.10,45.44 54.15,45.45 54.20,45.46 54.25,45.47 54.30,45.49 54.35,45.50 54.40,45.51 54.45,45.52 54.50,45.53 54.55,45.55 54.60,45.56 54.65,45.57 54.70,45.59 54.75,45.60 54.80,45.61 54.85,45.63 54.90,45.64 54.95,45.66 55.00,45.67 55.05,45.68 55.10,45.70 55.15,45.71 55.20,45.73 55.25,45.74 55.30,45.76 55.35,45.78 55.40,45.79 55.45,45.81 55.50,45.82 55.55,45.84 55.60,45.86 55.65,45.87 55.70,45.89 55.75,45.91 55.80,45.93 55.85,45.94 55.90,45.96 55.95,45.98 56.00,46.00 56.05,46.02 56.10,46.04 56.15,46.06 56.20,46.08 56.25,46.10 56.30,46.12 56.35,46.14 56.40,46.16 56.45,46.18 56.50,46.20 56.55,46.22 56.60,46.24 56.65,46.27 56.70,46.29 56.75,46.31 56.80,46.33 56.85,46.36 56.90,46.38 56.95,46.40 57.00,46.43 57.05,46.45 57.10,46.48 57.15,46.50 57.20,46.53 57.25,46.56 57.30,46.58 57.35,46.61 57.40,46.64 57.45,46.66 57.50,46.69 57.55,46.72 57.60,46.75 57.65,46.78 57.70,46.81 57.75,46.84 57.80,46.87 57.85,46.90 57.90,46.93 57.95,46.97 58.00,47.00 58.05,47.03 58.10,47.07 58.15,47.10 58.20,47.14 58.25,47.17 58.30,47.21 58.35,47.25 58.40,47.29 58.45,47.33 58.50,47.37 58.55,47.41 58.60,47.45 58.65,47.49 58.70,47.53 58.75,47.58 58.80,47.63 58.85,47.67 58.90,47.72 58.95,47.77 59.00,47.82 59.05,47.87 59.10,47.93 59.15,47.98 59.20,48.04 59.25,48.10 59.30,48.16 59.35,48.23 59.40,48.29 59.45,48.36 59.50,48.44 59.55,48.52 59.60,48.60 59.65,48.69 59.70,48.78 59.75,48.89 59.80,49.01 59.85,49.14 59.90,49.29 59.95,49.50 60.00,50.00 59.95,50.50 59.90,50.71 59.85,50.86 59.80,50.99 59.75,51.11 59.70,51.22 59.65,51.31 59.60,51.40 59.55,51.48 59.50,51.56 59.45,51.64 59.40,51.71 59.35,51.77 59.30,51.84 59.25,51.90 59.20,51.96 59.15,52.02 59.10,52.07 59.05,52.13 59.00,52.18 58.95,52.23 58.90,52.28 58.85,52.33 58.80,52.37 58.75,52.42 58.70,52.47 58.65,52.51 58.60,52.55 58.55,52.59 58.50,52.63 58.45,52.67 58.40,52.71 58.35,52.75 58.30,52.79 58.25,52.83 58.20,52.86 58.15,52.90 58.10,52.93 58.05,52.97 58.00,53.00 57.95,53.03 57.90,53.07 57.85,53.10 57.80,53.13 57.75,53.16 57.70,53.19 57.65,53.22 57.60,53.25 57.55,53.28 57.50,53.31 57.45,53.34 57.40,53.36 57.35,53.39 57.30,53.42 57.25,53.44 57.20,53.47 57.15,53.50 57.10,53.52 57.05,53.55 57.00,53.57 56.95,53.60 56.90,53.62 56.85,53.64 56.80,53.67 56.75,53.69 56.70,53.71 56.65,53.73 56.60,53.76 56.55,53.78 56.50,53.80 56.45,53.82 56.40,53.84 56.35,53.86 56.30,53.88 56.25,53.90 56.20,53.92 56.15,53.94 56.10,53.96 56.05,53.98 56.00,54.00 55.95,54.02 55.90,54.04 55.85,54.06 55.80,54.07 55.75,54.09 55.70,54.11 55.65,54.13 55.60,54.14 55.55,54.16 55.50,54.18 55.45,54.19 55.40,54.21 55.35,54.22 55.30,54.24 55.25,54.26 55.20,54.27 55.15,54.29 55.10,54.30 55.05,54.32 55.00,54.33 54.95,54.34 54.90,54.36 54.85,54.37 54.80,54.39 54.75,54.40 54.70,54.41 54.65,54.43 54.60,54.44 54.55,54.45 54.50,54.47 54.45,54.48 54.40,54.49 54.35,54.50 54.30,54.51 54.25,54.53 54.20,54.54 54.15,54.55 54.10,54.56 54.05,54.57 54.00,54.58 53.95,54.59 53.90,54.60 53.85,54.61 53.80,54.62 53.75,54.64 53.70,54.65 53.65,54.66 53.60,54.66 53.55,54.67 53.50,54.68 53.45,54.69 53.40,54.70 53.35,54.71 53.30,54.72 53.25,54.73 53.20,54.74 53.15,54.75 53.10,54.75 53.05,54.76 53.00,54.77 52.95,54.78 52.90,54.79 52.85,54.79 52.80,54.80 52.75,54.81 52.70,54.81 52.65,54.82 52.60,54.83 52.55,54.83 52.50,54.84 52.45,54.85 52.40,54.85 52.35,54.86 52.30,54.87 52.25,54.87 52.20,54.88 52.15,54.88 52.10,54.89 52.05,54.89 52.00,54.90 51.95,54.90 51.90,54.91 51.85,54.91 51.80,54.92 51.75,54.92 51.70,54.93 51.65,54.93 51.60,54.94 51.55,54.94 51.50,54.94 51.45,54.95 51.40,54.95 51.35,54.95 51.30,54.96 51.25,54.96 51.20,54.96 51.15,54.97 51.10,54.97 51.05,54.97 51.00,54.97 50.95,54.98 50.90,54.98 50.85,54.98 50.80,54.98 50.75,54.99 50.70,54.99 50.65,54.99 50.60,54.99 50.55,54.99 50.50,54.99 50.45,54.99 50.40,55.00 50.35,55.00 50.30,55.00 50.25,55.00 50.20,55.00 50.15,55.00 50.10,55.00 50.05,55.00 50.00,55.00 49.95,55.00 49.90,55.00 49.85,55.00 49.80,55.00 49.75,55.00 49.70,55.00 49.65,55.00 49.60,55.00 49.55,54.99 49.50,54.99 49.45,54.99 49.40,54.99 49.35,54.99 49.30,54.99 49.25,54.99 49.20,54.98 49.15,54.98 49.10,54.98 49.05,54.98 49.00,54.97 48.95,54.97 48.90,54.97 48.85,54.97 48.80,54.96 48.75,54.96 48.70,54.96 48.65,54.95 48.60,54.95 48.55,54.95 48.50,54.94 48.45,54.94 48.40,54.94 48.35,54.93 48.30,54.93 48.25,54.92 48.20,54.92 48.15,54.91 48.10,54.91 48.05,54.90 48.00,54.90 47.95,54.89 47.90,54.89 47.85,54.88 47.80,54.88 47.75,54.87 47.70,54.87 47.65,54.86 47.60,54.85 47.55,54.85 47.50,54.84 47.45,54.83 47.40,54.83 47.35,54.82 47.30,54.81 47.25,54.81 47.20,54.80 47.15,54.79 47.10,54.79 47.05,54.78 47.00,54.77 46.95,54.76 46.90,54.75 46.85,54.75 46.80,54.74 46.75,54.73 46.70,54.72 46.65,54.71 46.60,54.70 46.55,54.69 46.50,54.68 46.45,54.67 46.40,54.66 46.35,54.66 46.30,54.65 46.25,54.64 46.20,54.62 46.15,54.61 46.10,54.60 46.05,54.59 46.00,54.58 45.95,54.57 45.90,54.56 45.85,54.55 45.80,54.54 45.75,54.53 45.70,54.51 45.65,54.50 45.60,54.49 45.55,54.48 45.50,54.47 45.45,54.45 45.40,54.44 45.35,54.43 45.30,54.41 45.25,54.40 45.20,54.39 45.15,54.37 45.10,54.36 45.05,54.34 45.00,54.33 44.95,54.32 44.90,54.30 44.85,54.29 44.80,54.27 44.75,54.26 44.70,54.24 44.65,54.22 44.60,54.21 44.55,54.19 44.50,54.18 44.45,54.16 44.40,54.14 44.35,54.13 44.30,54.11 44.25,54.09 44.20,54.07 44.15,54.06 44.10,54.04 44.05,54.02 44.00,54.00 43.95,53.98 43.90,53.96 43.85,53.94 43.80,53.92 43.75,53.90 43.70,53.88 43.65,53.86 43.60,53.84 43.55,53.82 43.50,53.80 43.45,53.78 43.40,53.76 43.35,53.73 43.30,53.71 43.25,53.69 43.20,53.67 43.15,53.64 43.10,53.62 43.05,53.60 43.00,53.57 42.95,53.55 42.90,53.52 42.85,53.50 42.80,53.47 42.75,53.44 42.70,53.42 42.65,53.39 42.60,53.36 42.55,53.34 42.50,53.31 42.45,53.28 42.40,53.25 42.35,53.22 42.30,53.19 42.25,53.16 42.20,53.13 42.15,53.10 42.10,53.07 42.05,53.03 42.00,53.00 41.95,52.97 41.90,52.93 41.85,52.90 41.80,52.86 41.75,52.83 41.70,52.79 41.65,52.75 41.60,52.71 41.55,52.67 41.50,52.63 41.45,52.59 41.40,52.55 41.35,52.51 41.30,52.47 41.25,52.42 41.20,52.37 41.15,52.33 41.10,52.28 41.05,52.23 41.00,52.18 40.95,52.13 40.90,52.07 40.85,52.02 40.80,51.96 40.75,51.90 40.70,51.84 40.65,51.77 40.60,51.71 40.55,51.64 40.50,51.56 40.45,51.48 40.40,51.40 40.35,51.31 40.30,51.22 40.25,51.11 40.20,50.99 40.15,50.86 40.10,50.71 40.05,50.50 40.00,50.00"/>
</svg>
