<?xml version="1.0" encoding="UTF-8" ?>
<svg width="400.00" height="400.00" xmlns="http://www.w3.org/2000/svg">
  <polyline stroke="#000000" stroke-width="1.00" stroke-linecap="square" fill="#ffffff" points="200.00,20.00  100.00,95.00"/>
  <polyline stroke="#000000" stroke-width="1.00" stroke-linecap="square" fill="#ffffff" points="100.00,95.00  50.00,170.00"/>
  <polyline stroke="#ff0000" stroke-width="1.00" stroke-linecap="square" fill="#ffffff" points="40.00,170.00  40.05,169.00 40.10,168.59 40.15,168.27 40.20,168.01 40.25,167.78 40.30,167.57 40.35,167.38 40.40,167.20 40.45,167.03 40.50,166.88 40.55,166.73 40.60,166.59 40.65,166.45 40.70,166.32 40.75,166.20 40.80,166.08 40.85,165.97 40.90,165.85 40.95,165.75 41.00,165.64 41.05,165.54 41.10,165.44 41.15,165.34 41.20,165.25 41.25,165.16 41.30,165.07 41.35,164.98 41.40,164.90 41.45,164.81 41.50,164.73 41.55,164.65 41.60,164.57 41.65,164.50 41.70,164.42 41.75,164.35 41.80,164.28 41.85,164.21 41.90,164.14 41.95,164.07 42.00,164.00 42.05,163.93 42.10,163.87 42.15,163.81 42.20,163.74 42.25,163.68 42.30,163.62 42.35,163.56 42.40,163.50 42.45,163.44 42.50,163.39 42.55,163.33 42.60,163.27 42.65,163.22 42.70,163.17 42.75,163.11 42.80,163.06 42.85,163.01 42.90,162.96 42.95,162.91 43.00,162.86 43.05,162.81 43.10,162.76 43.15,162.71 43.20,162.67 43.25,162.62 43.30,162.58 43.35,162.53 43.40,162.49 43.45,162.44 43.50,162.40 43.55,162.36 43.60,162.32 43.65,162.27 43.70,162.23 43.75,162.19 43.80,162.15 43.85,162.11 43.90,162.08 43.95,162.04 44.00,162.00 44.05,161.96 44.10,161.93 44.15,161.89 44.20,161.85 44.25,161.82 44.30,161.78 44.35,161.75 44.40,161.72 44.45,161.68 44.50,161.65 44.55,161.62 44.60,161.58 44.65,161.55 44.70,161.52 44.75,161.49 44.80,161.46 44.85,161.43 44.90,161.40 44.95,161.37 45.00,161.34 45.05,161.31 45.10,161.28 45.15,161.25 45.20,161.23 45.25,161.20 45.30,161.17 45.35,161.15 45.40,161.12 45.45,161.10 45.50,161.07 45.55,161.04 45.60,161.02 45.65,161.00 45.70,160.97 45.75,160.95 45.80,160.92 45.85,160.90 45.90,160.88 45.95,160.86 46.00,160.83 46.05,160.81 46.10,160.79 46.15,160.77 46.20,160.75 46.25,160.73 46.30,160.71 46.35,160.69 46.40,160.67 46.45,160.65 46.50,160.63 46.55,160.61 46.60,160.60 46.65,160.58 46.70,160.56 46.75,160.54 46.80,160.53 46.85,160.51 46.90,160.49 46.95,160.48 47.00,160.46 47.05,160.45 47.10,160.43 47.15,160.41 47.20,160.40 47.25,160.39 47.30,160.37 47.35,160.36 47.40,160.34 47.45,160.33 47.50,160.32 47.55,160.30 47.60,160.29 47.65,160.28 47.70,160.27 47.75,160.26 47.80,160.25 47.85,160.23 47.90,160.22 47.95,160.21 48.00,160.20 48.05,160.19 48.10,160.18 48.15,160.17 48.20,160.16 48.25,160.15 48.30,160.15 48.35,160.14 48.40,160.13 48.45,160.12 48.50,160.11 48.55,160.11 48.60,160.10 48.65,160.09 48.70,160.08 48.75,160.08 48.80,160.07 48.85,160.07 48.90,160.06 48.95,160.06 49.00,160.05 49.05,160.05 49.10,160.04 49.15,160.04 49.20,160.03 49.25,160.03 49.30,160.02 49.35,160.02 49.40,160.02 49.45,160.02 49.50,160.01 49.55,160.01 49.60,160.01 49.65,160.01 49.70,160.00 49.75,160.00 49.80,160.00 49.85,160.00 49.90,160.00 49.95,160.00 50.00,160.00 50.05,160.00 50.10,160.00 50.15,160.00 50.20,160.00 50.25,160.00 50.30,160.00 50.35,160.01 50.40,160.01 50.45,160.01 50.50,160.01 50.55,160.02 50.60,160.02 50.65,160.02 50.70,160.02 50.75,160.03 50.80,160.03 50.85,160.04 50.90,160.04 50.95,160.05 51.00,160.05 51.05,160.06 51.10,160.06 51.15,160.07 51.20,160.07 51.25,160.08 51.30,160.08 51.35,160.09 51.40,160.10 51.45,160.11 51.50,160.11 51.55,160.12 51.60,160.13 51.65,160.14 51.70,160.15 51.75,160.15 51.80,160.16 51.85,160.17 51.90,160.18 51.95,160.19 52.00,160.20 52.05,160.21 52.10,160.22 52.15,160.23 52.20,160.25 52.25,160.26 52.30,160.27 52.35,160.28 52.40,160.29 52.45,160.30 52.50,160.32 52.55,160.33 52.60,160.34 52.65,160.36 52.70,160.37 52.75,160.39 52.80,160.40 52.85,160.41 52.90,160.43 52.95,160.45 53.00,160.46 53.05,160.48 53.10,160.49 53.15,160.51 53.20,160.53 53.25,160.54 53.30,160.56 53.35,160.58 53.40,160.60 53.45,160.61 53.50,160.63 53.55,160.65 53.60,160.67 53.65,160.69 53.70,160.71 53.75,160.73 53.80,160.75 53.85,160.77 53.90,160.79 53.95,160.81 54.00,160.83 54.05,160.86 54.10,160.88 54.15,160.90 54.20,160.92 54.25,160.95 54.30,160.97 54.35,161.00 54.40,161.02 54.45,161.04 54.50,161.07 54.55,161.10 54.60,161.12 54.65,161.15 54.70,161.17 54.75,161.20 54.80,161.23 54.85,161.25 54.90,161.28 54.95,161.31 55.00,161.34 55.05,161.37 55.10,161.40 55.15,161.43 55.20,161.46 55.25,161.49 55.30,161.52 55.35,161.55 55.40,161.58 55.45,161.62 55.50,161.65 55.55,161.68 55.60,161.72 55.65,161.75 55.70,161.78 55.75,161.82 55.80,161.85 55.85,161.89 55.90,161.93 55.95,161.96 56.00,162.00 56.05,162.04 56.10,162.08 56.15,162.11 56.20,162.15 56.25,162.19 56.30,162.23 56.35,162.27 56.40,162.32 56.45,162.36 56.50,162.40 56.55,162.44 56.60,162.49 56.65,162.53 56.70,162.58 56.75,162.62 56.80,162.67 56.85,162.71 56.90,162.76 56.95,162.81 57.00,162.86 57.05,162.91 57.10,162.96 57.15,163.01 57.20,163.06 57.25,163.11 57.30,163.17 57.35,163.22 57.40,163.27 57.45,163.33 57.50,163.39 57.55,163.44 57.60,163.50 57.65,163.56 57.70,163.62 57.75,163.68 57.80,163.74 57.85,163.81 57.90,163.87 57.95,163.93 58.00,164.00 58.05,164.07 58.10,164.14 58.15,164.21 58.20,164.28 58.25,164.35 58.30,164.42 58.35,164.50 58.40,164.57 58.45,164.65 58.50,164.73 58.55,164.81 58.60,164.90 58.65,164.98 58.70,165.07 58.75,165.16 58.80,165.25 58.85,165.34 58.90,165.44 58.95,165.54 59.00,165.64 59.05,165.75 59.10,165.85 59.15,165.97 59.20,166.08 59.25,166.20 59.30,166.32 59.35,166.45 59.40,166.59 59.45,166.73 59.50,166.88 59.55,167.03 59.60,167.20 59.65,167.38 59.70,167.57 59.75,167.78 59.80,168.01 59.85,168.27 59.90,168.59 59.95,169.00 60.00,170.00 59.95,171.00 59.90,171.41 59.85,171.73 59.80,171.99 59.75,172.22 59.70,172.43 59.65,172.62 59.60,172.80 59.55,172.97 59.50,173.12 59.45,173.27 59.40,173.41 59.35,173.55 59.30,173.68 59.25,173.80 59.20,173.92 59.15,174.03 59.10,174.15 59.05,174.25 59.00,174.36 58.95,174.46 58.90,174.56 58.85,174.66 58.80,174.75 58.75,174.84 58.70,174.93 58.65,175.02 58.60,175.10 58.55,175.19 58.50,175.27 58.45,175.35 58.40,175.43 58.35,175.50 58.30,175.58 58.25,175.65 58.20,175.72 58.15,175.79 58.10,175.86 58.05,175.93 58.00,176.00 57.95,176.07 57.90,176.13 57.85,176.19 57.80,176.26 57.75,176.32 57.70,176.38 57.65,176.44 57.60,176.50 57.55,176.56 57.50,176.61 57.45,176.67 57.40,176.73 57.35,176.78 57.30,176.83 57.25,176.89 57.20,176.94 57.15,176.99 57.10,177.04 57.05,177.09 57.00,177.14 56.95,177.19 56.90,177.24 56.85,177.29 56.80,177.33 56.75,177.38 56.70,177.42 56.65,177.47 56.60,177.51 56.55,177.56 56.50,177.60 56.45,177.64 56.40,177.68 56.35,177.73 56.30,177.77 56.25,177.81 56.20,177.85 56.15,177.89 56.10,177.92 56.05,177.96 56.00,178.00 55.95,178.04 55.90,178.07 55.85,178.11 55.80,178.15 55.75,178.18 55.70,178.22 55.65,178.25 55.60,178.28 55.55,178.32 55.50,178.35 55.45,178.38 55.40,178.42 55.35,178.45 55.30,178.48 55.25,178.51 55.20,178.54 55.15,178.57 55.10,178.60 55.05,178.63 55.00,178.66 54.95,178.69 54.90,178.72 54.85,178.75 54.80,178.77 54.75,178.80 54.70,178.83 54.65,178.85 54.60,178.88 54.55,178.90 54.50,178.93 54.45,178.96 54.40,178.98 54.35,179.00 54.30,179.03 54.25,179.05 54.20,179.08 54.15,179.10 54.10,179.12 54.05,179.14 54.00,179.17 53.95,179.19 53.90,179.21 53.85,179.23 53.80,179.25 53.75,179.27 53.70,179.29 53.65,179.31 53.60,179.33 53.55,179.35 53.50,179.37 53.45,179.39 53.40,179.40 53.35,179.42 53.30,179.44 53.25,179.46 53.20,179.47 53.15,179.49 53.10,179.51 53.05,179.52 53.00,179.54 52.95,179.55 52.90,179.57 52.85,179.59 52.80,179.60 52.75,179.61 52.70,179.63 52.65,179.64 52.60,179.66 52.55,179.67 52.50,179.68 52.45,179.70 52.40,179.71 52.35,179.72 52.30,179.73 52.25,179.74 52.20,179.75 52.15,179.77 52.10,179.78 52.05,179.79 52.00,179.80 51.95,179.81 51.90,179.82 51.85,179.83 51.80,179.84 51.75,179.85 51.70,179.85 51.65,179.86 51.60,179.87 51.55,179.88 51.50,179.89 51.45,179.89 51.40,179.90 51.35,179.91 51.30,179.92 51.25,179.92 51.20,179.93 51.15,179.93 51.10,179.94 51.05,179.94 51.00,179.95 50.95,179.95 50.90,179.96 50.85,179.96 50.80,179.97 50.75,179.97 50.70,179.98 50.65,179.98 50.60,179.98 50.55,179.98 50.50,179.99 50.45,179.99 50.40,179.99 50.35,179.99 50.30,180.00 50.25,180.00 50.20,180.00 50.15,180.00 50.10,180.00 50.05,180.00 50.00,180.00 49.95,180.00 49.90,180.00 49.85,180.00 49.80,180.00 49.75,180.00 49.70,180.00 49.65,179.99 49.60,179.99 49.55,179.99 49.50,179.99 49.45,179.98 49.40,179.98 49.35,179.98 49.30,179.98 49.25,179.97 49.20,179.97 49.15,179.96 49.10,179.96 49.05,179.95 49.00,179.95 48.95,179.94 48.90,179.94 48.85,179.93 48.80,179.93 48.75,179.92 48.70,179.92 48.65,179.91 48.60,179.90 48.55,179.89 48.50,179.89 48.45,179.88 48.40,179.87 48.35,179.86 48.30,179.85 48.25,179.85 48.20,179.84 48.15,179.83 48.10,179.82 48.05,179.81 48.00,179.80 47.95,179.79 47.90,179.78 47.85,179.77 47.80,179.75 47.75,179.74 47.70,179.73 47.65,179.72 47.60,179.71 47.55,179.70 47.50,179.68 47.45,179.67 47.40,179.66 47.35,179.64 47.30,179.63 47.25,179.61 47.20,179.60 47.15,179.59 47.10,179.57 47.05,179.55 47.00,179.54 46.95,179.52 46.90,179.51 46.85,179.49 46.80,179.47 46.75,179.46 46.70,179.44 46.65,179.42 46.60,179.40 46.55,179.39 46.50,179.37 46.45,179.35 46.40,179.33 46.35,179.31 46.30,179.29 46.25,179.27 46.20,179.25 46.15,179.23 46.10,179.21 46.05,179.19 46.00,179.17 45.95,179.14 45.90,179.12 45.85,179.10 45.80,179.08 45.75,179.05 45.70,179.03 45.65,179.00 45.60,178.98 45.55,178.96 45.50,178.93 45.45,178.90 45.40,178.88 45.35,178.85 45.30,178.83 45.25,178.80 45.20,178.77 45.15,178.75 45.10,178.72 45.05,178.69 45.00,178.66 44.95,178.63 44.90,178.60 44.85,178.57 44.80,178.54 44.75,178.51 44.70,178.48 44.65,178.45 44.60,178.42 44.55,178.38 44.50,178.35 44.45,178.32 44.40,178.28 44.35,178.25 44.30,178.22 44.25,178.18 44.20,178.15 44.15,178.11 44.10,178.07 44.05,178.04 44.00,178.00 43.95,177.96 43.90,177.92 43.85,177.89 43.80,177.85 43.75,177.81 43.70,177.77 43.65,177.73 43.60,177.68 43.55,177.64 43.50,177.60 43.45,177.56 43.40,177.51 43.35,177.47 43.30,177.42 43.25,177.38 43.20,177.33 43.15,177.29 43.10,177.24 43.05,177.19 43.00,177.14 42.95,177.09 42.90,177.04 42.85,176.99 42.80,176.94 42.75,176.89 42.70,176.83 42.65,176.78 42.60,176.73 42.55,176.67 42.50,176.61 42.45,176.56 42.40,176.50 42.35,176.44 42.30,176.38 42.25,176.32 42.20,176.26 42.15,176.19 42.10,176.13 42.05,176.07 42.00,176.00 41.95,175.93 41.90,175.86 41.85,175.79 41.80,175.72 41.75,175.65 41.70,175.58 41.65,175.50 41.60,175.43 41.55,175.35 41.50,175.27 41.45,175.19 41.40,175.10 41.35,175.02 41.30,174.93 41.25,174.84 41.20,174.75 41.15,174.66 41.10,174.56 41.05,174.46 41.00,174.36 40.95,174.25 40.90,174.15 40.85,174.03 40.80,173.92 40.75,173.80 40.70,173.68 40.65,173.55 40.60,173.41 40.55,173.27 40.50,173.12 40.45,172.97 40.40,172.80 40.35,172.62 40.30,172.43 40.25,172.22 40.20,171.99 40.15,171.73 40.10,171.41 40.05,171.00 40.00,170.00"/>
  <text x="51.00" y="173.00" fill="#0000ff" text-anchor="middle" font-size="10.00">
    4
  </text>
  <polyline stroke="#000000" stroke-width="1.00" stroke-linecap="square" fill="#0000ff" points="100.00,95.00  150.00,170.00"/>
  <polyline stroke="#ff0000" stroke-width="1.00" stroke-linecap="square" fill="#ffffff" points="140.00,170.00  140.05,169.00 140.10,168.59 140.15,168.27 140.20,168.01 140.25,167.78 140.30,167.57 140.35,167.38 140.40,167.20 140.45,167.03 140.50,166.88 140.55,166.73 140.60,166.59 140.65,166.45 140.70,166.32 140.75,166.20 140.80,166.08 140.85,165.97 140.90,165.85 140.95,165.75 141.00,165.64 141.05,165.54 141.10,165.44 141.15,165.34 141.20,165.25 141.25,165.16 141.30,165.07 141.35,164.98 141.40,164.90 141.45,164.81 141.50,164.73 141.55,164.65 141.60,164.57 141.65,164.50 141.70,164.42 141.75,164.35 141.80,164.28 141.85,164.21 141.90,164.14 141.95,164.07 142.00,164.00 142.05,163.93 142.10,163.87 142.15,163.81 142.20,163.74 142.25,163.68 142.30,163.62 142.35,163.56 142.40,163.50 142.45,163.44 142.50,163.39 142.55,163.33 142.60,163.27 142.65,163.22 142.70,163.17 142.75,163.11 142.80,163.06 142.85,163.01 142.90,162.96 142.95,162.91 143.00,162.86 143.05,162.81 143.10,162.76 143.15,162.71 143.20,162.67 143.25,162.62 143.30,162.58 143.35,162.53 143.40,162.49 143.45,162.44 143.50,162.40 143.55,162.36 143.60,162.32 143.65,162.27 143.70,162.23 143.75,162.19 143.80,162.15 143.85,162.11 143.90,162.08 143.95,162.04 144.00,162.00 144.05,161.96 144.10,161.93 144.15,161.89 144.20,161.85 144.25,161.82 144.30,161.78 144.35,161.75 144.40,161.72 144.45,161.68 144.50,161.65 144.55,161.62 144.60,161.58 144.65,161.55 144.70,161.52 144.75,161.49 144.80,161.46 144.85,161.43 144.90,161.40 144.95,161.37 145.00,161.34 145.05,161.31 145.10,161.28 145.15,161.25 145.20,161.23 145.25,161.20 145.30,161.17 145.35,161.15 145.40,161.12 145.45,161.10 145.50,161.07 145.55,161.04 145.60,161.02 145.65,161.00 145.70,160.97 145.75,160.95 145.80,160.92 145.85,160.90 145.90,160.88 145.95,160.86 146.00,160.83 146.05,160.81 146.10,160.79 146.15,160.77 146.20,160.75 146.25,160.73 146.30,160.71 146.35,160.69 146.40,160.67 146.45,160.65 146.50,160.63 146.55,160.61 146.60,160.60 146.65,160.58 146.70,160.56 146.75,160.54 146.80,160.53 146.85,160.51 146.90,160.49 146.95,160.48 147.00,160.46 147.05,160.45 147.10,160.43 147.15,160.41 147.20,160.40 147.25,160.39 147.30,160.37 147.35,160.36 147.40,160.34 147.45,160.33 147.50,160.32 147.55,160.30 147.60,160.29 147.65,160.28 147.70,160.27 147.75,160.26 147.80,160.25 147.85,160.23 147.90,160.22 147.95,160.21 148.00,160.20 148.05,160.19 148.10,160.18 148.15,160.17 148.20,160.16 148.25,160.15 148.30,160.15 148.35,160.14 148.40,160.13 148.45,160.12 148.50,160.11 148.55,160.11 148.60,160.10 148.65,160.09 148.70,160.08 148.75,160.08 148.80,160.07 148.85,160.07 148.90,160.06 148.95,160.06 149.00,160.05 149.05,160.05 149.10,160.04 149.15,160.04 149.20,160.03 149.25,160.03 149.30,160.02 149.35,160.02 149.40,160.02 149.45,160.02 149.50,160.01 149.55,160.01 149.60,160.01 149.65,160.01 149.70,160.00 149.75,160.00 149.80,160.00 149.85,160.00 149.90,160.00 149.95,160.00 150.00,160.00 150.05,160.00 150.10,160.00 150.15,160.00 150.20,160.00 150.25,160.00 150.30,160.00 150.35,160.01 150.40,160.01 150.45,160.01 150.50,160.01 150.55,160.02 150.60,160.02 150.65,160.02 150.70,160.02 150.75,160.03 150.80,160.03 150.85,160.04 150.90,160.04 150.95,160.05 151.00,160.05 151.05,160.06 151.10,160.06 151.15,160.07 151.20,160.07 151.25,160.08 151.30,160.08 151.35,160.09 151.40,160.10 151.45,160.11 151.50,160.11 151.55,160.12 151.60,160.13 151.65,160.14 151.70,160.15 151.75,160.15 151.80,160.16 151.85,160.17 151.90,160.18 151.95,160.19 152.00,160.20 152.05,160.21 152.10,160.22 152.15,160.23 152.20,160.25 152.25,160.26 152.30,160.27 152.35,160.28 152.40,160.29 152.45,160.30 152.50,160.32 152.55,160.33 152.60,160.34 152.65,160.36 152.70,160.37 152.75,160.39 152.80,160.40 152.85,160.41 152.90,160.43 152.95,160.45 153.00,160.46 153.05,160.48 153.10,160.49 153.15,160.51 153.20,160.53 153.25,160.54 153.30,160.56 153.35,160.58 153.40,160.60 153.45,160.61 153.50,160.63 153.55,160.65 153.60,160.67 153.65,160.69 153.70,160.71 153.75,160.73 153.80,160.75 153.85,160.77 153.90,160.79 153.95,160.81 154.00,160.83 154.05,160.86 154.10,160.88 154.15,160.90 154.20,160.92 154.25,160.95 154.30,160.97 154.35,161.00 154.40,161.02 154.45,161.04 154.50,161.07 154.55,161.10 154.60,161.12 154.65,161.15 154.70,161.17 154.75,161.20 154.80,161.23 154.85,161.25 154.90,161.28 154.95,161.31 155.00,161.34 155.05,161.37 155.10,161.40 155.15,161.43 155.20,161.46 155.25,161.49 155.30,161.52 155.35,161.55 155.40,161.58 155.45,161.62 155.50,161.65 155.55,161.68 155.60,161.72 155.65,161.75 155.70,161.78 155.75,161.82 155.80,161.85 155.85,161.89 155.90,161.93 155.95,161.96 156.00,162.00 156.05,162.04 156.10,162.08 156.15,162.11 156.20,162.15 156.25,162.19 156.30,162.23 156.35,162.27 156.40,162.32 156.45,162.36 156.50,162.40 156.55,162.44 156.60,162.49 156.65,162.53 156.70,162.58 156.75,162.62 156.80,162.67 156.85,162.71 156.90,162.76 156.95,162.81 157.00,162.86 157.05,162.91 157.10,162.96 157.15,163.01 157.20,163.06 157.25,163.11 157.30,163.17 157.35,163.22 157.40,163.27 157.45,163.33 157.50,163.39 157.55,163.44 157.60,163.50 157.65,163.56 157.70,163.62 157.75,163.68 157.80,163.74 157.85,163.81 157.90,163.87 157.95,163.93 158.00,164.00 158.05,164.07 158.10,164.14 158.15,164.21 158.20,164.28 158.25,164.35 158.30,164.42 158.35,164.50 158.40,164.57 158.45,164.65 158.50,164.73 158.55,164.81 158.60,164.90 158.65,164.98 158.70,165.07 158.75,165.16 158.80,165.25 158.85,165.34 158.90,165.44 158.95,165.54 159.00,165.64 159.05,165.75 159.10,165.85 159.15,165.97 159.20,166.08 159.25,166.20 159.30,166.32 159.35,166.45 159.40,166.59 159.45,166.73 159.50,166.88 159.55,167.03 159.60,167.20 159.65,167.38 159.70,167.57 159.75,167.78 159.80,168.01 159.85,168.27 159.90,168.59 159.95,169.00 160.00,170.00 159.95,171.00 159.90,171.41 159.85,171.73 159.80,171.99 159.75,172.22 159.70,172.43 159.65,172.62 159.60,172.80 159.55,172.97 159.50,173.12 159.45,173.27 159.40,173.41 159.35,173.55 159.30,173.68 159.25,173.80 159.20,173.92 159.15,174.03 159.10,174.15 159.05,174.25 159.00,174.36 158.95,174.46 158.90,174.56 158.85,174.66 158.80,174.75 158.75,174.84 158.70,174.93 158.65,175.02 158.60,175.10 158.55,175.19 158.50,175.27 158.45,175.35 158.40,175.43 158.35,175.50 158.30,175.58 158.25,175.65 158.20,175.72 158.15,175.79 158.10,175.86 158.05,175.93 158.00,176.00 157.95,176.07 157.90,176.13 157.85,176.19 157.80,176.26 157.75,176.32 157.70,176.38 157.65,176.44 157.60,176.50 157.55,176.56 157.50,176.61 157.45,176.67 157.40,176.73 157.35,176.78 157.30,176.83 157.25,176.89 157.20,176.94 157.15,176.99 157.10,177.04 157.05,177.09 157.00,177.14 156.95,177.19 156.90,177.24 156.85,177.29 156.80,177.33 156.75,177.38 156.70,177.42 156.65,177.47 156.60,177.51 156.55,177.56 156.50,177.60 156.45,177.64 156.40,177.68 156.35,177.73 156.30,177.77 156.25,177.81 156.20,177.85 156.15,177.89 156.10,177.92 156.05,177.96 156.00,178.00 155.95,178.04 155.90,178.07 155.85,178.11 155.80,178.15 155.75,178.18 155.70,178.22 155.65,178.25 155.60,178.28 155.55,178.32 155.50,178.35 155.45,178.38 155.40,178.42 155.35,178.45 155.30,178.48 155.25,178.51 155.20,178.54 155.15,178.57 155.10,178.60 155.05,178.63 155.00,178.66 154.95,178.69 154.90,178.72 154.85,178.75 154.80,178.77 154.75,178.80 154.70,178.83 154.65,178.85 154.60,178.88 154.55,178.90 154.50,178.93 154.45,178.96 154.40,178.98 154.35,179.00 154.30,179.03 154.25,179.05 154.20,179.08 154.15,179.10 154.10,179.12 154.05,179.14 154.00,179.17 153.95,179.19 153.90,179.21 153.85,179.23 153.80,179.25 153.75,179.27 153.70,179.29 153.65,179.31 153.60,179.33 153.55,179.35 153.50,179.37 153.45,179.39 153.40,179.40 153.35,179.42 153.30,179.44 153.25,179.46 153.20,179.47 153.15,179.49 153.10,179.51 153.05,179.52 153.00,179.54 152.95,179.55 152.90,179.57 152.85,179.59 152.80,179.60 152.75,179.61 152.70,179.63 152.65,179.64 152.60,179.66 152.55,179.67 152.50,179.68 152.45,179.70 152.40,179.71 152.35,179.72 152.30,179.73 152.25,179.74 152.20,179.75 152.15,179.77 152.10,179.78 152.05,179.79 152.00,179.80 151.95,179.81 151.90,179.82 151.85,179.83 151.80,179.84 151.75,179.85 151.70,179.85 151.65,179.86 151.60,179.87 151.55,179.88 151.50,179.89 151.45,179.89 151.40,179.90 151.35,179.91 151.30,179.92 151.25,179.92 151.20,179.93 151.15,179.93 151.10,179.94 151.05,179.94 151.00,179.95 150.95,179.95 150.90,179.96 150.85,179.96 150.80,179.97 150.75,179.97 150.70,179.98 150.65,179.98 150.60,179.98 150.55,179.98 150.50,179.99 150.45,179.99 150.40,179.99 150.35,179.99 150.30,180.00 150.25,180.00 150.20,180.00 150.15,180.00 150.10,180.00 150.05,180.00 150.00,180.00 149.95,180.00 149.90,180.00 149.85,180.00 149.80,180.00 149.75,180.00 149.70,180.00 149.65,179.99 149.60,179.99 149.55,179.99 149.50,179.99 149.45,179.98 149.40,179.98 149.35,179.98 149.30,179.98 149.25,179.97 149.20,179.97 149.15,179.96 149.10,179.96 149.05,179.95 149.00,179.95 148.95,179.94 148.90,179.94 148.85,179.93 148.80,179.93 148.75,179.92 148.70,179.92 148.65,179.91 148.60,179.90 148.55,179.89 148.50,179.89 148.45,179.88 148.40,179.87 148.35,179.86 148.30,179.85 148.25,179.85 148.20,179.84 148.15,179.83 148.10,179.82 148.05,179.81 148.00,179.80 147.95,179.79 147.90,179.78 147.85,179.77 147.80,179.75 147.75,179.74 147.70,179.73 147.65,179.72 147.60,179.71 147.55,179.70 147.50,179.68 147.45,179.67 147.40,179.66 147.35,179.64 147.30,179.63 147.25,179.61 147.20,179.60 147.15,179.59 147.10,179.57 147.05,179.55 147.00,179.54 146.95,179.52 146.90,179.51 146.85,179.49 146.80,179.47 146.75,179.46 146.70,179.44 146.65,179.42 146.60,179.40 146.55,179.39 146.50,179.37 146.45,179.35 146.40,179.33 146.35,179.31 146.30,179.29 146.25,179.27 146.20,179.25 146.15,179.23 146.10,179.21 146.05,179.19 146.00,179.17 145.95,179.14 145.90,179.12 145.85,179.10 145.80,179.08 145.75,179.05 145.70,179.03 145.65,179.00 145.60,178.98 145.55,178.96 145.50,178.93 145.45,178.90 145.40,178.88 145.35,178.85 145.30,178.83 145.25,178.80 145.20,178.77 145.15,178.75 145.10,178.72 145.05,178.69 145.00,178.66 144.95,178.63 144.90,178.60 144.85,178.57 144.80,178.54 144.75,178.51 144.70,178.48 144.65,178.45 144.60,178.42 144.55,178.38 144.50,178.35 144.45,178.32 144.40,178.28 144.35,178.25 144.30,178.22 144.25,178.18 144.20,178.15 144.15,178.11 144.10,178.07 144.05,178.04 144.00,178.00 143.95,177.96 143.90,177.92 143.85,177.89 143.80,177.85 143.75,177.81 143.70,177.77 143.65,177.73 143.60,177.68 143.55,177.64 143.50,177.60 143.45,177.56 143.40,177.51 143.35,177.47 143.30,177.42 143.25,177.38 143.20,177.33 143.15,177.29 143.10,177.24 143.05,177.19 143.00,177.14 142.95,177.09 142.90,177.04 142.85,176.99 142.80,176.94 142.75,176.89 142.70,176.83 142.65,176.78 142.60,176.73 142.55,176.67 142.50,176.61 142.45,176.56 142.40,176.50 142.35,176.44 142.30,176.38 142.25,176.32 142.20,176.26 142.15,176.19 142.10,176.13 142.05,176.07 142.00,176.00 141.95,175.93 141.90,175.86 141.85,175.79 141.80,175.72 141.75,175.65 141.70,175.58 141.65,175.50 141.60,175.43 141.55,175.35 141.50,175.27 141.45,175.19 141.40,175.10 141.35,175.02 141.30,174.93 141.25,174.84 141.20,174.75 141.15,174.66 141.10,174.56 141.05,174.46 141.00,174.36 140.95,174.25 140.90,174.15 140.85,174.03 140.80,173.92 140.75,173.80 140.70,173.68 140.65,173.55 140.60,173.41 140.55,173.27 140.50,173.12 140.45,172.97 140.40,172.80 140.35,172.62 140.30,172.43 140.25,172.22 140.20,171.99 140.15,171.73 140.10,171.41 140.05,171.00 140.00,170.00"/>
  <text x="151.00" y="173.00" fill="#0000ff" text-anchor="middle" font-size="10.00">
    11
  </text>
  <polyline stroke="#ff0000" stroke-width="1.00" stroke-linecap="square" fill="#ffffff" points="90.00,95.00  90.05,94.00 90.10,93.59 90.15,93.27 90.20,93.01 90.25,92.78 90.30,92.57 90.35,92.38 90.40,92.20 90.45,92.03 90.50,91.88 90.55,91.73 90.60,91.59 90.65,91.45 90.70,91.32 90.75,91.20 90.80,91.08 90.85,90.97 90.90,90.85 90.95,90.75 91.00,90.64 91.05,90.54 91.10,90.44 91.15,90.34 91.20,90.25 91.25,90.16 91.30,90.07 91.35,89.98 91.40,89.90 91.45,89.81 91.50,89.73 91.55,89.65 91.60,89.57 91.65,89.50 91.70,89.42 91.75,89.35 91.80,89.28 91.85,89.21 91.90,89.14 91.95,89.07 92.00,89.00 92.05,88.93 92.10,88.87 92.15,88.81 92.20,88.74 92.25,88.68 92.30,88.62 92.35,88.56 92.40,88.50 92.45,88.44 92.50,88.39 92.55,88.33 92.60,88.27 92.65,88.22 92.70,88.17 92.75,88.11 92.80,88.06 92.85,88.01 92.90,87.96 92.95,87.91 93.00,87.86 93.05,87.81 93.10,87.76 93.15,87.71 93.20,87.67 93.25,87.62 93.30,87.58 93.35,87.53 93.40,87.49 93.45,87.44 93.50,87.40 93.55,87.36 93.60,87.32 93.65,87.27 93.70,87.23 93.75,87.19 93.80,87.15 93.85,87.11 93.90,87.08 93.95,87.04 94.00,87.00 94.05,86.96 94.10,86.93 94.15,86.89 94.20,86.85 94.25,86.82 94.30,86.78 94.35,86.75 94.40,86.72 94.45,86.68 94.50,86.65 94.55,86.62 94.60,86.58 94.65,86.55 94.70,86.52 94.75,86.49 94.80,86.46 94.85,86.43 94.90,86.40 94.95,86.37 95.00,86.34 95.05,86.31 95.10,86.28 95.15,86.25 95.20,86.23 95.25,86.20 95.30,86.17 95.35,86.15 95.40,86.12 95.45,86.10 95.50,86.07 95.55,86.04 95.60,86.02 95.65,86.00 95.70,85.97 95.75,85.95 95.80,85.92 95.85,85.90 95.90,85.88 95.95,85.86 96.00,85.83 96.05,85.81 96.10,85.79 96.15,85.77 96.20,85.75 96.25,85.73 96.30,85.71 96.35,85.69 96.40,85.67 96.45,85.65 96.50,85.63 96.55,85.61 96.60,85.60 96.65,85.58 96.70,85.56 96.75,85.54 96.80,85.53 96.85,85.51 96.90,85.49 96.95,85.48 97.00,85.46 97.05,85.45 97.10,85.43 97.15,85.41 97.20,85.40 97.25,85.39 97.30,85.37 97.35,85.36 97.40,85.34 97.45,85.33 97.50,85.32 97.55,85.30 97.60,85.29 97.65,85.28 97.70,85.27 97.75,85.26 97.80,85.25 97.85,85.23 97.90,85.22 97.95,85.21 98.00,85.20 98.05,85.19 98.10,85.18 98.15,85.17 98.20,85.16 98.25,85.15 98.30,85.15 98.35,85.14 98.40,85.13 98.45,85.12 98.50,85.11 98.55,85.11 98.60,85.10 98.65,85.09 98.70,85.08 98.75,85.08 98.80,85.07 98.85,85.07 98.90,85.06 98.95,85.06 99.00,85.05 99.05,85.05 99.10,85.04 99.15,85.04 99.20,85.03 99.25,85.03 99.30,85.02 99.35,85.02 99.40,85.02 99.45,85.02 99.50,85.01 99.55,85.01 99.60,85.01 99.65,85.01 99.70,85.00 99.75,85.00 99.80,85.00 99.85,85.00 99.90,85.00 99.95,85.00 100.00,85.00 100.05,85.00 100.10,85.00 100.15,85.00 100.20,85.00 100.25,85.00 100.30,85.00 100.35,85.01 100.40,85.01 100.45,85.01 100.50,85.01 100.55,85.02 100.60,85.02 100.65,85.02 100.70,85.02 100.75,85.03 100.80,85.03 100.85,85.04 100.90,85.04 100.95,85.05 101.00,85.05 101.05,85.06 101.10,85.06 101.15,85.07 101.20,85.07 101.25,85.08 101.30,85.08 101.35,85.09 101.40,85.10 101.45,85.11 101.50,85.11 101.55,85.12 101.60,85.13 101.65,85.14 101.70,85.15 101.75,85.15 101.80,85.16 101.85,85.17 101.90,85.18 101.95,85.19 102.00,85.20 102.05,85.21 102.10,85.22 102.15,85.23 102.20,85.25 102.25,85.26 102.30,85.27 102.35,85.28 102.40,85.29 102.45,85.30 102.50,85.32 102.55,85.33 102.60,85.34 102.65,85.36 102.70,85.37 102.75,85.39 102.80,85.40 102.85,85.41 102.90,85.43 102.95,85.45 103.00,85.46 103.05,85.48 103.10,85.49 103.15,85.51 103.20,85.53 103.25,85.54 103.30,85.56 103.35,85.58 103.40,85.60 103.45,85.61 103.50,85.63 103.55,85.65 103.60,85.67 103.65,85.69 103.70,85.71 103.75,85.73 103.80,85.75 103.85,85.77 103.90,85.79 103.95,85.81 104.00,85.83 104.05,85.86 104.10,85.88 104.15,85.90 104.20,85.92 104.25,85.95 104.30,85.97 104.35,86.00 104.40,86.02 104.45,86.04 104.50,86.07 104.55,86.10 104.60,86.12 104.65,86.15 104.70,86.17 104.75,86.20 104.80,86.23 104.85,86.25 104.90,86.28 104.95,86.31 105.00,86.34 105.05,86.37 105.10,86.40 105.15,86.43 105.20,86.46 105.25,86.49 105.30,86.52 105.35,86.55 105.40,86.58 105.45,86.62 105.50,86.65 105.55,86.68 105.60,86.72 105.65,86.75 105.70,86.78 105.75,86.82 105.80,86.85 105.85,86.89 105.90,86.93 105.95,86.96 106.00,87.00 106.05,87.04 106.10,87.08 106.15,87.11 106.20,87.15 106.25,87.19 106.30,87.23 106.35,87.27 106.40,87.32 106.45,87.36 106.50,87.40 106.55,87.44 106.60,87.49 106.65,87.53 106.70,87.58 106.75,87.62 106.80,87.67 106.85,87.71 106.90,87.76 106.95,87.81 107.00,87.86 107.05,87.91 107.10,87.96 107.15,88.01 107.20,88.06 107.25,88.11 107.30,88.17 107.35,88.22 107.40,88.27 107.45,88.33 107.50,88.39 107.55,88.44 107.60,88.50 107.65,88.56 107.70,88.62 107.75,88.68 107.80,88.74 107.85,88.81 107.90,88.87 107.95,88.93 108.00,89.00 108.05,89.07 108.10,89.14 108.15,89.21 108.20,89.28 108.25,89.35 108.30,89.42 108.35,89.50 108.40,89.57 108.45,89.65 108.50,89.73 108.55,89.81 108.60,89.90 108.65,89.98 108.70,90.07 108.75,90.16 108.80,90.25 108.85,90.34 108.90,90.44 108.95,90.54 109.00,90.64 109.05,90.75 109.10,90.85 109.15,90.97 109.20,91.08 109.25,91.20 109.30,91.32 109.35,91.45 109.40,91.59 109.45,91.73 109.50,91.88 109.55,92.03 109.60,92.20 109.65,92.38 109.70,92.57 109.75,92.78 109.80,93.01 109.85,93.27 109.90,93.59 109.95,94.00 110.00,95.00 109.95,96.00 109.90,96.41 109.85,96.73 109.80,96.99 109.75,97.22 109.70,97.43 109.65,97.62 109.60,97.80 109.55,97.97 109.50,98.12 109.45,98.27 109.40,98.41 109.35,98.55 109.30,98.68 109.25,98.80 109.20,98.92 109.15,99.03 109.10,99.15 109.05,99.25 109.00,99.36 108.95,99.46 108.90,99.56 108.85,99.66 108.80,99.75 108.75,99.84 108.70,99.93 108.65,100.02 108.60,100.10 108.55,100.19 108.50,100.27 108.45,100.35 108.40,100.43 108.35,100.50 108.30,100.58 108.25,100.65 108.20,100.72 108.15,100.79 108.10,100.86 108.05,100.93 108.00,101.00 107.95,101.07 107.90,101.13 107.85,101.19 107.80,101.26 107.75,101.32 107.70,101.38 107.65,101.44 107.60,101.50 107.55,101.56 107.50,101.61 107.45,101.67 107.40,101.73 107.35,101.78 107.30,101.83 107.25,101.89 107.20,101.94 107.15,101.99 107.10,102.04 107.05,102.09 107.00,102.14 106.95,102.19 106.90,102.24 106.85,102.29 106.80,102.33 106.75,102.38 106.70,102.42 106.65,102.47 106.60,102.51 106.55,102.56 106.50,102.60 106.45,102.64 106.40,102.68 106.35,102.73 106.30,102.77 106.25,102.81 106.20,102.85 106.15,102.89 106.10,102.92 106.05,102.96 106.00,103.00 105.95,103.04 105.90,103.07 105.85,103.11 105.80,103.15 105.75,103.18 105.70,103.22 105.65,103.25 105.60,103.28 105.55,103.32 105.50,103.35 105.45,103.38 105.40,103.42 105.35,103.45 105.30,103.48 105.25,103.51 105.20,103.54 105.15,103.57 105.10,103.60 105.05,103.63 105.00,103.66 104.95,103.69 104.90,103.72 104.85,103.75 104.80,103.77 104.75,103.80 104.70,103.83 104.65,103.85 104.60,103.88 104.55,103.90 104.50,103.93 104.45,103.96 104.40,103.98 104.35,104.00 104.30,104.03 104.25,104.05 104.20,104.08 104.15,104.10 104.10,104.12 104.05,104.14 104.00,104.17 103.95,104.19 103.90,104.21 103.85,104.23 103.80,104.25 103.75,104.27 103.70,104.29 103.65,104.31 103.60,104.33 103.55,104.35 103.50,104.37 103.45,104.39 103.40,104.40 103.35,104.42 103.30,104.44 103.25,104.46 103.20,104.47 103.15,104.49 103.10,104.51 103.05,104.52 103.00,104.54 102.95,104.55 102.90,104.57 102.85,104.59 102.80,104.60 102.75,104.61 102.70,104.63 102.65,104.64 102.60,104.66 102.55,104.67 102.50,104.68 102.45,104.70 102.40,104.71 102.35,104.72 102.30,104.73 102.25,104.74 102.20,104.75 102.15,104.77 102.10,104.78 102.05,104.79 102.00,104.80 101.95,104.81 101.90,104.82 101.85,104.83 101.80,104.84 101.75,104.85 101.70,104.85 101.65,104.86 101.60,104.87 101.55,104.88 101.50,104.89 101.45,104.89 101.40,104.90 101.35,104.91 101.30,104.92 101.25,104.92 101.20,104.93 101.15,104.93 101.10,104.94 101.05,104.94 101.00,104.95 100.95,104.95 100.90,104.96 100.85,104.96 100.80,104.97 100.75,104.97 100.70,104.98 100.65,104.98 100.60,104.98 100.55,104.98 100.50,104.99 100.45,104.99 100.40,104.99 100.35,104.99 100.30,105.00 100.25,105.00 100.20,105.00 100.15,105.00 100.10,105.00 100.05,105.00 100.00,105.00 99.95,105.00 99.90,105.00 99.85,105.00 99.80,105.00 99.75,105.00 99.70,105.00 99.65,104.99 99.60,104.99 99.55,104.99 99.50,104.99 99.45,104.98 99.40,104.98 99.35,104.98 99.30,104.98 99.25,104.97 99.20,104.97 99.15,104.96 99.10,104.96 99.05,104.95 99.00,104.95 98.95,104.94 98.90,104.94 98.85,104.93 98.80,104.93 98.75,104.92 98.70,104.92 98.65,104.91 98.60,104.90 98.55,104.89 98.50,104.89 98.45,104.88 98.40,104.87 98.35,104.86 98.30,104.85 98.25,104.85 98.20,104.84 98.15,104.83 98.10,104.82 98.05,104.81 98.00,104.80 97.95,104.79 97.90,104.78 97.85,104.77 97.80,104.75 97.75,104.74 97.70,104.73 97.65,104.72 97.60,104.71 97.55,104.70 97.50,104.68 97.45,104.67 97.40,104.66 97.35,104.64 97.30,104.63 97.25,104.61 97.20,104.60 97.15,104.59 97.10,104.57 97.05,104.55 97.00,104.54 96.95,104.52 96.90,104.51 96.85,104.49 96.80,104.47 96.75,104.46 96.70,104.44 96.65,104.42 96.60,104.40 96.55,104.39 96.50,104.37 96.45,104.35 96.40,104.33 96.35,104.31 96.30,104.29 96.25,104.27 96.20,104.25 96.15,104.23 96.10,104.21 96.05,104.19 96.00,104.17 95.95,104.14 95.90,104.12 95.85,104.10 95.80,104.08 95.75,104.05 95.70,104.03 95.65,104.00 95.60,103.98 95.55,103.96 95.50,103.93 95.45,103.90 95.40,103.88 95.35,103.85 95.30,103.83 95.25,103.80 95.20,103.77 95.15,103.75 95.10,103.72 95.05,103.69 95.00,103.66 94.95,103.63 94.90,103.60 94.85,103.57 94.80,103.54 94.75,103.51 94.70,103.48 94.65,103.45 94.60,103.42 94.55,103.38 94.50,103.35 94.45,103.32 94.40,103.28 94.35,103.25 94.30,103.22 94.25,103.18 94.20,103.15 94.15,103.11 94.10,103.07 94.05,103.04 94.00,103.00 93.95,102.96 93.90,102.92 93.85,102.89 93.80,102.85 93.75,102.81 93.70,102.77 93.65,102.73 93.60,102.68 93.55,102.64 93.50,102.60 93.45,102.56 93.40,102.51 93.35,102.47 93.30,102.42 93.25,102.38 93.20,102.33 93.15,102.29 93.10,102.24 93.05,102.19 93.00,102.14 92.95,102.09 92.90,102.04 92.85,101.99 92.80,101.94 92.75,101.89 92.70,101.83 92.65,101.78 92.60,101.73 92.55,101.67 92.50,101.61 92.45,101.56 92.40,101.50 92.35,101.44 92.30,101.38 92.25,101.32 92.20,101.26 92.15,101.19 92.10,101.13 92.05,101.07 92.00,101.00 91.95,100.93 91.90,100.86 91.85,100.79 91.80,100.72 91.75,100.65 91.70,100.58 91.65,100.50 91.60,100.43 91.55,100.35 91.50,100.27 91.45,100.19 91.40,100.10 91.35,100.02 91.30,99.93 91.25,99.84 91.20,99.75 91.15,99.66 91.10,99.56 91.05,99.46 91.00,99.36 90.95,99.25 90.90,99.15 90.85,99.03 90.80,98.92 90.75,98.80 90.70,98.68 90.65,98.55 90.60,98.41 90.55,98.27 90.50,98.12 90.45,97.97 90.40,97.80 90.35,97.62 90.30,97.43 90.25,97.22 90.20,96.99 90.15,96.73 90.10,96.41 90.05,96.00 90.00,95.00"/>
  <text x="101.00" y="98.00" fill="#0000ff" text-anchor="middle" font-size="10.00">
    100
  </text>
  <polyline stroke="#000000" stroke-width="1.00" stroke-linecap="square" fill="#0000ff" points="200.00,20.00  300.00,95.00"/>
  <polyline stroke="#000000" stroke-width="1.00" stroke-linecap="square" fill="#0000ff" points="300.00,95.00  350.00,170.00"/>
  <polyline stroke="#000000" stroke-width="1.00" stroke-linecap="square" fill="#0000ff" points="350.00,170.00  325.00,245.00"/>
  <polyline stroke="#ff0000" stroke-width="1.00" stroke-linecap="square" fill="#ffffff" points="315.00,245.00  315.05,244.00 315.10,243.59 315.15,243.27 315.20,243.01 315.25,242.78 315.30,242.57 315.35,242.38 315.40,242.20 315.45,242.03 315.50,241.88 315.55,241.73 315.60,241.59 315.65,241.45 315.70,241.32 315.75,241.20 315.80,241.08 315.85,240.97 315.90,240.85 315.95,240.75 316.00,240.64 316.05,240.54 316.10,240.44 316.15,240.34 316.20,240.25 316.25,240.16 316.30,240.07 316.35,239.98 316.40,239.90 316.45,239.81 316.50,239.73 316.55,239.65 316.60,239.57 316.65,239.50 316.70,239.42 316.75,239.35 316.80,239.28 316.85,239.21 316.90,239.14 316.95,239.07 317.00,239.00 317.05,238.93 317.10,238.87 317.15,238.81 317.20,238.74 317.25,238.68 317.30,238.62 317.35,238.56 317.40,238.50 317.45,238.44 317.50,238.39 317.55,238.33 317.60,238.27 317.65,238.22 317.70,238.17 317.75,238.11 317.80,238.06 317.85,238.01 317.90,237.96 317.95,237.91 318.00,237.86 318.05,237.81 318.10,237.76 318.15,237.71 318.20,237.67 318.25,237.62 318.30,237.58 318.35,237.53 318.40,237.49 318.45,237.44 318.50,237.40 318.55,237.36 318.60,237.32 318.65,237.27 318.70,237.23 318.75,237.19 318.80,237.15 318.85,237.11 318.90,237.08 318.95,237.04 319.00,237.00 319.05,236.96 319.10,236.93 319.15,236.89 319.20,236.85 319.25,236.82 319.30,236.78 319.35,236.75 319.40,236.72 319.45,236.68 319.50,236.65 319.55,236.62 319.60,236.58 319.65,236.55 319.70,236.52 319.75,236.49 319.80,236.46 319.85,236.43 319.90,236.40 319.95,236.37 320.00,236.34 320.05,236.31 320.10,236.28 320.15,236.25 320.20,236.23 320.25,236.20 320.30,236.17 320.35,236.15 320.40,236.12 320.45,236.10 320.50,236.07 320.55,236.04 320.60,236.02 320.65,236.00 320.70,235.97 320.75,235.95 320.80,235.92 320.85,235.90 320.90,235.88 320.95,235.86 321.00,235.83 321.05,235.81 321.10,235.79 321.15,235.77 321.20,235.75 321.25,235.73 321.30,235.71 321.35,235.69 321.40,235.67 321.45,235.65 321.50,235.63 321.55,235.61 321.60,235.60 321.65,235.58 321.70,235.56 321.75,235.54 321.80,235.53 321.85,235.51 321.90,235.49 321.95,235.48 322.00,235.46 322.05,235.45 322.10,235.43 322.15,235.41 322.20,235.40 322.25,235.39 322.30,235.37 322.35,235.36 322.40,235.34 322.45,235.33 322.50,235.32 322.55,235.30 322.60,235.29 322.65,235.28 322.70,235.27 322.75,235.26 322.80,235.25 322.85,235.23 322.90,235.22 322.95,235.21 323.00,235.20 323.05,235.19 323.10,235.18 323.15,235.17 323.20,235.16 323.25,235.15 323.30,235.15 323.35,235.14 323.40,235.13 323.45,235.12 323.50,235.11 323.55,235.11 323.60,235.10 323.65,235.09 323.70,235.08 323.75,235.08 323.80,235.07 323.85,235.07 323.90,235.06 323.95,235.06 324.00,235.05 324.05,235.05 324.10,235.04 324.15,235.04 324.20,235.03 324.25,235.03 324.30,235.02 324.35,235.02 324.40,235.02 324.45,235.02 324.50,235.01 324.55,235.01 324.60,235.01 324.65,235.01 324.70,235.00 324.75,235.00 324.80,235.00 324.85,235.00 324.90,235.00 324.95,235.00 325.00,235.00 325.05,235.00 325.10,235.00 325.15,235.00 325.20,235.00 325.25,235.00 325.30,235.00 325.35,235.01 325.40,235.01 325.45,235.01 325.50,235.01 325.55,235.02 325.60,235.02 325.65,235.02 325.70,235.02 325.75,235.03 325.80,235.03 325.85,235.04 325.90,235.04 325.95,235.05 326.00,235.05 326.05,235.06 326.10,235.06 326.15,235.07 326.20,235.07 326.25,235.08 326.30,235.08 326.35,235.09 326.40,235.10 326.45,235.11 326.50,235.11 326.55,235.12 326.60,235.13 326.65,235.14 326.70,235.15 326.75,235.15 326.80,235.16 326.85,235.17 326.90,235.18 326.95,235.19 327.00,235.20 327.05,235.21 327.10,235.22 327.15,235.23 327.20,235.25 327.25,235.26 327.30,235.27 327.35,235.28 327.40,235.29 327.45,235.30 327.50,235.32 327.55,235.33 327.60,235.34 327.65,235.36 327.70,235.37 327.75,235.39 327.80,235.40 327.85,235.41 327.90,235.43 327.95,235.45 328.00,235.46 328.05,235.48 328.10,235.49 328.15,235.51 328.20,235.53 328.25,235.54 328.30,235.56 328.35,235.58 328.40,235.60 328.45,235.61 328.50,235.63 328.55,235.65 328.60,235.67 328.65,235.69 328.70,235.71 328.75,235.73 328.80,235.75 328.85,235.77 328.90,235.79 328.95,235.81 329.00,235.83 329.05,235.86 329.10,235.88 329.15,235.90 329.20,235.92 329.25,235.95 329.30,235.97 329.35,236.00 329.40,236.02 329.45,236.04 329.50,236.07 329.55,236.10 329.60,236.12 329.65,236.15 329.70,236.17 329.75,236.20 329.80,236.23 329.85,236.25 329.90,236.28 329.95,236.31 330.00,236.34 330.05,236.37 330.10,236.40 330.15,236.43 330.20,236.46 330.25,236.49 330.30,236.52 330.35,236.55 330.40,236.58 330.45,236.62 330.50,236.65 330.55,236.68 330.60,236.72 330.65,236.75 330.70,236.78 330.75,236.82 330.80,236.85 330.85,236.89 330.90,236.93 330.95,236.96 331.00,237.00 331.05,237.04 331.10,237.08 331.15,237.11 331.20,237.15 331.25,237.19 331.30,237.23 331.35,237.27 331.40,237.32 331.45,237.36 331.50,237.40 331.55,237.44 331.60,237.49 331.65,237.53 331.70,237.58 331.75,237.62 331.80,237.67 331.85,237.71 331.90,237.76 331.95,237.81 332.00,237.86 332.05,237.91 332.10,237.96 332.15,238.01 332.20,238.06 332.25,238.11 332.30,238.17 332.35,238.22 332.40,238.27 332.45,238.33 332.50,238.39 332.55,238.44 332.60,238.50 332.65,238.56 332.70,238.62 332.75,238.68 332.80,238.74 332.85,238.81 332.90,238.87 332.95,238.93 333.00,239.00 333.05,239.07 333.10,239.14 333.15,239.21 333.20,239.28 333.25,239.35 333.30,239.42 333.35,239.50 333.40,239.57 333.45,239.65 333.50,239.73 333.55,239.81 333.60,239.90 333.65,239.98 333.70,240.07 333.75,240.16 333.80,240.25 333.85,240.34 333.90,240.44 333.95,240.54 334.00,240.64 334.05,240.75 334.10,240.85 334.15,240.97 334.20,241.08 334.25,241.20 334.30,241.32 334.35,241.45 334.40,241.59 334.45,241.73 334.50,241.88 334.55,242.03 334.60,242.20 334.65,242.38 334.70,242.57 334.75,242.78 334.80,243.01 334.85,243.27 334.90,243.59 334.95,244.00 335.00,245.00 334.95,246.00 334.90,246.41 334.85,246.73 334.80,246.99 334.75,247.22 334.70,247.43 334.65,247.62 334.60,247.80 334.55,247.97 334.50,248.12 334.45,248.27 334.40,248.41 334.35,248.55 334.30,248.68 334.25,248.80 334.20,248.92 334.15,249.03 334.10,249.15 334.05,249.25 334.00,249.36 333.95,249.46 333.90,249.56 333.85,249.66 333.80,249.75 333.75,249.84 333.70,249.93 333.65,250.02 333.60,250.10 333.55,250.19 333.50,250.27 333.45,250.35 333.40,250.43 333.35,250.50 333.30,250.58 333.25,250.65 333.20,250.72 333.15,250.79 333.10,250.86 333.05,250.93 333.00,251.00 332.95,251.07 332.90,251.13 332.85,251.19 332.80,251.26 332.75,251.32 332.70,251.38 332.65,251.44 332.60,251.50 332.55,251.56 332.50,251.61 332.45,251.67 332.40,251.73 332.35,251.78 332.30,251.83 332.25,251.89 332.20,251.94 332.15,251.99 332.10,252.04 332.05,252.09 332.00,252.14 331.95,252.19 331.90,252.24 331.85,252.29 331.80,252.33 331.75,252.38 331.70,252.42 331.65,252.47 331.60,252.51 331.55,252.56 331.50,252.60 331.45,252.64 331.40,252.68 331.35,252.73 331.30,252.77 331.25,252.81 331.20,252.85 331.15,252.89 331.10,252.92 331.05,252.96 331.00,253.00 330.95,253.04 330.90,253.07 330.85,253.11 330.80,253.15 330.75,253.18 330.70,253.22 330.65,253.25 330.60,253.28 330.55,253.32 330.50,253.35 330.45,253.38 330.40,253.42 330.35,253.45 330.30,253.48 330.25,253.51 330.20,253.54 330.15,253.57 330.10,253.60 330.05,253.63 330.00,253.66 329.95,253.69 329.90,253.72 329.85,253.75 329.80,253.77 329.75,253.80 329.70,253.83 329.65,253.85 329.60,253.88 329.55,253.90 329.50,253.93 329.45,253.96 329.40,253.98 329.35,254.00 329.30,254.03 329.25,254.05 329.20,254.08 329.15,254.10 329.10,254.12 329.05,254.14 329.00,254.17 328.95,254.19 328.90,254.21 328.85,254.23 328.80,254.25 328.75,254.27 328.70,254.29 328.65,254.31 328.60,254.33 328.55,254.35 328.50,254.37 328.45,254.39 328.40,254.40 328.35,254.42 328.30,254.44 328.25,254.46 328.20,254.47 328.15,254.49 328.10,254.51 328.05,254.52 328.00,254.54 327.95,254.55 327.90,254.57 327.85,254.59 327.80,254.60 327.75,254.61 327.70,254.63 327.65,254.64 327.60,254.66 327.55,254.67 327.50,254.68 327.45,254.70 327.40,254.71 327.35,254.72 327.30,254.73 327.25,254.74 327.20,254.75 327.15,254.77 327.10,254.78 327.05,254.79 327.00,254.80 326.95,254.81 326.90,254.82 326.85,254.83 326.80,254.84 326.75,254.85 326.70,254.85 326.65,254.86 326.60,254.87 326.55,254.88 326.50,254.89 326.45,254.89 326.40,254.90 326.35,254.91 326.30,254.92 326.25,254.92 326.20,254.93 326.15,254.93 326.10,254.94 326.05,254.94 326.00,254.95 325.95,254.95 325.90,254.96 325.85,254.96 325.80,254.97 325.75,254.97 325.70,254.98 325.65,254.98 325.60,254.98 325.55,254.98 325.50,254.99 325.45,254.99 325.40,254.99 325.35,254.99 325.30,255.00 325.25,255.00 325.20,255.00 325.15,255.00 325.10,255.00 325.05,255.00 325.00,255.00 324.95,255.00 324.90,255.00 324.85,255.00 324.80,255.00 324.75,255.00 324.70,255.00 324.65,254.99 324.60,254.99 324.55,254.99 324.50,254.99 324.45,254.98 324.40,254.98 324.35,254.98 324.30,254.98 324.25,254.97 324.20,254.97 324.15,254.96 324.10,254.96 324.05,254.95 324.00,254.95 323.95,254.94 323.90,254.94 323.85,254.93 323.80,254.93 323.75,254.92 323.70,254.92 323.65,254.91 323.60,254.90 323.55,254.89 323.50,254.89 323.45,254.88 323.40,254.87 323.35,254.86 323.30,254.85 323.25,254.85 323.20,254.84 323.15,254.83 323.10,254.82 323.05,254.81 323.00,254.80 322.95,254.79 322.90,254.78 322.85,254.77 322.80,254.75 322.75,254.74 322.70,254.73 322.65,254.72 322.60,254.71 322.55,254.70 322.50,254.68 322.45,254.67 322.40,254.66 322.35,254.64 322.30,254.63 322.25,254.61 322.20,254.60 322.15,254.59 322.10,254.57 322.05,254.55 322.00,254.54 321.95,254.52 321.90,254.51 321.85,254.49 321.80,254.47 321.75,254.46 321.70,254.44 321.65,254.42 321.60,254.40 321.55,254.39 321.50,254.37 321.45,254.35 321.40,254.33 321.35,254.31 321.30,254.29 321.25,254.27 321.20,254.25 321.15,254.23 321.10,254.21 321.05,254.19 321.00,254.17 320.95,254.14 320.90,254.12 320.85,254.10 320.80,254.08 320.75,254.05 320.70,254.03 320.65,254.00 320.60,253.98 320.55,253.96 320.50,253.93 320.45,253.90 320.40,253.88 320.35,253.85 320.30,253.83 320.25,253.80 320.20,253.77 320.15,253.75 320.10,253.72 320.05,253.69 320.00,253.66 319.95,253.63 319.90,253.60 319.85,253.57 319.80,253.54 319.75,253.51 319.70,253.48 319.65,253.45 319.60,253.42 319.55,253.38 319.50,253.35 319.45,253.32 319.40,253.28 319.35,253.25 319.30,253.22 319.25,253.18 319.20,253.15 319.15,253.11 319.10,253.07 319.05,253.04 319.00,253.00 318.95,252.96 318.90,252.92 318.85,252.89 318.80,252.85 318.75,252.81 318.70,252.77 318.65,252.73 318.60,252.68 318.55,252.64 318.50,252.60 318.45,252.56 318.40,252.51 318.35,252.47 318.30,252.42 318.25,252.38 318.20,252.33 318.15,252.29 318.10,252.24 318.05,252.19 318.00,252.14 317.95,252.09 317.90,252.04 317.85,251.99 317.80,251.94 317.75,251.89 317.70,251.83 317.65,251.78 317.60,251.73 317.55,251.67 317.50,251.61 317.45,251.56 317.40,251.50 317.35,251.44 317.30,251.38 317.25,251.32 317.20,251.26 317.15,251.19 317.10,251.13 317.05,251.07 317.00,251.00 316.95,250.93 316.90,250.86 316.85,250.79 316.80,250.72 316.75,250.65 316.70,250.58 316.65,250.50 316.60,250.43 316.55,250.35 316.50,250.27 316.45,250.19 316.40,250.10 316.35,250.02 316.30,249.93 316.25,249.84 316.20,249.75 316.15,249.66 316.10,249.56 316.05,249.46 316.00,249.36 315.95,249.25 315.90,249.15 315.85,249.03 315.80,248.92 315.75,248.80 315.70,248.68 315.65,248.55 315.60,248.41 315.55,248.27 315.50,248.12 315.45,247.97 315.40,247.80 315.35,247.62 315.30,247.43 315.25,247.22 315.20,246.99 315.15,246.73 315.10,246.41 315.05,246.00 315.00,245.00"/>
  <text x="326.00" y="248.00" fill="#0000ff" text-anchor="middle" font-size="10.00">
    155
  </text>
  <polyline stroke="#000000" stroke-width="1.00" stroke-linecap="square" fill="#0000ff" points="350.00,170.00  375.00,245.00"/>
  <polyline stroke="#ff0000" stroke-width="1.00" stroke-linecap="square" fill="#ffffff" points="365.00,245.00  365.05,244.00 365.10,243.59 365.15,243.27 365.20,243.01 365.25,242.78 365.30,242.57 365.35,242.38 365.40,242.20 365.45,242.03 365.50,241.88 365.55,241.73 365.60,241.59 365.65,241.45 365.70,241.32 365.75,241.20 365.80,241.08 365.85,240.97 365.90,240.85 365.95,240.75 366.00,240.64 366.05,240.54 366.10,240.44 366.15,240.34 366.20,240.25 366.25,240.16 366.30,240.07 366.35,239.98 366.40,239.90 366.45,239.81 366.50,239.73 366.55,239.65 366.60,239.57 366.65,239.50 366.70,239.42 366.75,239.35 366.80,239.28 366.85,239.21 366.90,239.14 366.95,239.07 367.00,239.00 367.05,238.93 367.10,238.87 367.15,238.81 367.20,238.74 367.25,238.68 367.30,238.62 367.35,238.56 367.40,238.50 367.45,238.44 367.50,238.39 367.55,238.33 367.60,238.27 367.65,238.22 367.70,238.17 367.75,238.11 367.80,238.06 367.85,238.01 367.90,237.96 367.95,237.91 368.00,237.86 368.05,237.81 368.10,237.76 368.15,237.71 368.20,237.67 368.25,237.62 368.30,237.58 368.35,237.53 368.40,237.49 368.45,237.44 368.50,237.40 368.55,237.36 368.60,237.32 368.65,237.27 368.70,237.23 368.75,237.19 368.80,237.15 368.85,237.11 368.90,237.08 368.95,237.04 369.00,237.00 369.05,236.96 369.10,236.93 369.15,236.89 369.20,236.85 369.25,236.82 369.30,236.78 369.35,236.75 369.40,236.72 369.45,236.68 369.50,236.65 369.55,236.62 369.60,236.58 369.65,236.55 369.70,236.52 369.75,236.49 369.80,236.46 369.85,236.43 369.90,236.40 369.95,236.37 370.00,236.34 370.05,236.31 370.10,236.28 370.15,236.25 370.20,236.23 370.25,236.20 370.30,236.17 370.35,236.15 370.40,236.12 370.45,236.10 370.50,236.07 370.55,236.04 370.60,236.02 370.65,236.00 370.70,235.97 370.75,235.95 370.80,235.92 370.85,235.90 370.90,235.88 370.95,235.86 371.00,235.83 371.05,235.81 371.10,235.79 371.15,235.77 371.20,235.75 371.25,235.73 371.30,235.71 371.35,235.69 371.40,235.67 371.45,235.65 371.50,235.63 371.55,235.61 371.60,235.60 371.65,235.58 371.70,235.56 371.75,235.54 371.80,235.53 371.85,235.51 371.90,235.49 371.95,235.48 372.00,235.46 372.05,235.45 372.10,235.43 372.15,235.41 372.20,235.40 372.25,235.39 372.30,235.37 372.35,235.36 372.40,235.34 372.45,235.33 372.50,235.32 372.55,235.30 372.60,235.29 372.65,235.28 372.70,235.27 372.75,235.26 372.80,235.25 372.85,235.23 372.90,235.22 372.95,235.21 373.00,235.20 373.05,235.19 373.10,235.18 373.15,235.17 373.20,235.16 373.25,235.15 373.30,235.15 373.35,235.14 373.40,235.13 373.45,235.12 373.50,235.11 373.55,235.11 373.60,235.10 373.65,235.09 373.70,235.08 373.75,235.08 373.80,235.07 373.85,235.07 373.90,235.06 373.95,235.06 374.00,235.05 374.05,235.05 374.10,235.04 374.15,235.04 374.20,235.03 374.25,235.03 374.30,235.02 374.35,235.02 374.40,235.02 374.45,235.02 374.50,235.01 374.55,235.01 374.60,235.01 374.65,235.01 374.70,235.00 374.75,235.00 374.80,235.00 374.85,235.00 374.90,235.00 374.95,235.00 375.00,235.00 375.05,235.00 375.10,235.00 375.15,235.00 375.20,235.00 375.25,235.00 375.30,235.00 375.35,235.01 375.40,235.01 375.45,235.01 375.50,235.01 375.55,235.02 375.60,235.02 375.65,235.02 375.70,235.02 375.75,235.03 375.80,235.03 375.85,235.04 375.90,235.04 375.95,235.05 376.00,235.05 376.05,235.06 376.10,235.06 376.15,235.07 376.20,235.07 376.25,235.08 376.30,235.08 376.35,235.09 376.40,235.10 376.45,235.11 376.50,235.11 376.55,235.12 376.60,235.13 376.65,235.14 376.70,235.15 376.75,235.15 376.80,235.16 376.85,235.17 376.90,235.18 376.95,235.19 377.00,235.20 377.05,235.21 377.10,235.22 377.15,235.23 377.20,235.25 377.25,235.26 377.30,235.27 377.35,235.28 377.40,235.29 377.45,235.30 377.50,235.32 377.55,235.33 377.60,235.34 377.65,235.36 377.70,235.37 377.75,235.39 377.80,235.40 377.85,235.41 377.90,235.43 377.95,235.45 378.00,235.46 378.05,235.48 378.10,235.49 378.15,235.51 378.20,235.53 378.25,235.54 378.30,235.56 378.35,235.58 378.40,235.60 378.45,235.61 378.50,235.63 378.55,235.65 378.60,235.67 378.65,235.69 378.70,235.71 378.75,235.73 378.80,235.75 378.85,235.77 378.90,235.79 378.95,235.81 379.00,235.83 379.05,235.86 379.10,235.88 379.15,235.90 379.20,235.92 379.25,235.95 379.30,235.97 379.35,236.00 379.40,236.02 379.45,236.04 379.50,236.07 379.55,236.10 379.60,236.12 379.65,236.15 379.70,236.17 379.75,236.20 379.80,236.23 379.85,236.25 379.90,236.28 379.95,236.31 380.00,236.34 380.05,236.37 380.10,236.40 380.15,236.43 380.20,236.46 380.25,236.49 380.30,236.52 380.35,236.55 380.40,236.58 380.45,236.62 380.50,236.65 380.55,236.68 380.60,236.72 380.65,236.75 380.70,236.78 380.75,236.82 380.80,236.85 380.85,236.89 380.90,236.93 380.95,236.96 381.00,237.00 381.05,237.04 381.10,237.08 381.15,237.11 381.20,237.15 381.25,237.19 381.30,237.23 381.35,237.27 381.40,237.32 381.45,237.36 381.50,237.40 381.55,237.44 381.60,237.49 381.65,237.53 381.70,237.58 381.75,237.62 381.80,237.67 381.85,237.71 381.90,237.76 381.95,237.81 382.00,237.86 382.05,237.91 382.10,237.96 382.15,238.01 382.20,238.06 382.25,238.11 382.30,238.17 382.35,238.22 382.40,238.27 382.45,238.33 382.50,238.39 382.55,238.44 382.60,238.50 382.65,238.56 382.70,238.62 382.75,238.68 382.80,238.74 382.85,238.81 382.90,238.87 382.95,238.93 383.00,239.00 383.05,239.07 383.10,239.14 383.15,239.21 383.20,239.28 383.25,239.35 383.30,239.42 383.35,239.50 383.40,239.57 383.45,239.65 383.50,239.73 383.55,239.81 383.60,239.90 383.65,239.98 383.70,240.07 383.75,240.16 383.80,240.25 383.85,240.34 383.90,240.44 383.95,240.54 384.00,240.64 384.05,240.75 384.10,240.85 384.15,240.97 384.20,241.08 384.25,241.20 384.30,241.32 384.35,241.45 384.40,241.59 384.45,241.73 384.50,241.88 384.55,242.03 384.60,242.20 384.65,242.38 384.70,242.57 384.75,242.78 384.80,243.01 384.85,243.27 384.90,243.59 384.95,244.00 385.00,245.00 384.95,246.00 384.90,246.41 384.85,246.73 384.80,246.99 384.75,247.22 384.70,247.43 384.65,247.62 384.60,247.80 384.55,247.97 384.50,248.12 384.45,248.27 384.40,248.41 384.35,248.55 384.30,248.68 384.25,248.80 384.20,248.92 384.15,249.03 384.10,249.15 384.05,249.25 384.00,249.36 383.95,249.46 383.90,249.56 383.85,249.66 383.80,249.75 383.75,249.84 383.70,249.93 383.65,250.02 383.60,250.10 383.55,250.19 383.50,250.27 383.45,250.35 383.40,250.43 383.35,250.50 383.30,250.58 383.25,250.65 383.20,250.72 383.15,250.79 383.10,250.86 383.05,250.93 383.00,251.00 382.95,251.07 382.90,251.13 382.85,251.19 382.80,251.26 382.75,251.32 382.70,251.38 382.65,251.44 382.60,251.50 382.55,251.56 382.50,251.61 382.45,251.67 382.40,251.73 382.35,251.78 382.30,251.83 382.25,251.89 382.20,251.94 382.15,251.99 382.10,252.04 382.05,252.09 382.00,252.14 381.95,252.19 381.90,252.24 381.85,252.29 381.80,252.33 381.75,252.38 381.70,252.42 381.65,252.47 381.60,252.51 381.55,252.56 381.50,252.60 381.45,252.64 381.40,252.68 381.35,252.73 381.30,252.77 381.25,252.81 381.20,252.85 381.15,252.89 381.10,252.92 381.05,252.96 381.00,253.00 380.95,253.04 380.90,253.07 380.85,253.11 380.80,253.15 380.75,253.18 380.70,253.22 380.65,253.25 380.60,253.28 380.55,253.32 380.50,253.35 380.45,253.38 380.40,253.42 380.35,253.45 380.30,253.48 380.25,253.51 380.20,253.54 380.15,253.57 380.10,253.60 380.05,253.63 380.00,253.66 379.95,253.69 379.90,253.72 379.85,253.75 379.80,253.77 379.75,253.80 379.70,253.83 379.65,253.85 379.60,253.88 379.55,253.90 379.50,253.93 379.45,253.96 379.40,253.98 379.35,254.00 379.30,254.03 379.25,254.05 379.20,254.08 379.15,254.10 379.10,254.12 379.05,254.14 379.00,254.17 378.95,254.19 378.90,254.21 378.85,254.23 378.80,254.25 378.75,254.27 378.70,254.29 378.65,254.31 378.60,254.33 378.55,254.35 378.50,254.37 378.45,254.39 378.40,254.40 378.35,254.42 378.30,254.44 378.25,254.46 378.20,254.47 378.15,254.49 378.10,254.51 378.05,254.52 378.00,254.54 377.95,254.55 377.90,254.57 377.85,254.59 377.80,254.60 377.75,254.61 377.70,254.63 377.65,254.64 377.60,254.66 377.55,254.67 377.50,254.68 377.45,254.70 377.40,254.71 377.35,254.72 377.30,254.73 377.25,254.74 377.20,254.75 377.15,254.77 377.10,254.78 377.05,254.79 377.00,254.80 376.95,254.81 376.90,254.82 376.85,254.83 376.80,254.84 376.75,254.85 376.70,254.85 376.65,254.86 376.60,254.87 376.55,254.88 376.50,254.89 376.45,254.89 376.40,254.90 376.35,254.91 376.30,254.92 376.25,254.92 376.20,254.93 376.15,254.93 376.10,254.94 376.05,254.94 376.00,254.95 375.95,254.95 375.90,254.96 375.85,254.96 375.80,254.97 375.75,254.97 375.70,254.98 375.65,254.98 375.60,254.98 375.55,254.98 375.50,254.99 375.45,254.99 375.40,254.99 375.35,254.99 375.30,255.00 375.25,255.00 375.20,255.00 375.15,255.00 375.10,255.00 375.05,255.00 375.00,255.00 374.95,255.00 374.90,255.00 374.85,255.00 374.80,255.00 374.75,255.00 374.70,255.00 374.65,254.99 374.60,254.99 374.55,254.99 374.50,254.99 374.45,254.98 374.40,254.98 374.35,254.98 374.30,254.98 374.25,254.97 374.20,254.97 374.15,254.96 374.10,254.96 374.05,254.95 374.00,254.95 373.95,254.94 373.90,254.94 373.85,254.93 373.80,254.93 373.75,254.92 373.70,254.92 373.65,254.91 373.60,254.90 373.55,254.89 373.50,254.89 373.45,254.88 373.40,254.87 373.35,254.86 373.30,254.85 373.25,254.85 373.20,254.84 373.15,254.83 373.10,254.82 373.05,254.81 373.00,254.80 372.95,254.79 372.90,254.78 372.85,254.77 372.80,254.75 372.75,254.74 372.70,254.73 372.65,254.72 372.60,254.71 372.55,254.70 372.50,254.68 372.45,254.67 372.40,254.66 372.35,254.64 372.30,254.63 372.25,254.61 372.20,254.60 372.15,254.59 372.10,254.57 372.05,254.55 372.00,254.54 371.95,254.52 371.90,254.51 371.85,254.49 371.80,254.47 371.75,254.46 371.70,254.44 371.65,254.42 371.60,254.40 371.55,254.39 371.50,254.37 371.45,254.35 371.40,254.33 371.35,254.31 371.30,254.29 371.25,254.27 371.20,254.25 371.15,254.23 371.10,254.21 371.05,254.19 371.00,254.17 370.95,254.14 370.90,254.12 370.85,254.10 370.80,254.08 370.75,254.05 370.70,254.03 370.65,254.00 370.60,253.98 370.55,253.96 370.50,253.93 370.45,253.90 370.40,253.88 370.35,253.85 370.30,253.83 370.25,253.80 370.20,253.77 370.15,253.75 370.10,253.72 370.05,253.69 370.00,253.66 369.95,253.63 369.90,253.60 369.85,253.57 369.80,253.54 369.75,253.51 369.70,253.48 369.65,253.45 369.60,253.42 369.55,253.38 369.50,253.35 369.45,253.32 369.40,253.28 369.35,253.25 369.30,253.22 369.25,253.18 369.20,253.15 369.15,253.11 369.10,253.07 369.05,253.04 369.00,253.00 368.95,252.96 368.90,252.92 368.85,252.89 368.80,252.85 368.75,252.81 368.70,252.77 368.65,252.73 368.60,252.68 368.55,252.64 368.50,252.60 368.45,252.56 368.40,252.51 368.35,252.47 368.30,252.42 368.25,252.38 368.20,252.33 368.15,252.29 368.10,252.24 368.05,252.19 368.00,252.14 367.95,252.09 367.90,252.04 367.85,251.99 367.80,251.94 367.75,251.89 367.70,251.83 367.65,251.78 367.60,251.73 367.55,251.67 367.50,251.61 367.45,251.56 367.40,251.50 367.35,251.44 367.30,251.38 367.25,251.32 367.20,251.26 367.15,251.19 367.10,251.13 367.05,251.07 367.00,251.00 366.95,250.93 366.90,250.86 366.85,250.79 366.80,250.72 366.75,250.65 366.70,250.58 366.65,250.50 366.60,250.43 366.55,250.35 366.50,250.27 366.45,250.19 366.40,250.10 366.35,250.02 366.30,249.93 366.25,249.84 366.20,249.75 366.15,249.66 366.10,249.56 366.05,249.46 366.00,249.36 365.95,249.25 365.90,249.15 365.85,249.03 365.80,248.92 365.75,248.80 365.70,248.68 365.65,248.55 365.60,248.41 365.55,248.27 365.50,248.12 365.45,247.97 365.40,247.80 365.35,247.62 365.30,247.43 365.25,247.22 365.20,246.99 365.15,246.73 365.10,246.41 365.05,246.00 365.00,245.00"/>
  <text x="376.00" y="248.00" fill="#0000ff" text-anchor="middle" font-size="10.00">
    166
  </text>
  <polyline stroke="#ff0000" stroke-width="1.00" stroke-linecap="square" fill="#ffffff" points="340.00,170.00  340.05,169.00 340.10,168.59 340.15,168.27 340.20,168.01 340.25,167.78 340.30,167.57 340.35,167.38 340.40,167.20 340.45,167.03 340.50,166.88 340.55,166.73 340.60,166.59 340.65,166.45 340.70,166.32 340.75,166.20 340.80,166.08 340.85,165.97 340.90,165.85 340.95,165.75 341.00,165.64 341.05,165.54 341.10,165.44 341.15,165.34 341.20,165.25 341.25,165.16 341.30,165.07 341.35,164.98 341.40,164.90 341.45,164.81 341.50,164.73 341.55,164.65 341.60,164.57 341.65,164.50 341.70,164.42 341.75,164.35 341.80,164.28 341.85,164.21 341.90,164.14 341.95,164.07 342.00,164.00 342.05,163.93 342.10,163.87 342.15,163.81 342.20,163.74 342.25,163.68 342.30,163.62 342.35,163.56 342.40,163.50 342.45,163.44 342.50,163.39 342.55,163.33 342.60,163.27 342.65,163.22 342.70,163.17 342.75,163.11 342.80,163.06 342.85,163.01 342.90,162.96 342.95,162.91 343.00,162.86 343.05,162.81 343.10,162.76 343.15,162.71 343.20,162.67 343.25,162.62 343.30,162.58 343.35,162.53 343.40,162.49 343.45,162.44 343.50,162.40 343.55,162.36 343.60,162.32 343.65,162.27 343.70,162.23 343.75,162.19 343.80,162.15 343.85,162.11 343.90,162.08 343.95,162.04 344.00,162.00 344.05,161.96 344.10,161.93 344.15,161.89 344.20,161.85 344.25,161.82 344.30,161.78 344.35,161.75 344.40,161.72 344.45,161.68 344.50,161.65 344.55,161.62 344.60,161.58 344.65,161.55 344.70,161.52 344.75,161.49 344.80,161.46 344.85,161.43 344.90,161.40 344.95,161.37 345.00,161.34 345.05,161.31 345.10,161.28 345.15,161.25 345.20,161.23 345.25,161.20 345.30,161.17 345.35,161.15 345.40,161.12 345.45,161.10 345.50,161.07 345.55,161.04 345.60,161.02 345.65,161.00 345.70,160.97 345.75,160.95 345.80,160.92 345.85,160.90 345.90,160.88 345.95,160.86 346.00,160.83 346.05,160.81 346.10,160.79 346.15,160.77 346.20,160.75 346.25,160.73 346.30,160.71 346.35,160.69 346.40,160.67 346.45,160.65 346.50,160.63 346.55,160.61 346.60,160.60 346.65,160.58 346.70,160.56 346.75,160.54 346.80,160.53 346.85,160.51 346.90,160.49 346.95,160.48 347.00,160.46 347.05,160.45 347.10,160.43 347.15,160.41 347.20,160.40 347.25,160.39 347.30,160.37 347.35,160.36 347.40,160.34 347.45,160.33 347.50,160.32 347.55,160.30 347.60,160.29 347.65,160.28 347.70,160.27 347.75,160.26 347.80,160.25 347.85,160.23 347.90,160.22 347.95,160.21 348.00,160.20 348.05,160.19 348.10,160.18 348.15,160.17 348.20,160.16 348.25,160.15 348.30,160.15 348.35,160.14 348.40,160.13 348.45,160.12 348.50,160.11 348.55,160.11 348.60,160.10 348.65,160.09 348.70,160.08 348.75,160.08 348.80,160.07 348.85,160.07 348.90,160.06 348.95,160.06 349.00,160.05 349.05,160.05 349.10,160.04 349.15,160.04 349.20,160.03 349.25,160.03 349.30,160.02 349.35,160.02 349.40,160.02 349.45,160.02 349.50,160.01 349.55,160.01 349.60,160.01 349.65,160.01 349.70,160.00 349.75,160.00 349.80,160.00 349.85,160.00 349.90,160.00 349.95,160.00 350.00,160.00 350.05,160.00 350.10,160.00 350.15,160.00 350.20,160.00 350.25,160.00 350.30,160.00 350.35,160.01 350.40,160.01 350.45,160.01 350.50,160.01 350.55,160.02 350.60,160.02 350.65,160.02 350.70,160.02 350.75,160.03 350.80,160.03 350.85,160.04 350.90,160.04 350.95,160.05 351.00,160.05 351.05,160.06 351.10,160.06 351.15,160.07 351.20,160.07 351.25,160.08 351.30,160.08 351.35,160.09 351.40,160.10 351.45,160.11 351.50,160.11 351.55,160.12 351.60,160.13 351.65,160.14 351.70,160.15 351.75,160.15 351.80,160.16 351.85,160.17 351.90,160.18 351.95,160.19 352.00,160.20 352.05,160.21 352.10,160.22 352.15,160.23 352.20,160.25 352.25,160.26 352.30,160.27 352.35,160.28 352.40,160.29 352.45,160.30 352.50,160.32 352.55,160.33 352.60,160.34 352.65,160.36 352.70,160.37 352.75,160.39 352.80,160.40 352.85,160.41 352.90,160.43 352.95,160.45 353.00,160.46 353.05,160.48 353.10,160.49 353.15,160.51 353.20,160.53 353.25,160.54 353.30,160.56 353.35,160.58 353.40,160.60 353.45,160.61 353.50,160.63 353.55,160.65 353.60,160.67 353.65,160.69 353.70,160.71 353.75,160.73 353.80,160.75 353.85,160.77 353.90,160.79 353.95,160.81 354.00,160.83 354.05,160.86 354.10,160.88 354.15,160.90 354.20,160.92 354.25,160.95 354.30,160.97 354.35,161.00 354.40,161.02 354.45,161.04 354.50,161.07 354.55,161.10 354.60,161.12 354.65,161.15 354.70,161.17 354.75,161.20 354.80,161.23 354.85,161.25 354.90,161.28 354.95,161.31 355.00,161.34 355.05,161.37 355.10,161.40 355.15,161.43 355.20,161.46 355.25,161.49 355.30,161.52 355.35,161.55 355.40,161.58 355.45,161.62 355.50,161.65 355.55,161.68 355.60,161.72 355.65,161.75 355.70,161.78 355.75,161.82 355.80,161.85 355.85,161.89 355.90,161.93 355.95,161.96 356.00,162.00 356.05,162.04 356.10,162.08 356.15,162.11 356.20,162.15 356.25,162.19 356.30,162.23 356.35,162.27 356.40,162.32 356.45,162.36 356.50,162.40 356.55,162.44 356.60,162.49 356.65,162.53 356.70,162.58 356.75,162.62 356.80,162.67 356.85,162.71 356.90,162.76 356.95,162.81 357.00,162.86 357.05,162.91 357.10,162.96 357.15,163.01 357.20,163.06 357.25,163.11 357.30,163.17 357.35,163.22 357.40,163.27 357.45,163.33 357.50,163.39 357.55,163.44 357.60,163.50 357.65,163.56 357.70,163.62 357.75,163.68 357.80,163.74 357.85,163.81 357.90,163.87 357.95,163.93 358.00,164.00 358.05,164.07 358.10,164.14 358.15,164.21 358.20,164.28 358.25,164.35 358.30,164.42 358.35,164.50 358.40,164.57 358.45,164.65 358.50,164.73 358.55,164.81 358.60,164.90 358.65,164.98 358.70,165.07 358.75,165.16 358.80,165.25 358.85,165.34 358.90,165.44 358.95,165.54 359.00,165.64 359.05,165.75 359.10,165.85 359.15,165.97 359.20,166.08 359.25,166.20 359.30,166.32 359.35,166.45 359.40,166.59 359.45,166.73 359.50,166.88 359.55,167.03 359.60,167.20 359.65,167.38 359.70,167.57 359.75,167.78 359.80,168.01 359.85,168.27 359.90,168.59 359.95,169.00 360.00,170.00 359.95,171.00 359.90,171.41 359.85,171.73 359.80,171.99 359.75,172.22 359.70,172.43 359.65,172.62 359.60,172.80 359.55,172.97 359.50,173.12 359.45,173.27 359.40,173.41 359.35,173.55 359.30,173.68 359.25,173.80 359.20,173.92 359.15,174.03 359.10,174.15 359.05,174.25 359.00,174.36 358.95,174.46 358.90,174.56 358.85,174.66 358.80,174.75 358.75,174.84 358.70,174.93 358.65,175.02 358.60,175.10 358.55,175.19 358.50,175.27 358.45,175.35 358.40,175.43 358.35,175.50 358.30,175.58 358.25,175.65 358.20,175.72 358.15,175.79 358.10,175.86 358.05,175.93 358.00,176.00 357.95,176.07 357.90,176.13 357.85,176.19 357.80,176.26 357.75,176.32 357.70,176.38 357.65,176.44 357.60,176.50 357.55,176.56 357.50,176.61 357.45,176.67 357.40,176.73 357.35,176.78 357.30,176.83 357.25,176.89 357.20,176.94 357.15,176.99 357.10,177.04 357.05,177.09 357.00,177.14 356.95,177.19 356.90,177.24 356.85,177.29 356.80,177.33 356.75,177.38 356.70,177.42 356.65,177.47 356.60,177.51 356.55,177.56 356.50,177.60 356.45,177.64 356.40,177.68 356.35,177.73 356.30,177.77 356.25,177.81 356.20,177.85 356.15,177.89 356.10,177.92 356.05,177.96 356.00,178.00 355.95,178.04 355.90,178.07 355.85,178.11 355.80,178.15 355.75,178.18 355.70,178.22 355.65,178.25 355.60,178.28 355.55,178.32 355.50,178.35 355.45,178.38 355.40,178.42 355.35,178.45 355.30,178.48 355.25,178.51 355.20,178.54 355.15,178.57 355.10,178.60 355.05,178.63 355.00,178.66 354.95,178.69 354.90,178.72 354.85,178.75 354.80,178.77 354.75,178.80 354.70,178.83 354.65,178.85 354.60,178.88 354.55,178.90 354.50,178.93 354.45,178.96 354.40,178.98 354.35,179.00 354.30,179.03 354.25,179.05 354.20,179.08 354.15,179.10 354.10,179.12 354.05,179.14 354.00,179.17 353.95,179.19 353.90,179.21 353.85,179.23 353.80,179.25 353.75,179.27 353.70,179.29 353.65,179.31 353.60,179.33 353.55,179.35 353.50,179.37 353.45,179.39 353.40,179.40 353.35,179.42 353.30,179.44 353.25,179.46 353.20,179.47 353.15,179.49 353.10,179.51 353.05,179.52 353.00,179.54 352.95,179.55 352.90,179.57 352.85,179.59 352.80,179.60 352.75,179.61 352.70,179.63 352.65,179.64 352.60,179.66 352.55,179.67 352.50,179.68 352.45,179.70 352.40,179.71 352.35,179.72 352.30,179.73 352.25,179.74 352.20,179.75 352.15,179.77 352.10,179.78 352.05,179.79 352.00,179.80 351.95,179.81 351.90,179.82 351.85,179.83 351.80,179.84 351.75,179.85 351.70,179.85 351.65,179.86 351.60,179.87 351.55,179.88 351.50,179.89 351.45,179.89 351.40,179.90 351.35,179.91 351.30,179.92 351.25,179.92 351.20,179.93 351.15,179.93 351.10,179.94 351.05,179.94 351.00,179.95 350.95,179.95 350.90,179.96 350.85,179.96 350.80,179.97 350.75,179.97 350.70,179.98 350.65,179.98 350.60,179.98 350.55,179.98 350.50,179.99 350.45,179.99 350.40,179.99 350.35,179.99 350.30,180.00 350.25,180.00 350.20,180.00 350.15,180.00 350.10,180.00 350.05,180.00 350.00,180.00 349.95,180.00 349.90,180.00 349.85,180.00 349.80,180.00 349.75,180.00 349.70,180.00 349.65,179.99 349.60,179.99 349.55,179.99 349.50,179.99 349.45,179.98 349.40,179.98 349.35,179.98 349.30,179.98 349.25,179.97 349.20,179.97 349.15,179.96 349.10,179.96 349.05,179.95 349.00,179.95 348.95,179.94 348.90,179.94 348.85,179.93 348.80,179.93 348.75,179.92 348.70,179.92 348.65,179.91 348.60,179.90 348.55,179.89 348.50,179.89 348.45,179.88 348.40,179.87 348.35,179.86 348.30,179.85 348.25,179.85 348.20,179.84 348.15,179.83 348.10,179.82 348.05,179.81 348.00,179.80 347.95,179.79 347.90,179.78 347.85,179.77 347.80,179.75 347.75,179.74 347.70,179.73 347.65,179.72 347.60,179.71 347.55,179.70 347.50,179.68 347.45,179.67 347.40,179.66 347.35,179.64 347.30,179.63 347.25,179.61 347.20,179.60 347.15,179.59 347.10,179.57 347.05,179.55 347.00,179.54 346.95,179.52 346.90,179.51 346.85,179.49 346.80,179.47 346.75,179.46 346.70,179.44 346.65,179.42 346.60,179.40 346.55,179.39 346.50,179.37 346.45,179.35 346.40,179.33 346.35,179.31 346.30,179.29 346.25,179.27 346.20,179.25 346.15,179.23 346.10,179.21 346.05,179.19 346.00,179.17 345.95,179.14 345.90,179.12 345.85,179.10 345.80,179.08 345.75,179.05 345.70,179.03 345.65,179.00 345.60,178.98 345.55,178.96 345.50,178.93 345.45,178.90 345.40,178.88 345.35,178.85 345.30,178.83 345.25,178.80 345.20,178.77 345.15,178.75 345.10,178.72 345.05,178.69 345.00,178.66 344.95,178.63 344.90,178.60 344.85,178.57 344.80,178.54 344.75,178.51 344.70,178.48 344.65,178.45 344.60,178.42 344.55,178.38 344.50,178.35 344.45,178.32 344.40,178.28 344.35,178.25 344.30,178.22 344.25,178.18 344.20,178.15 344.15,178.11 344.10,178.07 344.05,178.04 344.00,178.00 343.95,177.96 343.90,177.92 343.85,177.89 343.80,177.85 343.75,177.81 343.70,177.77 343.65,177.73 343.60,177.68 343.55,177.64 343.50,177.60 343.45,177.56 343.40,177.51 343.35,177.47 343.30,177.42 343.25,177.38 343.20,177.33 343.15,177.29 343.10,177.24 343.05,177.19 343.00,177.14 342.95,177.09 342.90,177.04 342.85,176.99 342.80,176.94 342.75,176.89 342.70,176.83 342.65,176.78 342.60,176.73 342.55,176.67 342.50,176.61 342.45,176.56 342.40,176.50 342.35,176.44 342.30,176.38 342.25,176.32 342.20,176.26 342.15,176.19 342.10,176.13 342.05,176.07 342.00,176.00 341.95,175.93 341.90,175.86 341.85,175.79 341.80,175.72 341.75,175.65 341.70,175.58 341.65,175.50 341.60,175.43 341.55,175.35 341.50,175.27 341.45,175.19 341.40,175.10 341.35,175.02 341.30,174.93 341.25,174.84 341.20,174.75 341.15,174.66 341.10,174.56 341.05,174.46 341.00,174.36 340.95,174.25 340.90,174.15 340.85,174.03 340.80,173.92 340.75,173.80 340.70,173.68 340.65,173.55 340.60,173.41 340.55,173.27 340.50,173.12 340.45,172.97 340.40,172.80 340.35,172.62 340.30,172.43 340.25,172.22 340.20,171.99 340.15,171.73 340.10,171.41 340.05,171.00 340.00,170.00"/>
  <text x="351.00" y="173.00" fill="#0000ff" text-anchor="middle" font-size="10.00">
    54
  </text>
  <polyline stroke="#ff0000" stroke-width="1.00" stroke-linecap="square" fill="#ffffff" points="290.00,95.00  290.05,94.00 290.10,93.59 290.15,93.27 290.20,93.01 290.25,92.78 290.30,92.57 290.35,92.38 290.40,92.20 290.45,92.03 290.50,91.88 290.55,91.73 290.60,91.59 290.65,91.45 290.70,91.32 290.75,91.20 290.80,91.08 290.85,90.97 290.90,90.85 290.95,90.75 291.00,90.64 291.05,90.54 291.10,90.44 291.15,90.34 291.20,90.25 291.25,90.16 291.30,90.07 291.35,89.98 291.40,89.90 291.45,89.81 291.50,89.73 291.55,89.65 291.60,89.57 291.65,89.50 291.70,89.42 291.75,89.35 291.80,89.28 291.85,89.21 291.90,89.14 291.95,89.07 292.00,89.00 292.05,88.93 292.10,88.87 292.15,88.81 292.20,88.74 292.25,88.68 292.30,88.62 292.35,88.56 292.40,88.50 292.45,88.44 292.50,88.39 292.55,88.33 292.60,88.27 292.65,88.22 292.70,88.17 292.75,88.11 292.80,88.06 292.85,88.01 292.90,87.96 292.95,87.91 293.00,87.86 293.05,87.81 293.10,87.76 293.15,87.71 293.20,87.67 293.25,87.62 293.30,87.58 293.35,87.53 293.40,87.49 293.45,87.44 293.50,87.40 293.55,87.36 293.60,87.32 293.65,87.27 293.70,87.23 293.75,87.19 293.80,87.15 293.85,87.11 293.90,87.08 293.95,87.04 294.00,87.00 294.05,86.96 294.10,86.93 294.15,86.89 294.20,86.85 294.25,86.82 294.30,86.78 294.35,86.75 294.40,86.72 294.45,86.68 294.50,86.65 294.55,86.62 294.60,86.58 294.65,86.55 294.70,86.52 294.75,86.49 294.80,86.46 294.85,86.43 294.90,86.40 294.95,86.37 295.00,86.34 295.05,86.31 295.10,86.28 295.15,86.25 295.20,86.23 295.25,86.20 295.30,86.17 295.35,86.15 295.40,86.12 295.45,86.10 295.50,86.07 295.55,86.04 295.60,86.02 295.65,86.00 295.70,85.97 295.75,85.95 295.80,85.92 295.85,85.90 295.90,85.88 295.95,85.86 296.00,85.83 296.05,85.81 296.10,85.79 296.15,85.77 296.20,85.75 296.25,85.73 296.30,85.71 296.35,85.69 296.40,85.67 296.45,85.65 296.50,85.63 296.55,85.61 296.60,85.60 296.65,85.58 296.70,85.56 296.75,85.54 296.80,85.53 296.85,85.51 296.90,85.49 296.95,85.48 297.00,85.46 297.05,85.45 297.10,85.43 297.15,85.41 297.20,85.40 297.25,85.39 297.30,85.37 297.35,85.36 297.40,85.34 297.45,85.33 297.50,85.32 297.55,85.30 297.60,85.29 297.65,85.28 297.70,85.27 297.75,85.26 297.80,85.25 297.85,85.23 297.90,85.22 297.95,85.21 298.00,85.20 298.05,85.19 298.10,85.18 298.15,85.17 298.20,85.16 298.25,85.15 298.30,85.15 298.35,85.14 298.40,85.13 298.45,85.12 298.50,85.11 298.55,85.11 298.60,85.10 298.65,85.09 298.70,85.08 298.75,85.08 298.80,85.07 298.85,85.07 298.90,85.06 298.95,85.06 299.00,85.05 299.05,85.05 299.10,85.04 299.15,85.04 299.20,85.03 299.25,85.03 299.30,85.02 299.35,85.02 299.40,85.02 299.45,85.02 299.50,85.01 299.55,85.01 299.60,85.01 299.65,85.01 299.70,85.00 299.75,85.00 299.80,85.00 299.85,85.00 299.90,85.00 299.95,85.00 300.00,85.00 300.05,85.00 300.10,85.00 300.15,85.00 300.20,85.00 300.25,85.00 300.30,85.00 300.35,85.01 300.40,85.01 300.45,85.01 300.50,85.01 300.55,85.02 300.60,85.02 300.65,85.02 300.70,85.02 300.75,85.03 300.80,85.03 300.85,85.04 300.90,85.04 300.95,85.05 301.00,85.05 301.05,85.06 301.10,85.06 301.15,85.07 301.20,85.07 301.25,85.08 301.30,85.08 301.35,85.09 301.40,85.10 301.45,85.11 301.50,85.11 301.55,85.12 301.60,85.13 301.65,85.14 301.70,85.15 301.75,85.15 301.80,85.16 301.85,85.17 301.90,85.18 301.95,85.19 302.00,85.20 302.05,85.21 302.10,85.22 302.15,85.23 302.20,85.25 302.25,85.26 302.30,85.27 302.35,85.28 302.40,85.29 302.45,85.30 302.50,85.32 302.55,85.33 302.60,85.34 302.65,85.36 302.70,85.37 302.75,85.39 302.80,85.40 302.85,85.41 302.90,85.43 302.95,85.45 303.00,85.46 303.05,85.48 303.10,85.49 303.15,85.51 303.20,85.53 303.25,85.54 303.30,85.56 303.35,85.58 303.40,85.60 303.45,85.61 303.50,85.63 303.55,85.65 303.60,85.67 303.65,85.69 303.70,85.71 303.75,85.73 303.80,85.75 303.85,85.77 303.90,85.79 303.95,85.81 304.00,85.83 304.05,85.86 304.10,85.88 304.15,85.90 304.20,85.92 304.25,85.95 304.30,85.97 304.35,86.00 304.40,86.02 304.45,86.04 304.50,86.07 304.55,86.10 304.60,86.12 304.65,86.15 304.70,86.17 304.75,86.20 304.80,86.23 304.85,86.25 304.90,86.28 304.95,86.31 305.00,86.34 305.05,86.37 305.10,86.40 305.15,86.43 305.20,86.46 305.25,86.49 305.30,86.52 305.35,86.55 305.40,86.58 305.45,86.62 305.50,86.65 305.55,86.68 305.60,86.72 305.65,86.75 305.70,86.78 305.75,86.82 305.80,86.85 305.85,86.89 305.90,86.93 305.95,86.96 306.00,87.00 306.05,87.04 306.10,87.08 306.15,87.11 306.20,87.15 306.25,87.19 306.30,87.23 306.35,87.27 306.40,87.32 306.45,87.36 306.50,87.40 306.55,87.44 306.60,87.49 306.65,87.53 306.70,87.58 306.75,87.62 306.80,87.67 306.85,87.71 306.90,87.76 306.95,87.81 307.00,87.86 307.05,87.91 307.10,87.96 307.15,88.01 307.20,88.06 307.25,88.11 307.30,88.17 307.35,88.22 307.40,88.27 307.45,88.33 307.50,88.39 307.55,88.44 307.60,88.50 307.65,88.56 307.70,88.62 307.75,88.68 307.80,88.74 307.85,88.81 307.90,88.87 307.95,88.93 308.00,89.00 308.05,89.07 308.10,89.14 308.15,89.21 308.20,89.28 308.25,89.35 308.30,89.42 308.35,89.50 308.40,89.57 308.45,89.65 308.50,89.73 308.55,89.81 308.60,89.90 308.65,89.98 308.70,90.07 308.75,90.16 308.80,90.25 308.85,90.34 308.90,90.44 308.95,90.54 309.00,90.64 309.05,90.75 309.10,90.85 309.15,90.97 309.20,91.08 309.25,91.20 309.30,91.32 309.35,91.45 309.40,91.59 309.45,91.73 309.50,91.88 309.55,92.03 309.60,92.20 309.65,92.38 309.70,92.57 309.75,92.78 309.80,93.01 309.85,93.27 309.90,93.59 309.95,94.00 310.00,95.00 309.95,96.00 309.90,96.41 309.85,96.73 309.80,96.99 309.75,97.22 309.70,97.43 309.65,97.62 309.60,97.80 309.55,97.97 309.50,98.12 309.45,98.27 309.40,98.41 309.35,98.55 309.30,98.68 309.25,98.80 309.20,98.92 309.15,99.03 309.10,99.15 309.05,99.25 309.00,99.36 308.95,99.46 308.90,99.56 308.85,99.66 308.80,99.75 308.75,99.84 308.70,99.93 308.65,100.02 308.60,100.10 308.55,100.19 308.50,100.27 308.45,100.35 308.40,100.43 308.35,100.50 308.30,100.58 308.25,100.65 308.20,100.72 308.15,100.79 308.10,100.86 308.05,100.93 308.00,101.00 307.95,101.07 307.90,101.13 307.85,101.19 307.80,101.26 307.75,101.32 307.70,101.38 307.65,101.44 307.60,101.50 307.55,101.56 307.50,101.61 307.45,101.67 307.40,101.73 307.35,101.78 307.30,101.83 307.25,101.89 307.20,101.94 307.15,101.99 307.10,102.04 307.05,102.09 307.00,102.14 306.95,102.19 306.90,102.24 306.85,102.29 306.80,102.33 306.75,102.38 306.70,102.42 306.65,102.47 306.60,102.51 306.55,102.56 306.50,102.60 306.45,102.64 306.40,102.68 306.35,102.73 306.30,102.77 306.25,102.81 306.20,102.85 306.15,102.89 306.10,102.92 306.05,102.96 306.00,103.00 305.95,103.04 305.90,103.07 305.85,103.11 305.80,103.15 305.75,103.18 305.70,103.22 305.65,103.25 305.60,103.28 305.55,103.32 305.50,103.35 305.45,103.38 305.40,103.42 305.35,103.45 305.30,103.48 305.25,103.51 305.20,103.54 305.15,103.57 305.10,103.60 305.05,103.63 305.00,103.66 304.95,103.69 304.90,103.72 304.85,103.75 304.80,103.77 304.75,103.80 304.70,103.83 304.65,103.85 304.60,103.88 304.55,103.90 304.50,103.93 304.45,103.96 304.40,103.98 304.35,104.00 304.30,104.03 304.25,104.05 304.20,104.08 304.15,104.10 304.10,104.12 304.05,104.14 304.00,104.17 303.95,104.19 303.90,104.21 303.85,104.23 303.80,104.25 303.75,104.27 303.70,104.29 303.65,104.31 303.60,104.33 303.55,104.35 303.50,104.37 303.45,104.39 303.40,104.40 303.35,104.42 303.30,104.44 303.25,104.46 303.20,104.47 303.15,104.49 303.10,104.51 303.05,104.52 303.00,104.54 302.95,104.55 302.90,104.57 302.85,104.59 302.80,104.60 302.75,104.61 302.70,104.63 302.65,104.64 302.60,104.66 302.55,104.67 302.50,104.68 302.45,104.70 302.40,104.71 302.35,104.72 302.30,104.73 302.25,104.74 302.20,104.75 302.15,104.77 302.10,104.78 302.05,104.79 302.00,104.80 301.95,104.81 301.90,104.82 301.85,104.83 301.80,104.84 301.75,104.85 301.70,104.85 301.65,104.86 301.60,104.87 301.55,104.88 301.50,104.89 301.45,104.89 301.40,104.90 301.35,104.91 301.30,104.92 301.25,104.92 301.20,104.93 301.15,104.93 301.10,104.94 301.05,104.94 301.00,104.95 300.95,104.95 300.90,104.96 300.85,104.96 300.80,104.97 300.75,104.97 300.70,104.98 300.65,104.98 300.60,104.98 300.55,104.98 300.50,104.99 300.45,104.99 300.40,104.99 300.35,104.99 300.30,105.00 300.25,105.00 300.20,105.00 300.15,105.00 300.10,105.00 300.05,105.00 300.00,105.00 299.95,105.00 299.90,105.00 299.85,105.00 299.80,105.00 299.75,105.00 299.70,105.00 299.65,104.99 299.60,104.99 299.55,104.99 299.50,104.99 299.45,104.98 299.40,104.98 299.35,104.98 299.30,104.98 299.25,104.97 299.20,104.97 299.15,104.96 299.10,104.96 299.05,104.95 299.00,104.95 298.95,104.94 298.90,104.94 298.85,104.93 298.80,104.93 298.75,104.92 298.70,104.92 298.65,104.91 298.60,104.90 298.55,104.89 298.50,104.89 298.45,104.88 298.40,104.87 298.35,104.86 298.30,104.85 298.25,104.85 298.20,104.84 298.15,104.83 298.10,104.82 298.05,104.81 298.00,104.80 297.95,104.79 297.90,104.78 297.85,104.77 297.80,104.75 297.75,104.74 297.70,104.73 297.65,104.72 297.60,104.71 297.55,104.70 297.50,104.68 297.45,104.67 297.40,104.66 297.35,104.64 297.30,104.63 297.25,104.61 297.20,104.60 297.15,104.59 297.10,104.57 297.05,104.55 297.00,104.54 296.95,104.52 296.90,104.51 296.85,104.49 296.80,104.47 296.75,104.46 296.70,104.44 296.65,104.42 296.60,104.40 296.55,104.39 296.50,104.37 296.45,104.35 296.40,104.33 296.35,104.31 296.30,104.29 296.25,104.27 296.20,104.25 296.15,104.23 296.10,104.21 296.05,104.19 296.00,104.17 295.95,104.14 295.90,104.12 295.85,104.10 295.80,104.08 295.75,104.05 295.70,104.03 295.65,104.00 295.60,103.98 295.55,103.96 295.50,103.93 295.45,103.90 295.40,103.88 295.35,103.85 295.30,103.83 295.25,103.80 295.20,103.77 295.15,103.75 295.10,103.72 295.05,103.69 295.00,103.66 294.95,103.63 294.90,103.60 294.85,103.57 294.80,103.54 294.75,103.51 294.70,103.48 294.65,103.45 294.60,103.42 294.55,103.38 294.50,103.35 294.45,103.32 294.40,103.28 294.35,103.25 294.30,103.22 294.25,103.18 294.20,103.15 294.15,103.11 294.10,103.07 294.05,103.04 294.00,103.00 293.95,102.96 293.90,102.92 293.85,102.89 293.80,102.85 293.75,102.81 293.70,102.77 293.65,102.73 293.60,102.68 293.55,102.64 293.50,102.60 293.45,102.56 293.40,102.51 293.35,102.47 293.30,102.42 293.25,102.38 293.20,102.33 293.15,102.29 293.10,102.24 293.05,102.19 293.00,102.14 292.95,102.09 292.90,102.04 292.85,101.99 292.80,101.94 292.75,101.89 292.70,101.83 292.65,101.78 292.60,101.73 292.55,101.67 292.50,101.61 292.45,101.56 292.40,101.50 292.35,101.44 292.30,101.38 292.25,101.32 292.20,101.26 292.15,101.19 292.10,101.13 292.05,101.07 292.00,101.00 291.95,100.93 291.90,100.86 291.85,100.79 291.80,100.72 291.75,100.65 291.70,100.58 291.65,100.50 291.60,100.43 291.55,100.35 291.50,100.27 291.45,100.19 291.40,100.10 291.35,100.02 291.30,99.93 291.25,99.84 291.20,99.75 291.15,99.66 291.10,99.56 291.05,99.46 291.00,99.36 290.95,99.25 290.90,99.15 290.85,99.03 290.80,98.92 290.75,98.80 290.70,98.68 290.65,98.55 290.60,98.41 290.55,98.27 290.50,98.12 290.45,97.97 290.40,97.80 290.35,97.62 290.30,97.43 290.25,97.22 290.20,96.99 290.15,96.73 290.10,96.41 290.05,96.00 290.00,95.00"/>
  <text x="301.00" y="98.00" fill="#0000ff" text-anchor="middle" font-size="10.00">
    89
  </text>
  <polyline stroke="#ff0000" stroke-width="1.00" stroke-linecap="square" fill="#ffffff" points="190.00,20.00  190.05,19.00 190.10,18.59 190.15,18.27 190.20,18.01 190.25,17.78 190.30,17.57 190.35,17.38 190.40,17.20 190.45,17.03 190.50,16.88 190.55,16.73 190.60,16.59 190.65,16.45 190.70,16.32 190.75,16.20 190.80,16.08 190.85,15.97 190.90,15.85 190.95,15.75 191.00,15.64 191.05,15.54 191.10,15.44 191.15,15.34 191.20,15.25 191.25,15.16 191.30,15.07 191.35,14.98 191.40,14.90 191.45,14.81 191.50,14.73 191.55,14.65 191.60,14.57 191.65,14.50 191.70,14.42 191.75,14.35 191.80,14.28 191.85,14.21 191.90,14.14 191.95,14.07 192.00,14.00 192.05,13.93 192.10,13.87 192.15,13.81 192.20,13.74 192.25,13.68 192.30,13.62 192.35,13.56 192.40,13.50 192.45,13.44 192.50,13.39 192.55,13.33 192.60,13.27 192.65,13.22 192.70,13.17 192.75,13.11 192.80,13.06 192.85,13.01 192.90,12.96 192.95,12.91 193.00,12.86 193.05,12.81 193.10,12.76 193.15,12.71 193.20,12.67 193.25,12.62 193.30,12.58 193.35,12.53 193.40,12.49 193.45,12.44 193.50,12.40 193.55,12.36 193.60,12.32 193.65,12.27 193.70,12.23 193.75,12.19 193.80,12.15 193.85,12.11 193.90,12.08 193.95,12.04 194.00,12.00 194.05,11.96 194.10,11.93 194.15,11.89 194.20,11.85 194.25,11.82 194.30,11.78 194.35,11.75 194.40,11.72 194.45,11.68 194.50,11.65 194.55,11.62 194.60,11.58 194.65,11.55 194.70,11.52 194.75,11.49 194.80,11.46 194.85,11.43 194.90,11.40 194.95,11.37 195.00,11.34 195.05,11.31 195.10,11.28 195.15,11.25 195.20,11.23 195.25,11.20 195.30,11.17 195.35,11.15 195.40,11.12 195.45,11.10 195.50,11.07 195.55,11.04 195.60,11.02 195.65,11.00 195.70,10.97 195.75,10.95 195.80,10.92 195.85,10.90 195.90,10.88 195.95,10.86 196.00,10.83 196.05,10.81 196.10,10.79 196.15,10.77 196.20,10.75 196.25,10.73 196.30,10.71 196.35,10.69 196.40,10.67 196.45,10.65 196.50,10.63 196.55,10.61 196.60,10.60 196.65,10.58 196.70,10.56 196.75,10.54 196.80,10.53 196.85,10.51 196.90,10.49 196.95,10.48 197.00,10.46 197.05,10.45 197.10,10.43 197.15,10.41 197.20,10.40 197.25,10.39 197.30,10.37 197.35,10.36 197.40,10.34 197.45,10.33 197.50,10.32 197.55,10.30 197.60,10.29 197.65,10.28 197.70,10.27 197.75,10.26 197.80,10.25 197.85,10.23 197.90,10.22 197.95,10.21 198.00,10.20 198.05,10.19 198.10,10.18 198.15,10.17 198.20,10.16 198.25,10.15 198.30,10.15 198.35,10.14 198.40,10.13 198.45,10.12 198.50,10.11 198.55,10.11 198.60,10.10 198.65,10.09 198.70,10.08 198.75,10.08 198.80,10.07 198.85,10.07 198.90,10.06 198.95,10.06 199.00,10.05 199.05,10.05 199.10,10.04 199.15,10.04 199.20,10.03 199.25,10.03 199.30,10.02 199.35,10.02 199.40,10.02 199.45,10.02 199.50,10.01 199.55,10.01 199.60,10.01 199.65,10.01 199.70,10.00 199.75,10.00 199.80,10.00 199.85,10.00 199.90,10.00 199.95,10.00 200.00,10.00 200.05,10.00 200.10,10.00 200.15,10.00 200.20,10.00 200.25,10.00 200.30,10.00 200.35,10.01 200.40,10.01 200.45,10.01 200.50,10.01 200.55,10.02 200.60,10.02 200.65,10.02 200.70,10.02 200.75,10.03 200.80,10.03 200.85,10.04 200.90,10.04 200.95,10.05 201.00,10.05 201.05,10.06 201.10,10.06 201.15,10.07 201.20,10.07 201.25,10.08 201.30,10.08 201.35,10.09 201.40,10.10 201.45,10.11 201.50,10.11 201.55,10.12 201.60,10.13 201.65,10.14 201.70,10.15 201.75,10.15 201.80,10.16 201.85,10.17 201.90,10.18 201.95,10.19 202.00,10.20 202.05,10.21 202.10,10.22 202.15,10.23 202.20,10.25 202.25,10.26 202.30,10.27 202.35,10.28 202.40,10.29 202.45,10.30 202.50,10.32 202.55,10.33 202.60,10.34 202.65,10.36 202.70,10.37 202.75,10.39 202.80,10.40 202.85,10.41 202.90,10.43 202.95,10.45 203.00,10.46 203.05,10.48 203.10,10.49 203.15,10.51 203.20,10.53 203.25,10.54 203.30,10.56 203.35,10.58 203.40,10.60 203.45,10.61 203.50,10.63 203.55,10.65 203.60,10.67 203.65,10.69 203.70,10.71 203.75,10.73 203.80,10.75 203.85,10.77 203.90,10.79 203.95,10.81 204.00,10.83 204.05,10.86 204.10,10.88 204.15,10.90 204.20,10.92 204.25,10.95 204.30,10.97 204.35,11.00 204.40,11.02 204.45,11.04 204.50,11.07 204.55,11.10 204.60,11.12 204.65,11.15 204.70,11.17 204.75,11.20 204.80,11.23 204.85,11.25 204.90,11.28 204.95,11.31 205.00,11.34 205.05,11.37 205.10,11.40 205.15,11.43 205.20,11.46 205.25,11.49 205.30,11.52 205.35,11.55 205.40,11.58 205.45,11.62 205.50,11.65 205.55,11.68 205.60,11.72 205.65,11.75 205.70,11.78 205.75,11.82 205.80,11.85 205.85,11.89 205.90,11.93 205.95,11.96 206.00,12.00 206.05,12.04 206.10,12.08 206.15,12.11 206.20,12.15 206.25,12.19 206.30,12.23 206.35,12.27 206.40,12.32 206.45,12.36 206.50,12.40 206.55,12.44 206.60,12.49 206.65,12.53 206.70,12.58 206.75,12.62 206.80,12.67 206.85,12.71 206.90,12.76 206.95,12.81 207.00,12.86 207.05,12.91 207.10,12.96 207.15,13.01 207.20,13.06 207.25,13.11 207.30,13.17 207.35,13.22 207.40,13.27 207.45,13.33 207.50,13.39 207.55,13.44 207.60,13.50 207.65,13.56 207.70,13.62 207.75,13.68 207.80,13.74 207.85,13.81 207.90,13.87 207.95,13.93 208.00,14.00 208.05,14.07 208.10,14.14 208.15,14.21 208.20,14.28 208.25,14.35 208.30,14.42 208.35,14.50 208.40,14.57 208.45,14.65 208.50,14.73 208.55,14.81 208.60,14.90 208.65,14.98 208.70,15.07 208.75,15.16 208.80,15.25 208.85,15.34 208.90,15.44 208.95,15.54 209.00,15.64 209.05,15.75 209.10,15.85 209.15,15.97 209.20,16.08 209.25,16.20 209.30,16.32 209.35,16.45 209.40,16.59 209.45,16.73 209.50,16.88 209.55,17.03 209.60,17.20 209.65,17.38 209.70,17.57 209.75,17.78 209.80,18.01 209.85,18.27 209.90,18.59 209.95,19.00 210.00,20.00 209.95,21.00 209.90,21.41 209.85,21.73 209.80,21.99 209.75,22.22 209.70,22.43 209.65,22.62 209.60,22.80 209.55,22.97 209.50,23.12 209.45,23.27 209.40,23.41 209.35,23.55 209.30,23.68 209.25,23.80 209.20,23.92 209.15,24.03 209.10,24.15 209.05,24.25 209.00,24.36 208.95,24.46 208.90,24.56 208.85,24.66 208.80,24.75 208.75,24.84 208.70,24.93 208.65,25.02 208.60,25.10 208.55,25.19 208.50,25.27 208.45,25.35 208.40,25.43 208.35,25.50 208.30,25.58 208.25,25.65 208.20,25.72 208.15,25.79 208.10,25.86 208.05,25.93 208.00,26.00 207.95,26.07 207.90,26.13 207.85,26.19 207.80,26.26 207.75,26.32 207.70,26.38 207.65,26.44 207.60,26.50 207.55,26.56 207.50,26.61 207.45,26.67 207.40,26.73 207.35,26.78 207.30,26.83 207.25,26.89 207.20,26.94 207.15,26.99 207.10,27.04 207.05,27.09 207.00,27.14 206.95,27.19 206.90,27.24 206.85,27.29 206.80,27.33 206.75,27.38 206.70,27.42 206.65,27.47 206.60,27.51 206.55,27.56 206.50,27.60 206.45,27.64 206.40,27.68 206.35,27.73 206.30,27.77 206.25,27.81 206.20,27.85 206.15,27.89 206.10,27.92 206.05,27.96 206.00,28.00 205.95,28.04 205.90,28.07 205.85,28.11 205.80,28.15 205.75,28.18 205.70,28.22 205.65,28.25 205.60,28.28 205.55,28.32 205.50,28.35 205.45,28.38 205.40,28.42 205.35,28.45 205.30,28.48 205.25,28.51 205.20,28.54 205.15,28.57 205.10,28.60 205.05,28.63 205.00,28.66 204.95,28.69 204.90,28.72 204.85,28.75 204.80,28.77 204.75,28.80 204.70,28.83 204.65,28.85 204.60,28.88 204.55,28.90 204.50,28.93 204.45,28.96 204.40,28.98 204.35,29.00 204.30,29.03 204.25,29.05 204.20,29.08 204.15,29.10 204.10,29.12 204.05,29.14 204.00,29.17 203.95,29.19 203.90,29.21 203.85,29.23 203.80,29.25 203.75,29.27 203.70,29.29 203.65,29.31 203.60,29.33 203.55,29.35 203.50,29.37 203.45,29.39 203.40,29.40 203.35,29.42 203.30,29.44 203.25,29.46 203.20,29.47 203.15,29.49 203.10,29.51 203.05,29.52 203.00,29.54 202.95,29.55 202.90,29.57 202.85,29.59 202.80,29.60 202.75,29.61 202.70,29.63 202.65,29.64 202.60,29.66 202.55,29.67 202.50,29.68 202.45,29.70 202.40,29.71 202.35,29.72 202.30,29.73 202.25,29.74 202.20,29.75 202.15,29.77 202.10,29.78 202.05,29.79 202.00,29.80 201.95,29.81 201.90,29.82 201.85,29.83 201.80,29.84 201.75,29.85 201.70,29.85 201.65,29.86 201.60,29.87 201.55,29.88 201.50,29.89 201.45,29.89 201.40,29.90 201.35,29.91 201.30,29.92 201.25,29.92 201.20,29.93 201.15,29.93 201.10,29.94 201.05,29.94 201.00,29.95 200.95,29.95 200.90,29.96 200.85,29.96 200.80,29.97 200.75,29.97 200.70,29.98 200.65,29.98 200.60,29.98 200.55,29.98 200.50,29.99 200.45,29.99 200.40,29.99 200.35,29.99 200.30,30.00 200.25,30.00 200.20,30.00 200.15,30.00 200.10,30.00 200.05,30.00 200.00,30.00 199.95,30.00 199.90,30.00 199.85,30.00 199.80,30.00 199.75,30.00 199.70,30.00 199.65,29.99 199.60,29.99 199.55,29.99 199.50,29.99 199.45,29.98 199.40,29.98 199.35,29.98 199.30,29.98 199.25,29.97 199.20,29.97 199.15,29.96 199.10,29.96 199.05,29.95 199.00,29.95 198.95,29.94 198.90,29.94 198.85,29.93 198.80,29.93 198.75,29.92 198.70,29.92 198.65,29.91 198.60,29.90 198.55,29.89 198.50,29.89 198.45,29.88 198.40,29.87 198.35,29.86 198.30,29.85 198.25,29.85 198.20,29.84 198.15,29.83 198.10,29.82 198.05,29.81 198.00,29.80 197.95,29.79 197.90,29.78 197.85,29.77 197.80,29.75 197.75,29.74 197.70,29.73 197.65,29.72 197.60,29.71 197.55,29.70 197.50,29.68 197.45,29.67 197.40,29.66 197.35,29.64 197.30,29.63 197.25,29.61 197.20,29.60 197.15,29.59 197.10,29.57 197.05,29.55 197.00,29.54 196.95,29.52 196.90,29.51 196.85,29.49 196.80,29.47 196.75,29.46 196.70,29.44 196.65,29.42 196.60,29.40 196.55,29.39 196.50,29.37 196.45,29.35 196.40,29.33 196.35,29.31 196.30,29.29 196.25,29.27 196.20,29.25 196.15,29.23 196.10,29.21 196.05,29.19 196.00,29.17 195.95,29.14 195.90,29.12 195.85,29.10 195.80,29.08 195.75,29.05 195.70,29.03 195.65,29.00 195.60,28.98 195.55,28.96 195.50,28.93 195.45,28.90 195.40,28.88 195.35,28.85 195.30,28.83 195.25,28.80 195.20,28.77 195.15,28.75 195.10,28.72 195.05,28.69 195.00,28.66 194.95,28.63 194.90,28.60 194.85,28.57 194.80,28.54 194.75,28.51 194.70,28.48 194.65,28.45 194.60,28.42 194.55,28.38 194.50,28.35 194.45,28.32 194.40,28.28 194.35,28.25 194.30,28.22 194.25,28.18 194.20,28.15 194.15,28.11 194.10,28.07 194.05,28.04 194.00,28.00 193.95,27.96 193.90,27.92 193.85,27.89 193.80,27.85 193.75,27.81 193.70,27.77 193.65,27.73 193.60,27.68 193.55,27.64 193.50,27.60 193.45,27.56 193.40,27.51 193.35,27.47 193.30,27.42 193.25,27.38 193.20,27.33 193.15,27.29 193.10,27.24 193.05,27.19 193.00,27.14 192.95,27.09 192.90,27.04 192.85,26.99 192.80,26.94 192.75,26.89 192.70,26.83 192.65,26.78 192.60,26.73 192.55,26.67 192.50,26.61 192.45,26.56 192.40,26.50 192.35,26.44 192.30,26.38 192.25,26.32 192.20,26.26 192.15,26.19 192.10,26.13 192.05,26.07 192.00,26.00 191.95,25.93 191.90,25.86 191.85,25.79 191.80,25.72 191.75,25.65 191.70,25.58 191.65,25.50 191.60,25.43 191.55,25.35 191.50,25.27 191.45,25.19 191.40,25.10 191.35,25.02 191.30,24.93 191.25,24.84 191.20,24.75 191.15,24.66 191.10,24.56 191.05,24.46 191.00,24.36 190.95,24.25 190.90,24.15 190.85,24.03 190.80,23.92 190.75,23.80 190.70,23.68 190.65,23.55 190.60,23.41 190.55,23.27 190.50,23.12 190.45,22.97 190.40,22.80 190.35,22.62 190.30,22.43 190.25,22.22 190.20,21.99 190.15,21.73 190.10,21.41 190.05,21.00 190.00,20.00"/>
  <text x="201.00" y="23.00" fill="#0000ff" text-anchor="middle" font-size="10.00">
    10
  </text>
</svg>
